<?xml version="1.0" encoding="utf-8"?>
<svg id="man" width="86" height="380" viewBox="202.715 584.407 86.5933 380.048" preserveAspectRatio="xMidYMid meet" xmlns="http://www.w3.org/2000/svg">
  <defs id="svgEditorDefs">
    <path id="svgEditorClosePathDefs" class="skin" fill="moccasin" style="stroke-width: 0px; stroke: none; fill-opacity: 1;"/>
  </defs>
  <rect id="svgEditorBackground" x="202.71499633789062" y="584.4310302734375" width="86.59329986572266" height="115.80899810791016" style="fill: none; stroke: none;"/>
  <path id="path1106" style="fill-opacity: 1; fill-rule: nonzero; stroke: none;" d="M1585.43,14995.4c0,0,-31.210000000000036,18,-48.13000000000011,-3.5c-16.940000000000055,-21.5,-1.5299999999999727,-40.399999999999636,4.240000000000009,-61.20000000000073c5.779999999999973,-20.799999999999272,6.930000000000064,-64.70000000000073,41.57999999999993,-50.79999999999927l2.3099999999999454,115.5" transform="matrix(0.13333330353101047, 0, 0, -0.13333330353101047, 0, 2613.333251953125)" class="skin" fill="moccasin"/>
  <path id="path1108" style="fill-opacity: 1; fill-rule: nonzero; stroke-width: 0px; stroke: none;" d="M2104.75,14986.2c0,0,31.210000000000036,18,48.11000000000013,-3.5c16.949999999999818,-21.600000000000364,1.5399999999999636,-40.399999999999636,-4.230000000000018,-61.20000000000073c-5.769999999999982,-20.799999999999272,-6.929999999999836,-64.70000000000073,-41.570000000000164,-50.79999999999927l-2.3099999999999454,115.5" transform="matrix(0.13333330353101047, 0, 0, -0.13333330353101047, 0, 2613.333251953125)" class="skin" fill="moccasin"/>
  <path id="path1110" class="skin" style="fill-opacity: 1; fill-rule: nonzero; stroke-width: 0px; stroke: none;" d="M2111.550000000001,14996.583479999332C2111.550000000001,14996.583479999332,2098.850000000001,15084.28347999933,2026.0799999999995,15155.884479999331C1970.2099999999994,15210.884479999331,1883.0599999999993,15213.384479999331,1845.6099999999992,15211.68347999933C1808.1399999999994,15213.384479999331,1720.9999999999993,15210.884479999331,1665.1199999999992,15155.884479999331C1592.3599999999992,15084.28347999933,1579.6599999999994,14996.583479999332,1579.6599999999994,14996.583479999332C1579.6599999999994,14996.583479999332,1558.8699999999992,14863.68347999933,1613.1399999999994,14790.983479999331C1667.4199999999994,14718.18347999933,1713.6199999999992,14722.78347999933,1743.6499999999994,14710.083479999332C1771.0599999999993,14698.483479999331,1798.1499999999994,14681.384479999331,1835.1099999999992,14678.18347999933L1836.6699999999994,14677.78347999933C1839.7199999999993,14677.583479999332,1842.6899999999994,14677.583479999332,1845.6099999999992,14677.583479999332C1848.5099999999993,14677.583479999332,1851.4799999999993,14677.583479999332,1854.5199999999993,14677.78347999933L1856.0899999999992,14678.18347999933C1893.0599999999993,14681.384479999331,1920.1399999999994,14698.483479999331,1947.5499999999993,14710.083479999332C1977.5799999999992,14722.78347999933,2023.7799999999993,14718.18347999933,2078.060000000001,14790.983479999331C2132.340000000001,14863.68347999933,2111.550000000001,14996.583479999332,2111.550000000001,14996.583479999332" transform="matrix(0.13333330353101047, 0, 0, -0.13333330353101047, 0, 2613.333251953125)" fill="moccasin"/>
  <path id="path1112" style="fill-opacity: 1; fill-rule: nonzero; stroke: none;" d="M2079.9100000000017,14344.815479999317c-21.36999999999989,167.29999999999927,-79.24000000000001,336.7000000000007,-234.48000000000002,336.7000000000007c-164.55999999999995,0,-219.31999999999994,-169.39999999999964,-237.58999999999992,-336.7000000000007h472.06999999999994" transform="matrix(0.13333330353101047, 0, 0, -0.13333330353101047, 0, 2613.333251953125)" class="skin" fill="moccasin"/>
  <path d="M203.33308423253618,684.2599844792421c0.14561897137809865,40.55701966991933,1.9612229976511344,90.78620258653996,0.6872997812537278,103.62751111525336c-1.2739232163974066,12.841308528713398,-1.3651010872549136,13.13691370033473,-1.374603271484375,15.12066650390625c-0.009502184229461363,1.9837528035714058,-1.3265163523703905,-1.223776159939689,0,0.68731689453125c1.3265163523703905,1.911093054470939,10.010763638308958,12.058504641853233,11.684188842773438,13.74609375c1.673425204464479,1.687589108146767,-5.911000595565326,-12.685497543833662,0.6873016357421875,0.68731689453125c6.5983022313074855,8.155343285363756,34.90694890706695,-200.51328059314733,-11.684186988285006,-139.08637631122326Z" id="e2_area3" class="skin" fill="moccasin" style="stroke: none; stroke-width: 0px; fill-opacity: 1;" transform="matrix(1 0 0 0.92212 0 52.7372)"/>
  <path d="M209.99465779056467,685.2303662817187c2.577622118976251,43.482733802671646,4.393226145249287,93.71191671929228,3.11930292885188,106.55322524800567c-1.2739232163974066,12.841308528713398,-1.3651010872549136,13.13691370033473,-1.374603271484375,15.12066650390625c-0.009502184229461363,1.9837528035714058,-1.3265163523703905,-1.223776159939689,0,0.68731689453125c1.3265163523703905,1.911093054470939,10.010763638308958,12.058504641853233,11.684188842773438,13.74609375c1.673425204464479,1.687589108146767,-5.911000595565326,-12.685497543833662,0.6873016357421875,0.68731689453125c6.598302231307514,13.372814438364912,46.74974691814302,-203.31423130742337,-14.11619013588313,-136.79461929097442Z" id="e18_area3" class="skin" fill="moccasin" style="stroke: none; stroke-width: 0px; fill-opacity: 1;" transform="matrix(-1.12884 0 0 0.924885 525.692 45.3198)"/>
  <rect x="219.1410352589071" y="699.1089502884427" id="e3_rectangle" class="skin" style="stroke-width: 0px; stroke: none;" width="53.6098" height="108.594" fill="moccasin" transform="matrix(1 0 0 1.10112 -0.687305 -70.0014)"/>
  <path d="M248.37167883537217,798.0809623336122c-37.906769016318066,10.088012717517472,-23.562211548397528,22.567512717527848,-24.742984287735453,23.368365757461902c-1.1807727393379253,0.8008530399340543,-7.131606348101087,-16.468016369641987,-8.247665405273438,7.56036376953125c-11.425637336597958,14.406107078375953,2.434719667900481,122.90636611595937,0.24250550842839405,163.57862285048213c22.065755780702403,-15.686771193004006,10.404701114728482,-10.551283001190086,14.31097911344034,-8.247673246107865c2.1270929850926734,0.9289993178254009,8.691765193692532,9.93622536345788,3.3164505134977844,-3.4364884097915365c15.24384187865661,-37.42839642524268,4.916118269973907,-144.79983813510705,15.120714557642373,-182.82319072157588Z" id="e19_area3" class="skin" fill="moccasin" style="stroke: none; stroke-width: 0px; fill-opacity: 1;" transform="matrix(-1.21421 0 0 1 541.175 -26.8049)"/>
  <path d="M236.32373046875,947.2261962890625c-0.14319425186278067,2.9437532994327285,-1.9324997476343242,9.506517564607975,-0.6873016357421875,10.3095703125c1.2451981118921367,0.8030527478919112,-0.11374472478115649,-3.5135606206113152,1.374603271484375,0.68731689453125c1.4883479962655315,4.200877515142565,-35.51994354093682,10.13113942193263,-34.365264892578125,3.4365234375c1.154678648358697,-6.69461598443263,9.608658491773895,-11.803747409611105,13.058807373046875,-15.1207275390625c3.4501488812729804,-3.3169801294513945,20.762350135651843,-2.2564364049014785,20.619155883789062,0.68731689453125Z" id="e4_area3" class="skin" fill="moccasin" style="stroke: none; stroke-width: 0px; fill-opacity: 1;"/>
  <path d="M256.9428870276014,949.9754171635759c-0.14319425186278073,2.9437532994327285,-1.9324997476343242,9.506517564607975,-0.6873016357421877,10.3095703125c1.2451981118921367,0.8030527478919111,-0.11374472478115653,-3.5135606206113152,1.374603271484375,0.68731689453125c1.4883479962655315,4.200877515142565,-35.51994354093682,10.13113942193263,-34.365264892578125,3.4365234375c1.154678648358697,-6.69461598443263,9.608658491773895,-11.803747409611105,13.058807373046875,-15.1207275390625c3.4501488812729804,-3.3169801294513945,20.762350135651843,-2.2564364049014785,20.619155883789062,0.68731689453125Z" id="e15_area3" class="skin" fill="moccasin" style="stroke: none; stroke-width: 0px; fill-opacity: 1;" transform="matrix(-0.919844 0 0 1 489.474 -4.12383)"/>
  <polygon id="e6_polygon" style="stroke: none; stroke-width: 0px;" points="221.89 683.988 212.955 694.298 211.581 727.976 212.955 727.976 215.017 690.861" class="lines" fill="black" transform="matrix(1 0 0 1.48194 0 -328.904)"/>
  <polygon id="e7_polygon" style="stroke: none; stroke-width: 0px;" points="254.828 683.96 247.215 684.916 244.518 727.947 245.893 727.947 247.955 690.833" class="lines" fill="black" transform="matrix(-0.52 0 0 1.46972 403.612 -317.826)"/>
  <path d="M244.97159878627374,802.8920988640106c-37.906769016318066,10.088012717517472,-23.562211548397528,22.567512717527848,-24.742984287735453,23.368365757461902c-1.1807727393379253,0.8008530399340543,-7.131606348101087,-16.468016369641987,-8.247665405273438,7.56036376953125c-11.425637336597958,14.406107078375953,2.434719667900481,122.90636611595937,0.24250550842839408,163.57862285048213c22.065755780702403,-15.686771193004006,10.404701114728482,-10.551283001190086,14.31097911344034,-8.247673246107865c2.1270929850926734,0.928999317825401,8.691765193692532,9.93622536345788,3.3164505134977844,-3.4364884097915365c15.24384187865661,-37.42839642524268,4.916118269973907,-144.79983813510705,15.120714557642373,-182.82319072157588Z" id="e1_area3" class="skin" fill="moccasin" style="stroke: none; stroke-width: 0px; fill-opacity: 1;" transform="matrix(1.17067 0 0 1 -41.3208 -19.2445)"/>
  <polygon id="e1_polygon" style="stroke-width: 0px; stroke: none;" points="182.049 807.703 204.043 821.45 212.978 836.57 229.474 837.258 239.096 818.7 239.096 820.075 263.152 800.143 260.402 798.081 224.662 808.391 179.988 802.892" class="clothes" fill="silver" transform="matrix(0.836879 0 0 1.15584 58.2764 -131.551)"/>
  <path id="path2138" style="fill:#7a3e1a;fill-opacity:1;fill-rule:nonzero;stroke:none" d="M 268.78 633.402 L 268.717 633.296 C 268.402 632.896 267.978 632.549 267.553 632.376 L 267.501 632.336 L 267.462 632.349 C 266.874 632.136 266.317 632.296 266.069 633.122 C 265.713 633.562 265.856 634.202 265.921 634.896 L 265.97 634.896 C 265.937 634.536 266.32 633.083 267.02 633.629 C 267.282 633.829 267.449 634.083 267.582 634.376 C 267.746 634.736 267.864 635.083 267.877 635.43 C 267.822 635.683 267.765 635.936 267.702 636.149 C 267.624 636.283 267.525 636.416 267.382 636.536 C 267.222 636.683 267.058 636.802 266.889 636.909 C 266.692 637.002 266.476 637.083 266.217 637.136 C 264.301 637.483 262.648 637.083 261.08 635.936 C 259.473 634.749 257.489 633.336 255.454 632.602 L 255.249 632.536 C 255.111 632.496 254.973 632.443 254.835 632.402 C 254.59 632.229 254.322 632.083 253.999 631.99 C 253.876 631.962 253.762 631.949 253.645 631.923 C 252.502 631.469 251.189 631.362 249.825 631.523 C 248.92 631.629 247.463 631.896 246.546 632.549 C 246.356 632.643 246.181 632.749 246.023 632.869 C 245.861 632.736 245.679 632.629 245.475 632.523 C 244.562 631.883 243.101 631.616 242.199 631.509 C 240.835 631.336 239.523 631.443 238.379 631.896 C 238.262 631.923 238.15 631.936 238.028 631.962 C 237.702 632.056 237.434 632.202 237.186 632.376 C 237.048 632.416 236.913 632.469 236.775 632.509 L 236.569 632.589 C 234.536 633.309 232.548 634.736 230.944 635.909 C 229.376 637.069 227.725 637.469 225.808 637.109 C 225.548 637.069 225.332 636.99 225.135 636.883 C 224.965 636.776 224.801 636.656 224.642 636.523 C 224.499 636.402 224.4 636.269 224.322 636.136 C 224.259 635.909 224.202 635.669 224.147 635.402 C 224.16 635.069 224.28 634.709 224.439 634.362 C 224.575 634.069 224.743 633.802 225.004 633.602 C 225.704 633.069 226.087 634.509 226.051 634.883 L 226.101 634.883 C 226.165 634.19 226.308 633.549 225.954 633.109 C 225.708 632.283 225.15 632.109 224.562 632.323 L 224.525 632.323 L 224.468 632.349 C 224.043 632.523 223.619 632.869 223.306 633.283 L 223.243 633.389 C 222.598 634.216 222.278 635.309 222.596 636.349 C 223.293 638.656 225.098 639.736 227.351 640.243 C 229.853 640.802 232.33 639.776 234.454 638.562 C 238.165 636.443 240.803 633.509 245.436 634.802 L 245.483 634.802 C 245.608 634.962 245.769 635.016 245.936 635.002 C 246.147 635.069 246.374 635.029 246.541 634.829 L 246.587 634.829 C 251.22 633.536 253.858 636.469 257.569 638.589 C 259.694 639.802 262.17 640.829 264.673 640.269 C 266.924 639.763 268.73 638.683 269.429 636.376 C 269.746 635.323 269.426 634.229 268.78 633.402"/>
</svg>