<?xml version="1.0" encoding="utf-8"?>
<svg id="man" width="86" height="380" viewBox="202.715 584.407 86.5933 380.048" preserveAspectRatio="xMidYMid meet" xmlns="http://www.w3.org/2000/svg">
  <defs id="svgEditorDefs">
    <path id="svgEditorClosePathDefs" class="skin" fill="moccasin" style="stroke-width: 0px; stroke: none; fill-opacity: 1;"/>
  </defs>
  <path id="path2074" style="fill:#7a3e1a;fill-opacity:1;fill-rule:nonzero;stroke:none" d="M 240.919 641.218 C 243.502 641.005 246.005 641.285 248.599 641.112 C 250.455 641.005 252.278 640.845 253.625 642.152 C 255.567 644.632 255.635 648.098 256.567 651.072 C 256.815 651.872 257.343 652.992 258.045 653.711 C 256.547 654.152 255.049 654.565 253.419 654.752 C 248.258 655.339 243.45 655.085 238.338 654.352 C 236.826 654.019 235.327 653.645 233.857 653.298 L 233.827 653.285 C 234.179 653.058 234.494 652.725 234.75 652.258 C 235.466 650.965 235.927 649.458 236.037 647.992 L 236.062 647.779 C 236.111 647.592 236.177 647.418 236.221 647.218 C 236.487 646.072 236.674 644.939 236.997 643.965 L 237.018 643.898 C 237.57 642.245 238.515 641.418 240.919 641.218 Z M 282.739 628.965 L 282.567 628.939 C 281.439 636.992 276.922 644.365 270.226 648.965 C 269.269 649.618 268.234 650.218 267.157 650.779 C 265.445 651.565 263.619 652.192 261.802 652.658 C 261.674 652.592 261.551 652.498 261.427 652.365 C 260.378 651.272 259.422 650.205 258.542 648.965 C 257.083 646.898 256.562 644.352 255.373 642.152 C 254.755 641.005 253.547 639.858 252.198 639.725 C 249.497 639.458 246.882 639.512 244.146 639.485 C 239.854 639.445 236.659 640.152 235.677 643.418 C 234.935 645.898 234.906 648.312 233.218 650.445 C 232.161 651.779 230.471 651.965 228.794 651.779 C 226.933 651.085 225.135 650.218 223.393 649.112 C 216.531 644.739 212.209 637.272 211.297 629.232 C 211.278 629.085 211.049 629.072 211.054 629.232 C 211.125 631.098 210.99 632.685 211.367 634.552 C 211.775 636.565 212.51 638.498 213.359 640.352 C 215.051 644.045 218.103 647.085 221.305 649.498 C 223.567 651.205 225.049 652.032 228.778 653.765 C 231.565 655.058 234.221 656.019 236.835 656.952 C 239.433 657.885 242.963 659.285 246.893 659.285 C 249.354 659.285 254.917 657.298 254.95 657.285 C 261.007 655.218 264.411 653.912 268.734 651.898 C 270.109 651.258 271.557 650.405 272.663 649.432 C 279.723 643.632 282.63 636.939 282.739 628.965"/>
</svg>