<?xml version="1.0" encoding="utf-8"?>
<svg id="woman" width="86" height="380" viewBox="202.715 584.407 86.5933 380.048" preserveAspectRatio="xMidYMid meet" xmlns="http://www.w3.org/2000/svg">
  <defs id="svgEditorDefs">
    <path id="svgEditorClosePathDefs" class="lines" fill="black" style="stroke-width: 0px; stroke: none;"/>
  </defs>
  <g transform="matrix(0.079813, 0, 0, 0.088515, 205.267303, 596.922668)">
    <g id="layer1" transform="matrix(1, 0, 0, 1, 64.167046, 124.412872)">
      <g transform="matrix(1.25,0,0,1.25,-1731.0237,-220.76973)" id="g5129">
        <path d="M 1374.89 117.821 C 1375.445 117.241 1380.655 125.712 1381.211 125.132 C 1385.097 128.872 1386.859 129.517 1389.393 134.527 C 1398.839 153.847 1397.924 148.68 1410.556 164.92 C 1416.96 172.29 1423.067 180.1 1429.962 186.8 C 1451.468 208.9 1476.434 225.21 1502.326 237.83 C 1499.349 237.04 1496.018 235.71 1493.25 237.99 C 1496.742 239.92 1500.443 241.7 1503.09 245.29 C 1488.495 237.71 1474.021 229.66 1460.093 220.31 C 1447.365 211.28 1435.345 200.74 1424.129 189.02 C 1418.497 183.41 1413.581 176.81 1408.238 170.79 C 1398.471 158.48 1408.413 174.063 1397.926 159.923 C 1391.162 150.802 1388.831 149.734 1376.694 128.784 L 1374.89 117.821 Z" id="path51" style="opacity: 1; fill: rgb(9, 2, 1); stroke: rgb(9, 2, 1); stroke-width: 0.09375;"/>
        <g id="g5106" transform="matrix(1.11888, 0, 0, 1, -215.889847, -16.566944)">
          <path style="opacity:1;fill:#000000;stroke:#000000;stroke-width:0.09375" id="path24" d="M 1490.86 237.99 C 1494.3 235.71 1498.44 237.04 1502.14 237.83 C 1505.18 238.84 1508.24 239.78 1511.31 240.74 C 1557.79 256.35 1607.08 262.58 1656 261.85 C 1668.84 261.44 1681.76 261.89 1694.53 260.18 C 1697.64 259.68 1700.79 260.01 1703.9 260.52 C 1704.2 261.19 1704.79 262.52 1705.09 263.19 C 1704.3 263.81 1703.53 264.41 1702.75 264.99 C 1697.07 266.2 1691.22 266 1685.46 266.44 C 1679.631 295.365 1676.534 312.153 1666.84 336.07 C 1656.051 372.565 1590.052 380.955 1567.98 378.04 C 1549.09 372.27 1533.41 358.4 1523.45 341.57 C 1512.99 324.66 1508.26 304.94 1505.81 285.41 C 1504.69 277.08 1504.68 268.62 1502.69 260.43 C 1503.87 255.48 1503.78 250.3 1503.09 245.29 C 1499.8 241.7 1495.2 239.92 1490.86 237.99"/>
        </g>
      </g>
    </g>
  </g>
</svg>