<?xml version="1.0" encoding="utf-8"?>
<svg id="glasses" width="86" height="380" viewBox="202.715 584.407 86.5933 380.048" preserveAspectRatio="xMidYMid meet" xmlns="http://www.w3.org/2000/svg">
  <defs id="svgEditorDefs">
    <path class="lines" id="svgEditorClosePathDefs" fill="black" style="stroke-width: 0px; stroke: none;"/>
  </defs>
  <path id="path2486" style="fill: rgb(89, 63, 50); fill-opacity: 1; fill-rule: nonzero; stroke: none; stroke-width: 0;" d="M 254.733 622.725 C 251.889 622.712 249.586 620.418 249.582 617.578 C 249.586 614.725 251.889 612.432 254.733 612.418 C 257.578 612.432 259.878 614.725 259.883 617.578 C 259.878 620.418 257.578 622.712 254.733 622.725 Z M 238.839 622.725 C 235.994 622.712 233.694 620.418 233.689 617.578 C 233.694 614.725 235.994 612.432 238.839 612.418 C 241.685 612.432 243.985 614.725 243.989 617.578 C 243.985 620.418 241.685 622.712 238.839 622.725 Z M 278.119 608.258 C 272.339 608.312 264.478 614.272 260.947 617.565 C 260.938 614.138 258.159 611.352 254.733 611.352 C 251.633 611.352 249.07 613.632 248.601 616.605 C 247.967 616.325 247.315 616.165 246.659 616.165 C 246.085 616.165 245.513 616.285 244.957 616.512 C 244.451 613.592 241.907 611.365 238.839 611.365 C 235.615 611.365 232.966 613.818 232.654 616.952 C 229.233 613.712 221.171 607.512 215.273 607.458 C 212.654 607.418 210.383 608.858 209.555 612.205 L 210.586 612.472 C 211.401 609.498 213.014 608.565 215.273 608.525 C 220.954 608.458 230.158 615.752 232.698 618.485 C 233.139 621.485 235.717 623.792 238.839 623.792 C 242.251 623.792 245.017 621.045 245.05 617.632 C 245.587 617.365 246.121 617.232 246.659 617.232 C 247.269 617.232 247.893 617.405 248.526 617.738 C 248.61 621.085 251.353 623.792 254.733 623.792 C 257.574 623.792 259.963 621.885 260.705 619.272 C 263.253 616.538 272.443 609.258 278.119 609.325 C 280.378 609.365 281.989 610.298 282.807 613.272 L 283.839 613.005 C 283.009 609.658 280.738 608.218 278.119 608.258"/>
  <ellipse transform="matrix(1.000001, 0, 0, 1.000002, 140.069611, 605.790875)" style="fill-opacity: 0.7; fill: rgb(34, 255, 0); stroke-width: 0;" cx="98.643" cy="11.894" rx="5.822" ry="5.573"/>
  <ellipse transform="matrix(1.000004, 0, 0, 1.000002, 139.736128, 605.624635)" style="fill: rgb(72, 255, 0); fill-opacity: 0.7; stroke-width: 0;" cx="114.944" cy="12.06" rx="5.822" ry="5.573"/>
</svg>