<?xml version="1.0" encoding="utf-8"?>
<svg class="shirt" width="86" height="380" viewBox="202.715 584.407 86.5933 380.048" preserveAspectRatio="xMidYMax" xmlns="http://www.w3.org/2000/svg" xmlns:xlink="http://www.w3.org/1999/xlink">
  <defs id="svgEditorDefs">
    <path id="svgEditorClosePathDefs" fill="black" style="stroke-width: 0px; stroke: none;" class="clothes"/>
    <pattern id="pattern-0" x="0" y="0" width="20" height="20" patternUnits="userSpaceOnUse" viewBox="0 0 104.45150756835938 194.96556854248047">
      <rect x="-1.125" y="-1.768" width="106.752" height="204.797" style="fill: rgb(12, 0, 255);"/>
      <polygon style="fill: rgb(216, 216, 216); stroke: rgb(0, 0, 0);" points="33.368 18.328 73.639 17.042 42.647 96.141 35.836 88.264 57.945 27.331 37.81 28.296 37.218 36.334 29.42 35.852"/>
    </pattern>
    <pattern id="pattern-0-0" patternTransform="matrix(4.757366, 0, 0, 4.049008, 200.040451, 698.244019)" xlink:href="#pattern-0"/>
  </defs>
  <rect id="svgEditorBackground" x="202.71499633789062" y="584.4310302734375" width="86.59329986572266" height="115.80899810791016" style="fill: none; stroke: none;" class="clothes"/>
  <rect id="rect-1" x="-403.988" y="499.579" width="1300" height="550" style="fill: none; stroke: none;" class="clothes"/>
  <polygon style="stroke: rgb(0, 0, 0); fill: url(#pattern-0-0);" points="221.045 761.6 235.099 738.992 235.099 724.939 233.265 715.774 233.265 715.774 227.155 704.776 240.598 695.611 243.653 695.611 247.319 699.888 250.374 695.611 253.429 694.389 257.706 695 266.26 701.721 263.205 719.44 258.317 734.104 271.148 763.433 276.647 771.376 243.042 762.822 231.432 760.989"/>
</svg>