<svg class="shirt" width="86" height="380" viewBox="202.715 584.407 86.5933 380.048" preserveAspectRatio="xMidYMax" xmlns="http://www.w3.org/2000/svg">
  <defs id="svgEditorDefs">
    <path id="svgEditorClosePathDefs" fill="black" style="stroke-width: 0px; stroke: none;" class="clothes"/>
  </defs>
  <rect id="svgEditorBackground" x="202.71499633789062" y="584.4310302734375" width="86.59329986572266" height="115.80899810791016" style="fill: none; stroke: none;" class="clothes"/>
  <path d="M228.76336669921875,672.991455078125c4.324533905631284,-1.4112558776510014,11.51096896064226,0.22129187068173906,13.058807373046875,3.4365234375c2.31151087718564,2.5279263481900216,4.032802321963857,9.591366653129171,2.061920166015625,13.74615478515625c0.7783387185652941,-11.65323189642561,-6.386462290754537,-17.833338000890194,-15.1207275390625,-17.18267822265625Z" id="e39_area3" fill="black" style="stroke: none; stroke-width: 0px;" transform="matrix(0.846 0 0 0.874739 39.2094 87.7496)" class="clothes"/>
  <path d="M235.63641888550254,679.8645072644088c4.324533905631284,-1.4112558776510014,10.747296495861264,0.9085970893099784,13.058807373046875,3.4365234375c2.3115108771856403,2.5279263481900216,4.032802321963857,9.591366653129171,2.061920166015625,13.74615478515625c0.7783387185652941,-11.653231896425611,-6.386462290754537,-17.833338000890194,-15.1207275390625,-17.18267822265625Z" id="e9_area3" fill="black" style="stroke: none; stroke-width: 0px;" transform="matrix(-0.806664 0 0 0.847088 450.119 101.46)" class="clothes"/>
  <rect id="rect-1" x="-403.988" y="499.579" width="1300" height="550" style="fill: none; stroke: none;" class="clothes"/>
  <polygon id="e1_polygon" style="stroke-width: 0px; stroke: none;" points="239.76 656.485 228.076 661.983 215.017 677.104 209.519 686.726 218.454 734.15 218.454 732.089 229.451 741.711 228.076 727.277 226.701 708.72 232.2 721.092 234.949 732.776 221.89 755.457 212.955 771.952 211.581 787.76 278.249 791.884 270.002 765.079 256.943 738.274 257.63 727.277 263.129 710.782 262.441 732.089 265.191 743.085 274.126 734.838 280.311 699.098 283.748 688.101 283.06 681.228 259.692 657.86" fill="red" class="clothes"/>
</svg>