<svg xmlns="http://www.w3.org/2000/svg" xmlns:xlink="http://www.w3.org/1999/xlink" width="150px" height="150px" viewBox="0 0 150 150" preserveAspectRatio="xMidYMid meet" ><rect id="svgEditorBackground" x="0" y="0" width="1300" height="550" style="fill: none; stroke: none;" class="clothes" /><polygon stroke="black" id="e2_polygon" style="stroke-width: 1px;" points="47.9004 -0.297086 37.3407 -0.297086 39.6422 7.01346 34.9715 12.2933 33.2793 21.9053 34.9715 29.8928 38.0176 44.3785 40.8606 57.1043 48.0697 70.7778 44.9897 91.2203 41.8083 122.899 38.9652 129.669 35.3099 139.686 28.7439 149.434 39.236 149.434 58.7308 149.434 71.7273 149.434 116.132 148.893 115.286 139.67 111.732 130.447 106.791 113.355 103.947 95.1463 97.8555 66.9195 109.464 32.7189 110.26 23.1999 107.806 15.3055 102.323 8.36728 105.302 0.244437" fill="khaki" class="clothes" /></svg>