<svg class="shirt" xmlns="http://www.w3.org/2000/svg" width="86" height="380" viewBox="202.715 584.407 86.5933 380.048" preserveAspectRatio="xMidYMax" xmlns:xlink="http://www.w3.org/1999/xlink">
 <defs id="svgEditorDefs">
  <path id="svgEditorClosePathDefs" fill="black" style="stroke-width: 0px; stroke: none;" class="clothes" />
 </defs>
 <rect id="svgEditorBackground" x="202.71499633789062" y="584.4310302734375" width="86.59329986572266" height="115.80899810791016" style="fill: none; stroke: none;" class="clothes" />
 <rect id="rect-1" x="-403.988" y="499.579" width="1300" height="550" style="fill: none; stroke: none;" class="clothes" />
<polygon id="e1_polygon" style="stroke-width: 0px; stroke: none;" points="232.887 657.172 258.318 647.55 258.318 658.547 280.999 679.853 281.686 686.039 274.813 720.404 277.562 755.457 285.122 763.705 285.122 762.33 269.314 766.454 261.754 731.401 262.441 718.342 262.441 719.03 257.63 733.463 260.379 739.649 274.813 767.828 283.061 776.076 287.872 787.76 289.934 959.587 213.643 943.778 217.079 765.766 233.575 737.587 235.636 726.59 232.2 713.531 227.389 707.346 231.513 723.841 232.2 730.714 224.64 766.454 219.828 765.079 208.144 767.828 208.832 767.828 218.454 748.584 218.454 747.897 219.141 730.027 209.519 689.476 215.705 679.853" fill="red" class="clothes" /></svg>