<?xml version="1.0" encoding="utf-8"?>
<svg class="glasses" width="86" height="380" viewBox="202.715 584.407 86.5933 380.048" preserveAspectRatio="xMidYMid meet" xmlns="http://www.w3.org/2000/svg">
  <defs id="svgEditorDefs">
    <path id="svgEditorClosePathDefs" class="lines" fill="black" style="stroke-width: 0px; stroke: none;"/>
  </defs>
  <path id="path2324" style="fill: rgb(89, 63, 50); fill-opacity: 1; fill-rule: nonzero; stroke: none; stroke-width: 0;" d="M 269.093 621.136 C 267.644 627.162 262.034 630.936 255.885 629.829 C 249.777 628.736 246.125 622.509 247.185 616.629 C 248.286 610.522 254.509 606.869 260.394 607.922 C 266.502 609.029 270.154 615.256 269.093 621.136 Z M 242.83 620.802 C 241.378 626.829 235.768 630.602 229.621 629.496 C 223.512 628.402 219.86 622.176 220.92 616.296 C 222.021 610.176 228.245 606.536 234.128 607.589 C 240.237 608.682 243.888 614.909 242.83 620.802 Z M 280.12 605.749 C 279.456 605.576 278.997 605.576 278.165 605.416 C 275.212 608.122 272.466 610.869 269.604 613.669 C 268.021 610.176 264.898 607.469 260.792 606.482 C 253.945 604.829 247.324 609.642 245.741 616.229 L 245.677 616.536 C 245.27 616.376 244.825 616.336 244.368 616.509 L 244.31 616.536 C 243.477 611.549 239.822 607.416 234.525 606.149 C 228.909 604.789 223.44 607.789 220.786 612.549 C 217.402 609.922 214.02 607.282 210.636 604.656 C 210.238 604.816 209.836 604.962 209.433 605.096 L 209.617 605.296 C 213.148 608.029 216.584 611.162 220.112 613.909 L 220.125 613.922 C 219.86 614.549 219.64 615.216 219.477 615.896 C 217.832 622.736 222.641 629.362 229.224 630.936 C 236.068 632.589 242.69 627.776 244.272 621.189 C 244.454 620.176 244.52 619.176 244.481 618.189 C 244.6 618.069 244.648 618.042 244.785 617.962 C 245.018 617.816 245.242 617.949 245.445 618.162 C 245.024 624.282 249.529 629.842 255.486 631.269 C 262.333 632.922 268.956 628.109 270.538 621.522 C 270.936 619.322 270.788 617.162 270.18 615.189 C 273.48 611.989 276.692 608.829 280.12 605.749"/>
</svg>