<?xml version="1.0" encoding="utf-8"?>
<svg id="woman" width="86" height="380" viewBox="202.715 584.407 86.5933 380.048" preserveAspectRatio="xMidYMid meet" xmlns="http://www.w3.org/2000/svg">
  <defs id="svgEditorDefs">
    <path id="svgEditorClosePathDefs" class="lines" fill="black" style="stroke-width: 0px; stroke: none;"/>
  </defs>
  <path class="lines" id="path2462" style="fill:#711725;fill-opacity:1;fill-rule:nonzero;stroke:none" d="M 276.639 615.473 C 276.219 619.98 270.277 623.739 262.881 623.713 C 255.481 623.699 249.561 619.886 249.173 615.393 C 249.151 615.18 249.129 615.006 249.129 614.833 C 249.129 614.54 249.157 614.233 249.202 613.953 C 249.866 609.606 255.719 606.019 262.935 606.046 C 270.151 606.06 275.982 609.686 276.618 614.033 C 276.662 614.326 276.686 614.62 276.683 614.926 C 276.683 615.086 276.659 615.273 276.639 615.473 Z M 228.614 623.593 C 221.214 623.579 215.298 619.78 214.909 615.273 C 214.889 615.073 214.863 614.886 214.863 614.726 C 214.866 614.42 214.891 614.126 214.938 613.833 C 215.601 609.486 221.454 605.9 228.671 605.939 C 235.885 605.953 241.717 609.579 242.353 613.926 C 242.397 614.22 242.421 614.513 242.418 614.806 C 242.418 614.98 242.394 615.166 242.373 615.366 C 241.954 619.86 236.013 623.633 228.614 623.593 Z M 277.315 613.926 C 277.254 613.553 277.149 613.18 277.027 612.819 C 276.858 607.846 270.631 603.833 262.943 603.82 C 255.259 603.793 249.006 607.753 248.803 612.726 C 248.675 613.086 248.569 613.459 248.506 613.833 L 248.482 614.1 L 243.069 614.073 L 243.05 613.819 C 242.987 613.433 242.886 613.073 242.761 612.699 C 242.59 607.74 236.363 603.726 228.679 603.699 C 220.993 603.673 214.741 607.646 214.537 612.606 C 214.413 612.98 214.305 613.34 214.241 613.726 C 214.189 614.046 214.159 614.379 214.159 614.726 C 214.159 614.953 214.189 615.153 214.203 615.34 C 214.269 615.98 214.425 616.593 214.658 617.18 C 215.602 621.646 221.474 625.099 228.61 625.126 C 235.742 625.153 241.637 621.726 242.61 617.273 C 242.694 617.059 242.757 616.846 242.818 616.633 L 248.717 616.659 C 248.782 616.873 248.842 617.086 248.926 617.299 C 249.875 621.766 255.743 625.219 262.873 625.246 C 270.006 625.259 275.899 621.846 276.875 617.379 C 277.113 616.793 277.271 616.18 277.339 615.553 C 277.361 615.366 277.389 615.153 277.389 614.926 C 277.391 614.593 277.366 614.259 277.315 613.926"/>
</svg>