<?xml version="1.0" encoding="utf-8"?>
<svg id="woman" width="86" height="380" viewBox="202.715 584.407 86.5933 380.048" preserveAspectRatio="xMidYMid meet" xmlns="http://www.w3.org/2000/svg">
  <defs id="svgEditorDefs">
    <path class="lines" id="svgEditorClosePathDefs" fill="black" style="stroke-width: 0px; stroke: none;"/>
  </defs>
  <path class="lines" id="path2248" style="fill: rgb(113, 23, 37); fill-opacity: 1; fill-rule: nonzero; stroke: none; stroke-width: 0;" d="M 266.997 623.121 L 252.617 623.121 L 250.609 609.494 L 269.006 609.494 Z M 240.618 623.121 L 226.24 623.121 L 224.231 609.494 L 242.627 609.494 Z M 282.286 613.254 L 282.003 611.015 L 270.347 607.081 L 270.347 607.081 L 270.335 607.081 L 270.325 607.081 L 270.323 607.081 L 269.006 607.081 L 260.974 607.081 L 258.637 607.081 L 250.607 607.081 L 249.266 607.081 L 249.452 608.455 L 249.472 608.601 L 243.766 608.601 L 243.784 608.455 L 243.97 607.081 L 242.629 607.081 L 234.598 607.081 L 232.261 607.081 L 224.231 607.081 L 222.937 607.081 L 222.934 607.081 L 222.925 607.081 L 222.889 607.081 L 222.89 607.095 L 211.28 610.881 L 211.08 611.948 L 210.974 613.254 L 223.317 610.254 L 225.084 623.281 L 225.223 624.321 L 226.239 624.321 L 232.261 624.321 L 234.598 624.321 L 240.618 624.321 L 241.637 624.321 L 241.777 623.281 L 243.426 611.108 L 249.811 611.108 L 251.462 623.281 L 251.6 624.321 L 252.616 624.321 L 258.637 624.321 L 260.974 624.321 L 266.997 624.321 L 268.013 624.321 L 268.153 623.281 L 269.918 610.241 L 282.286 613.254"/>
  <path class="irises" d="M 223.764 608.275 C 223.865 610.25 224.8 613.2 224.8 616.113 C 224.8 618.395 225.668 619.943 225.668 622.248 C 225.668 624.552 225.947 623.592 229.274 623.854 C 231.768 623.854 233.095 623.792 235.266 623.792 C 237.846 623.792 238.645 623.564 241.061 623.564 C 241.061 620.785 241.416 620.702 241.726 618.499 C 242.059 616.131 242.3 613.663 242.698 611.168 C 242.698 608.218 242.956 609.758 242.956 608.499 C 239.751 608.499 235.483 608.332 232.88 608.332 C 230.762 608.332 229.912 608.441 226.871 608.441 C 225.165 608.441 224.239 608.384 223.791 608.384 L 223.764 608.275 Z" style="stroke: black; fill: rgb(196, 255, 1); fill-opacity: 0.7; stroke-width: 0;"/>
  <path class="irises" d="M 252.834 621.109 C 253.068 621.034 253.549 618.116 253.97 615.125 C 254.303 612.759 254.105 613.947 254.723 610.323 C 255.298 606.949 255.847 607.861 258.176 607.708 C 261.032 607.637 262.369 607.63 264.42 607.63 C 266.857 607.63 267.979 607.553 270.261 607.553 C 270.261 610.435 271.259 612.242 271.259 614.548 C 271.259 616.659 272.455 621.565 272.796 623.062 C 271.133 623.125 270.692 623.078 268.696 623.195 C 265.669 623.195 264.042 623.195 261.583 623.195 C 259.582 623.195 259.222 623.105 256.905 623.105 C 254.813 623.105 254.715 623.35 252.628 623.183 L 252.834 621.109 Z" style="stroke: black; fill: rgb(196, 255, 1); fill-opacity: 0.7; stroke-width: 0;" transform="matrix(-1, 0, 0, -1, 522.595976, 1231.402098)"/>
</svg>