<svg width="86" height="380" viewBox="202.715 584.407 86.5933 380.048" preserveAspectRatio="xMidYMid meet" xmlns="http://www.w3.org/2000/svg">
 <defs id="svgEditorDefs">
  <path id="svgEditorClosePathDefs" fill="moccasin" style="stroke-width: 0px; stroke: none; fill-opacity: 1;" class="clothes" />
 </defs>
 <rect id="svgEditorBackground" x="202.71499633789062" y="584.4310302734375" width="86.59329986572266" height="115.80899810791016" style="fill: none; stroke: none;" class="clothes" />
 <path d="M236.32373046875,947.2261962890625c-0.14319425186278067,2.9437532994327285,-1.9324997476343242,9.506517564607975,-0.6873016357421875,10.3095703125c1.2451981118921367,0.8030527478919112,-0.11374472478115649,-3.5135606206113152,1.374603271484375,0.68731689453125c1.4883479962655315,4.200877515142565,-35.51994354093682,10.13113942193263,-34.365264892578125,3.4365234375c1.154678648358697,-6.69461598443263,9.608658491773895,-11.803747409611105,13.058807373046875,-15.1207275390625c3.4501488812729804,-3.3169801294513945,20.762350135651843,-2.2564364049014785,20.619155883789062,0.68731689453125Z" id="e4_area3" fill="moccasin" style="stroke: none; stroke-width: 0px; fill-opacity: 1;" class="clothes" />
 <path d="M 283.457 960.568 C 283.325 957.625 281.679 951.062 282.825 950.259 C 283.97 949.456 282.72 953.772 284.089 949.571 C 285.458 945.371 251.416 939.44 252.479 946.135 C 253.541 952.829 261.317 957.939 264.491 961.256 C 267.664 964.573 283.589 963.512 283.457 960.568 Z" id="e15_area3" fill="moccasin" style="stroke: none; stroke-width: 0px; fill-opacity: 1;" transform="matrix(-1, 0, 0, -1, 536.583887, 1906.420138)" class="clothes" />
 <polygon id="e6_polygon" style="stroke: none; stroke-width: 0px;" points="221.89 684.725 212.955 700.004 211.581 749.913 212.955 749.913 215.017 694.911" fill="black" class="clothes" />
 <polygon id="e7_polygon" style="stroke: none; stroke-width: 0px;" points="276.463 752.052 272.504 750.647 271.101 687.404 271.816 687.404 272.889 741.951" fill="black" transform="matrix(-1, 0, 0, -1, 547.564033, 1439.45605)" class="clothes" />
 <g transform="matrix(1, 0, 0, 1.617883, 175.693512, 552.261353)">
  <polygon stroke="black" id="polygon-1" style="stroke-opacity: 0; stroke-width: 0; fill: rgb(255, 0, 0);" points="36.041 73.017 34.586 140.473 35.153 153.722 99.636 153.321 105.433 139.957 104.866 110.309 99.586 71.726 87.994 67.893 71.562 146.591 50.723 67.14" class="clothes" />
  <circle id="e7_circle" cx="74.993" cy="82.418" stroke="black" style="stroke-opacity: 0; stroke-width: 0; fill: rgb(255, 0, 0);" r="2.511" transform="matrix(1, 0, 0, 1.000003, 22.0205, 27.86345)" class="clothes" />
  <circle id="e8_circle" cx="71.875" cy="91.589" stroke="black" style="stroke-opacity: 0; stroke-width: 0; fill: rgb(255, 0, 0);" r="2.577" transform="matrix(0.999873, -0.015871, 0.015871, 0.999876, 25.589714, 36.223337)" class="clothes" />
  <circle id="e1_circle" cx="17.752" cy="70.332" stroke="black" style="stroke-opacity: 0; stroke-width: 0; fill: rgb(255, 0, 0);" r="2.577" transform="matrix(0.999874, -0.015871, 0.015871, 0.999876, 25.58961, 36.223383)" class="clothes" />
  <circle id="e3_circle" cx="16.022" cy="90.166" stroke="black" style="stroke-opacity: 0; stroke-width: 0; fill: rgb(255, 0, 0);" r="2.577" transform="matrix(0.999873, -0.015871, 0.015871, 0.999876, 25.589627, 36.22335)" class="clothes" />
  <polygon stroke="black" id="e10_polygon" style="stroke-opacity: 0; stroke-width: 0; fill: rgb(255, 0, 0);" points="45.704 92.003 41.914 92.815 40.289 96.605 45.163 99.042 48.412 94.71" class="clothes" />
  <polygon stroke="black" id="e2_polygon" style="stroke-opacity: 0; stroke-width: 0; fill: rgb(255, 0, 0);" points="45.433 111.768 41.643 112.58 40.018 116.371 44.892 118.808 48.141 114.476" class="clothes" />
  <polygon stroke="black" id="e13_polygon" style="stroke-opacity: 0; stroke-width: 0; fill: rgb(255, 0, 0);" points="95.825 96.335 93.118 102.291 98.803 102.021" class="clothes" />
  <polygon stroke="black" id="e14_polygon" style="stroke-opacity: 0; stroke-width: 0; fill: rgb(255, 0, 0);" points="94.742 81.714 92.305 89.295 99.616 88.483" class="clothes" />
  <polygon stroke="black" id="e15_polygon" style="stroke-opacity: 0; stroke-width: 0; fill: rgb(255, 0, 0);" points="43.297 80.089 40.861 88.483 47.359 88.212" class="clothes" />
 </g>
</svg>