<svg width="86" height="380" viewBox="202.715 584.407 86.5933 380.048" preserveAspectRatio="xMidYMid meet" xmlns="http://www.w3.org/2000/svg">
 <defs id="svgEditorDefs">
  <path id="svgEditorClosePathDefs" fill="moccasin" style="stroke-width: 0px; stroke: none; fill-opacity: 1;" class="clothes" />
 </defs>
 <rect id="svgEditorBackground" x="202.71499633789062" y="584.4310302734375" width="86.59329986572266" height="115.80899810791016" style="fill: none; stroke: none;" class="clothes" />
 <path d="M236.32373046875,947.2261962890625c-0.14319425186278067,2.9437532994327285,-1.9324997476343242,9.506517564607975,-0.6873016357421875,10.3095703125c1.2451981118921367,0.8030527478919112,-0.11374472478115649,-3.5135606206113152,1.374603271484375,0.68731689453125c1.4883479962655315,4.200877515142565,-35.51994354093682,10.13113942193263,-34.365264892578125,3.4365234375c1.154678648358697,-6.69461598443263,9.608658491773895,-11.803747409611105,13.058807373046875,-15.1207275390625c3.4501488812729804,-3.3169801294513945,20.762350135651843,-2.2564364049014785,20.619155883789062,0.68731689453125Z" id="e4_area3" fill="moccasin" style="stroke: none; stroke-width: 0px; fill-opacity: 1;" class="clothes" />
 <path d="M 283.457 960.568 C 283.325 957.625 281.679 951.062 282.825 950.259 C 283.97 949.456 282.72 953.772 284.089 949.571 C 285.458 945.371 251.416 939.44 252.479 946.135 C 253.541 952.829 261.317 957.939 264.491 961.256 C 267.664 964.573 283.589 963.512 283.457 960.568 Z" id="e15_area3" fill="moccasin" style="stroke: none; stroke-width: 0px; fill-opacity: 1;" transform="matrix(-1, 0, 0, -1, 536.583887, 1906.420138)" class="clothes" />
 <polygon id="e6_polygon" style="stroke: none; stroke-width: 0px;" points="221.89 684.725 212.955 700.004 211.581 749.913 212.955 749.913 215.017 694.911" fill="black" class="clothes" />
 <polygon id="e7_polygon" style="stroke: none; stroke-width: 0px;" points="276.463 752.052 272.504 750.647 271.101 687.404 271.816 687.404 272.889 741.951" fill="black" transform="matrix(-1, 0, 0, -1, 547.564033, 1439.45605)" class="clothes" />
 <g transform="matrix(0.99938, 0.035204, -0.061664, 1.750514, 180.211166, 531.28833)">
  <polygon stroke="black" id="polygon-1" points="38.156 78.428 39.477 149.163 105.131 148.66 105.443 143.443 100.486 76.295 79.304 70.276 70.75 115.183 59.987 70.846" style="stroke-width: 0; stroke-opacity: 0; fill: rgb(255, 0, 0);" class="clothes" />
  <rect x="68.992" y="107.212" stroke="black" id="e5_rectangle" width="3.085" height="40.575" style="stroke-width: 0; stroke-opacity: 0; fill: rgb(255, 0, 0);" class="clothes" />
  <polygon stroke="black" id="polygon-2" points="59.242 71.425 47.599 92.815 62.762 99.313 62.762 107.707 68.719 106.894 73.322 107.165 77.925 108.248 77.383 97.688 90.109 92.273 89.838 92.544 79.279 71.154 71.426 106.353 69.531 106.353" style="stroke-width: 0; stroke-opacity: 0; fill: rgb(255, 0, 0);" class="clothes" />
  <circle id="e7_circle" cx="57.665" cy="84.313" stroke="black" r="2.511" transform="matrix(1.000003, 0, 0, 1, 22.020321, 27.863701)" style="stroke-width: 0; stroke-opacity: 0; fill: rgb(255, 0, 0);" class="clothes" />
  <circle id="e8_circle" cx="52.219" cy="84.507" stroke="black" r="2.577" transform="matrix(0.999873, -0.015869, 0.015872, 0.999876, 25.589551, 36.223096)" style="stroke-width: 0; stroke-opacity: 0; fill: rgb(255, 0, 0);" class="clothes" />
  <circle id="e1_circle" cx="36.875" cy="93.924" stroke="black" r="2.577" transform="matrix(0.999874, -0.015868, 0.015871, 0.999876, 25.589611, 36.223228)" style="stroke-width: 0; stroke-opacity: 0; fill: rgb(255, 0, 0);" class="clothes" />
  <circle id="e2_circle" cx="37.215" cy="104.673" stroke="black" r="2.577" transform="matrix(0.999874, -0.015868, 0.015871, 0.999873, 25.589619, 36.223515)" style="stroke-width: 0; stroke-opacity: 0; fill: rgb(255, 0, 0);" class="clothes" />
 </g>
</svg>