<?xml version="1.0"?>
<svg xmlns:rdf="http://www.w3.org/1999/02/22-rdf-syntax-ns#" xmlns="http://www.w3.org/2000/svg" xmlns:cc="http://creativecommons.org/ns#" xmlns:xlink="http://www.w3.org/1999/xlink" xmlns:dc="http://purl.org/dc/elements/1.1/" xmlns:svg="http://www.w3.org/2000/svg" id="svg2" viewBox="0 0 700 700" version="1.1">
  <defs id="defs4">
    <filter id="filter10954" color-interpolation-filters="sRGB">
      <feGaussianBlur id="feGaussianBlur10956" stdDeviation="5" result="result1"/>
      <feComposite id="feComposite10958" operator="arithmetic" k2="2" in2="result1" in="result1"/>
    </filter>
    <radialGradient id="radialGradient10970" gradientUnits="userSpaceOnUse" cy="340.35" cx="317.59" gradientTransform="matrix(.0000015507 -1.3862 1.3267 0 -101.61 1142.5)" r="228.46">
      <stop id="stop10328" stop-color="#f00" offset="0"/>
      <stop id="stop10330" stop-color="#570000" offset="1"/>
    </radialGradient>
    <radialGradient id="radialGradient10972" gradientUnits="userSpaceOnUse" cy="332.23" cx="321.42" gradientTransform="matrix(0 -1.4856 1.3822 .0000032442 -109.24 1179.9)" r="220.11">
      <stop id="stop10318" stop-color="#ffbf00" offset="0"/>
      <stop id="stop10324" stop-color="#f66900" offset=".8"/>
      <stop id="stop10320" stop-color="#b20000" offset="1"/>
    </radialGradient>
    <radialGradient id="radialGradient10974" gradientUnits="userSpaceOnUse" cy="330.19" cx="320.4" gradientTransform="matrix(0 -1.4052 1.4017 0 -114.31 1149.7)" r="151.33">
      <stop id="stop10348" stop-color="#ff9696" offset="0"/>
      <stop id="stop10354" stop-color="#ff6060" offset=".51"/>
      <stop id="stop10356" stop-color="#870000" offset=".85"/>
      <stop id="stop10350" stop-color="#600000" offset="1"/>
    </radialGradient>
    <radialGradient id="radialGradient10976" gradientUnits="userSpaceOnUse" cy="333.13" cx="320.78" gradientTransform="matrix(0 -1.4694 1.4017 -5.9364e-7 -117.92 1175)" r="71.05">
      <stop id="stop10361" stop-color="#ff8a52" offset="0"/>
      <stop id="stop10367" stop-color="#ff4529" offset=".9"/>
      <stop id="stop10363" stop-color="#f00" offset="1"/>
    </radialGradient>
    <radialGradient id="radialGradient10978" gradientUnits="userSpaceOnUse" cy="353.59" cx="419.06" gradientTransform="matrix(0 -1.3972 1.4016 0 -149.58 1287.3)" r="188.77">
      <stop id="stop10528" stop-color="#ff8a52" offset="0"/>
      <stop id="stop10530" stop-color="#ff4529" offset=".8"/>
      <stop id="stop10532" stop-color="#f00" offset="1"/>
    </radialGradient>
  </defs>
  <g id="layer1" transform="translate(0 -352.36)">
    <g id="g10960" transform="matrix(.87559 0 0 .87559 43.542 74.549)">
      <path id="path10311-3" opacity=".22791" filter="url(#filter10954)" transform="translate(-.000002)" d="m322.22 397.51c-14.294 0-26.407 8.3351-31.688 20.375-9.4859-9.1092-23.946-12.159-37.156-6.6875-10.183 4.2179-17.92 13.021-20.687 22.562-8.702-4.7838-20.416-5.5283-30.594-1.3125-13.2 5.4676-21.254 17.831-21.531 30.969-4.0272-1.567-8.3166-2.3274-12.594-2.2812-8.7331 0.0946-17.499 3.5302-24.281 10.312-7.7899 7.7899-11.59 18.88-10.5 28.75-9.874-1.0948-20.956 2.7376-28.75 10.531-10.104 10.104-12.804 24.597-8.0313 36.844-4.3254 0.0915-8.5617 1.0372-12.5 2.7188-8.0322 3.4295-14.798 9.951-18.469 18.812-4.2159 10.178-3.4712 21.861 1.3124 30.562-9.5411 2.767-18.313 10.536-22.531 20.719-5.4676 13.2-2.4372 27.636 6.6562 37.125-12.03 5.2851-20.375 17.464-20.375 31.75 0.0001 11.016 5.1566 21.572 12.906 27.781-7.7561 6.2076-12.906 16.728-12.906 27.75 0.0001 14.286 8.3455 26.434 20.375 31.719-9.1007 9.4861-12.126 23.92-6.6562 37.125 4.2158 10.178 12.996 17.948 22.531 20.719-4.7899 8.7032-5.5304 20.38-1.3124 30.562 5.4702 13.207 17.824 21.261 30.969 21.531-4.7728 12.247-2.0729 26.771 8.0313 36.875 7.7896 7.7898 18.88 11.59 28.75 10.5-1.0951 9.8738 2.7064 20.956 10.5 28.75 10.104 10.104 24.628 12.804 36.875 8.0312 0.279 13.14 8.3312 25.501 21.531 30.969 10.178 4.2159 21.86 3.5026 30.562-1.2813 2.7669 9.5412 10.536 18.313 20.719 22.531 13.205 5.4695 27.668 2.4447 37.156-6.6563 5.2851 12.03 17.401 20.344 31.688 20.344 11.016 0 21.572-5.1566 27.781-12.906 6.2077 7.7562 16.728 12.906 27.75 12.906 14.286 0 26.465-8.3142 31.75-20.344 9.4862 9.0916 23.926 12.124 37.125 6.6563 10.178-4.2158 17.948-12.995 20.719-22.531 8.7032 4.7902 20.38 5.4992 30.562 1.2813 13.2-5.4674 21.253-17.831 21.531-30.969 12.248 4.7746 26.739 2.0737 36.844-8.0312 7.7936-7.7936 11.626-18.876 10.531-28.75 9.8701 1.0895 20.96-2.7102 28.75-10.5 10.104-10.104 12.804-24.628 8.0312-36.875 13.14-0.2792 25.501-8.3312 30.969-21.531 4.2179-10.183 3.5089-21.859-1.2812-30.562 9.5359-2.7706 18.316-10.541 22.531-20.719 5.4675-13.2 2.4371-27.636-6.6562-37.125 12.029-5.2851 20.344-17.433 20.344-31.719 0-11.022-5.1501-21.542-12.906-27.75 7.7497-6.2089 12.906-16.765 12.906-27.781 0-14.294-8.3352-26.469-20.375-31.75 9.1007-9.4861 12.157-23.92 6.6875-37.125-4.2177-10.183-12.99-17.952-22.531-20.719 4.7838-8.7019 5.497-20.385 1.2812-30.562-5.4677-13.2-17.831-21.254-30.969-21.531 4.7726-12.247 2.0728-26.74-8.0312-36.844-7.7937-7.7936-18.876-11.626-28.75-10.531 1.0894-9.8702-2.7415-20.96-10.531-28.75-6.7823-6.7823-15.517-10.218-24.25-10.312-4.2783-0.0461-8.5656 0.71326-12.594 2.2812-0.27947-13.139-8.3316-25.501-21.531-30.969-10.183-4.2179-21.859-3.5089-30.562 1.2812-2.7706-9.5359-10.541-18.315-20.719-22.531-8.8615-3.6706-18.27-3.5046-26.375-0.25-3.9678 1.5934-7.6299 3.919-10.75 6.9062-5.2851-12.03-17.464-20.344-31.75-20.344-11.022 0-21.542 5.1501-27.75 12.906-6.2089-7.7497-16.765-12.906-27.781-12.906z"/>
      <g id="g10804" transform="translate(0 -2.8769)">
        <path id="path10311" d="m322.24 382.86c11.016 0 21.562 5.1607 27.771 12.91 6.2077-7.7561 16.728-12.91 27.75-12.91 14.286 0 26.471 8.3218 31.756 20.351 3.1201-2.9872 6.759-5.3176 10.727-6.911 8.1046-3.2546 17.532-3.4374 26.393 0.2332 10.178 4.2158 17.941 12.999 20.712 22.535 8.7032-4.7902 20.386-5.4898 30.569-1.272 13.2 5.4676 21.238 17.833 21.517 30.972 4.0281-1.568 8.3141-2.3356 12.592-2.2895 8.733 0.0946 17.491 3.5418 24.273 10.324 7.7898 7.7899 11.604 18.876 10.515 28.746 9.8739-1.0949 20.952 2.7212 28.746 10.515 10.104 10.104 12.807 24.597 8.0345 36.844 13.138 0.27773 25.504 8.3384 30.972 21.538 4.2158 10.178 3.4906 21.867-1.2932 30.569 9.5415 2.767 18.317 10.529 22.535 20.712 5.4696 13.205 2.4229 27.634-6.6778 37.12 12.04 5.2805 20.373 17.463 20.373 31.756-0.00014 11.016-5.1607 21.562-12.91 27.771 7.7562 6.2076 12.91 16.728 12.91 27.75 0 14.286-8.3218 26.45-20.351 31.735 9.0934 9.4886 12.145 23.92 6.6776 37.12-4.2156 10.178-12.999 17.941-22.535 20.712 4.7902 8.7033 5.4898 20.386 1.2719 30.569-5.4675 13.2-17.832 21.259-30.972 21.538 4.7728 12.247 2.0696 26.761-8.0345 36.866-7.7898 7.7898-18.876 11.604-28.746 10.515 1.0949 9.8739-2.7213 20.953-10.515 28.746-10.105 10.105-24.618 12.788-36.866 8.0133-0.27807 13.137-8.3173 25.505-21.517 30.972-10.183 4.2179-21.866 3.5182-30.569-1.2719-2.7706 9.5359-10.534 18.319-20.712 22.535-13.199 5.4672-27.634 2.4138-37.12-6.6778-5.2851 12.03-17.47 20.372-31.756 20.372-11.022-0.0001-21.542-5.1542-27.75-12.91-6.2089 7.7497-16.755 12.91-27.771 12.91-14.286 0-26.429-8.3429-31.714-20.372-9.4884 9.101-23.936 12.147-37.141 6.6778-10.183-4.2179-17.966-12.994-20.733-22.535-8.7019 4.7838-20.37 5.4878-30.548 1.2719-13.2-5.4675-21.259-17.832-21.538-30.972-12.247 4.7728-26.761 2.0907-36.865-8.0133-7.7936-7.7936-11.61-18.872-10.515-28.746-9.8702 1.0895-20.956-2.725-28.746-10.515-10.104-10.104-12.786-24.618-8.0134-36.866-13.145-0.2702-25.502-8.3318-30.972-21.538-4.2179-10.183-3.4969-21.866 1.2931-30.569-9.5357-2.7706-18.319-10.534-22.535-20.712-5.4695-13.205-2.4441-27.634 6.6566-37.12-12.03-5.2851-20.372-17.449-20.372-31.735-0.00007-11.022 5.1542-21.542 12.91-27.75-7.7496-6.2089-12.91-16.755-12.91-27.771-0.00007-14.286 8.3429-26.471 20.372-31.756-9.0935-9.4886-12.124-23.92-6.6566-37.12 4.2178-10.183 12.994-17.945 22.535-20.712-4.7837-8.7019-5.509-20.391-1.2931-30.569 3.6705-8.8615 10.432-15.395 18.465-18.825 3.9384-1.6816 8.1821-2.622 12.507-2.7135-4.7728-12.247-2.0908-26.74 8.0134-36.844 7.7935-7.7936 18.872-11.61 28.746-10.515-1.0895-9.8702 2.725-20.956 10.515-28.746 6.7822-6.7823 15.54-10.229 24.273-10.324 4.2772-0.0462 8.5652 0.72248 12.592 2.2895 0.27772-13.138 8.3383-25.504 21.538-30.972 10.178-4.2158 21.889-3.4694 30.59 1.3144 2.767-9.5413 10.508-18.359 20.69-22.577 13.21-5.4717 27.655-2.4103 37.141 6.699 5.2806-12.04 17.42-20.372 31.714-20.372z" fill="url(#radialGradient10970)"/>
        <path id="rect10534" d="m184.52 452.35-3.2166 15.81 15.81 3.2166 3.2517-15.833-15.845-3.1934zm-83.067 82.343 3.0649 15.843 15.819-3.1-3.0298-15.866-15.855 3.1232zm191.32-126.63-9.0115 13.386 13.327 8.9996 9.1049-13.397-13.421-8.9882zm-76.421 92.383-3.2166 15.81 15.81 3.2166 3.2517-15.833-15.845-3.1934zm-67.112 66.482 3.065 15.843 15.843-3.065-3.0298-15.866-15.878 3.0877zm154.55-102.25-9.0465 13.409 13.386 9.0114 9.0466-13.409-13.386-9.0115zm-247.63 177.94 8.8991 13.445 13.503-8.8874-8.9223-13.48-13.48 8.9223zm340.14-225.12l8.8991 13.445 13.503-8.8874-8.9574-13.457-13.445 8.8991zm-148.11 131.05-3.1934 15.845 15.787 3.1815 3.275-15.798-15.868-3.2285zm-135.49 105.58l8.8991 13.445 13.445-8.8991-8.8991-13.445-13.445 8.8991zm272.1-180.1 8.8991 13.445 13.503-8.8872-8.9223-13.48-13.48 8.9223zm-187.74 125.17 3.1232 15.854 15.819-3.1-3.0298-15.866-15.913 3.1114zm117.76-77.896-9.0466 13.409 13.398 8.9531 9.0579-13.315-13.409-9.0466zm-145.55 144.3 8.9223 13.48 13.445-8.8991-8.9223-13.48-13.445 8.8991zm204.03-135.04 8.934 13.422 13.468-8.8641-8.9223-13.48-13.48 8.9223zm-93.276 66.079-3.1934 15.845 15.81 3.2166 3.2517-15.833-15.868-3.2285zm-215.33 149.54-9.0466 13.409 13.386 9.0115 9.0698-13.374-13.409-9.0466zm437.12-289.33 3.065 15.843 15.843-3.0649-3.0649-15.843-15.843 3.065zm-256.91 174.59 3.0877 15.878 15.819-3.1-3.0298-15.866-15.878 3.0878zm80.881-53.534-8.9882 13.421 13.351 9.0347 9.0698-13.374-13.432-9.0817zm-204.49 157.31-9.0115 13.386 13.386 9.0115 9.0114-13.386-13.386-9.0114zm348.27-230.52 3.1 15.819 15.819-3.1-3.1-15.819-15.819 3.1zm-94.316 73.432-13.457 8.9573 8.8991 13.445 13.503-8.8873-8.9455-13.515zm-149.49 98.994 8.8991 13.445 13.48-8.9224-8.8991-13.445-13.48 8.9223zm-47.817 47.047-9.0114 13.386 13.409 9.0466 9.0115-13.386-13.409-9.0466zm259.39-171.69 3.0649 15.843 15.843-3.065-3.065-15.843-15.843 3.0649zm-125.48 92.243-3.2166 15.81 15.833 3.2518 3.2284-15.868-15.845-3.1934zm-19.165 18.945 3.0877 15.878 15.878-3.0878-3.0878-15.878-15.878 3.0878zm44.115-29.148-9.0115 13.386 13.386 9.0114 9.0114-13.386-13.386-9.0115zm-102.21 78.66-9.0115 13.386 13.351 9.0347 9.0465-13.409-13.386-9.0114zm170.47-112.83 3.0649 15.843 15.819-3.1-3.0298-15.866-15.854 3.1232zm-54.751 43.206 8.9223 13.48 13.48-8.9223-8.9574-13.457-13.445 8.8991zm-68.01 45.065 8.8991 13.445 13.445-8.8991-8.8992-13.445-13.445 8.8991zm90.506-40.519 3.0878 15.878 15.855-3.1232-3.1-15.819-15.843 3.0649zm-81.572 54.092-9.0347 13.351 13.351 9.0347 9.0115-13.386-13.327-8.9996zm52.456-9.3769 0.0236 0.0348-0.48714 2.5437-2.6639 0.55177 0.51678 2.6871-2.2467 1.4871 1.4638 2.2115-1.4552 2.2253 2.2134 1.5135-0.52221 2.567 2.6253 0.53416 0.50519 2.5937 2.5354-0.51691 1.5103 2.2818 2.2467-1.4871 2.1902 1.4785 0.0236 0.0348 1.5254-2.2717 2.567 0.52224 0.0586 0.0112 0.53415-2.6253 2.5937-0.5052 0.0347-0.0234-0.50519-2.5937 2.2116-1.4638-1.4638-2.2116 1.4902-2.2485-2.2134-1.5135 0.53412-2.6253-2.6021-0.499-0.51662-2.6871-2.7224 0.53904-1.4638-2.2116-2.2467 1.4871-2.1902-1.4785-1.4785 2.1902-2.6252-0.5341zm-240.48 159.22-3.2166 15.81 15.81 3.2166 3.2517-15.833-15.845-3.1934zm48.093-31.832-3.2166 15.81 15.81 3.2166 3.2166-15.81-15.81-3.2166zm48.128-31.856-3.2166 15.81 15.81 3.2166 3.2166-15.81-15.81-3.2166zm48.093-31.832-3.2166 15.81 15.81 3.2166 3.2166-15.81-15.81-3.2166zm48.093-31.832-3.2166 15.81 15.81 3.2166 3.2166-15.81-15.81-3.2166zm96.222-63.688-3.2517 15.833 15.845 3.1934 3.2166-15.81-15.81-3.2166zm48.058-31.809-3.2166 15.81 15.81 3.2166 3.2517-15.833-15.845-3.1933zm48.128-31.856-3.2166 15.81 15.81 3.2166 3.2166-15.81-15.81-3.2166zm48.093-31.832-3.2166 15.81 15.81 3.2166 3.2166-15.81-15.81-3.2166zm48.093-31.832-3.2166 15.81 15.81 3.2166 3.2166-15.81-15.81-3.2166zm-275.92 210.09 3.0649 15.843 15.843-3.0649-3.0649-15.843-15.843 3.0649zm96.175-63.606-9.0698 13.374 13.409 9.0466 9.0115-13.386-13.351-9.0347zm-77.186 76.431 0.0236 0.0348 8.8991 13.445 13.48-8.9223-8.9574-13.457-13.445 8.8991zm68.056-44.995 8.9223 13.48 13.445-8.8991-8.8991-13.445-13.468 8.864zm-119.29 80.016 3.0649 15.843 15.819-3.1-3.0649-15.843-15.819 3.1zm185-122.45-9.0114 13.386 13.351 9.0347 9.0697-13.374-13.409-9.0465zm-102.24 78.625-9.0114 13.386 13.327 8.9996 9.1049-13.397-13.421-8.9882zm29.558-19.564 3.0649 15.843 15.843-3.0649-3.053-15.901-15.854 3.1232zm-12.827 12.731-3.2166 15.81 15.81 3.2166 3.2517-15.833-15.845-3.1934zm-131.76 98.469 3.1 15.819 15.843-3.065-3.1-15.819-15.843 3.065zm273.89-181.28-8.9764 13.362 13.374 9.0698 9.0115-13.386-13.409-9.0466zm-201.89 154.98 0.0235 0.0348 8.8991 13.445 13.48-8.9223-8.9223-13.48-13.48 8.9223zm136.04-90.04l0.0237 0.0348 8.8991 13.445 13.48-8.9223-8.9223-13.48-13.48 8.9224zm-240.27 164.18 3.0649 15.843 15.819-3.1-3.065-15.843-15.819 3.1zm362.77-240.11-9.0115 13.386 13.327 8.9996 9.0697-13.374-13.386-9.0114zm-204.48 157.25-9.0115 13.386 13.351 9.0347 9.0698-13.374-13.409-9.0466zm66.348-43.915 3.0649 15.843 15.819-3.1-3.0298-15.866-15.854 3.1232zm-256.91 174.59 3.0649 15.843 15.843-3.0649-3.053-15.901-15.854 3.1232zm451.66-298.94-9.0114 13.386 13.351 9.0347 9.0115-13.386-13.351-9.0347zm-223.55 152.91-3.2166 15.81 15.81 3.2166 3.2517-15.833-15.845-3.1934zm-103.06 80.583 0.0235 0.0348 8.8991 13.445 13.48-8.9223-8.9574-13.457-13.445 8.8991zm204.09-135.03 8.9223 13.48 13.445-8.8991-8.9224-13.48-13.445 8.8991zm-24.432 58.123 3.1 15.819 15.843-3.0649-3.0649-15.843-15.878 3.0877zm-103.11 68.3-9.0347 13.351 13.386 9.0114 9.0698-13.374-13.421-8.9882zm-88.077 65.163 0.0237 0.0348 8.8991 13.445 13.48-8.9224-8.9573-13.457-13.445 8.8991zm272.12-180.06 8.8991 13.445 13.48-8.9223-8.8991-13.445-13.48 8.9223zm-125.69 91.017-3.2166 15.81 15.81 3.2166 3.2517-15.833-15.845-3.1934zm-157.93 145.58 8.8991 13.445 13.503-8.8872-8.9223-13.48-13.48 8.9224zm340.13-225.13 8.8991 13.445 13.445-8.8991-8.8991-13.445-13.445 8.8991zm-229.56 160.07-9.0114 13.386 13.351 9.0347 9.0698-13.374-13.409-9.0466zm140-92.662 3.0649 15.843 15.843-3.0649-3.053-15.901-15.855 3.1232zm-60.798 60.233-3.2166 15.81 15.81 3.2166 3.2517-15.833-15.845-3.1934zm-68.202 89.012-9.0233 13.444 13.386 9.0115 9.0698-13.374-13.432-9.0817zm176.79-117.01 3.1232 15.854 15.819-3.1-3.065-15.843-15.878 3.0878zm-76.776 76.059-3.1934 15.845 15.81 3.2166 3.2517-15.833-15.868-3.2285z" fill="#a00"/>
        <path id="path10309" fill="url(#radialGradient10972)" d="m321.95 394.56c-6.3056 0-12.036 2.352-15.855 6.5261-3.7301 3.9077-6.1319 10.04-6.1319 15.724 0 12.522 9.8978 22.206 22.776 22.206 8.6147-0.00007 15.675-4.1928 19.228-11.475h-27.155v-11.388h70.429v11.388h-27.199c3.5524 7.2825 10.701 11.475 19.315 11.475 12.878 0 22.688-9.6839 22.688-22.206 0-5.684-2.4018-11.816-6.1319-15.724-3.8189-4.1741-9.5496-6.5261-15.855-6.5261-7.6378 0-13.96 3.0322-18.045 8.716h-19.972c-4.0853-5.6839-10.451-8.716-18.089-8.716zm-54.968 10.862c-2.9235 0.0149-5.9784 0.63306-8.8912 1.8396-7.0564 2.9228-11.716 8.1647-13.315 14.979l-5.2559 2.1462-7.9276 3.2849-5.2559 2.19c-5.9495-3.6879-12.96-4.0616-20.016-1.1388-5.8256 2.413-10.245 6.7708-12.176 12.089-1.9508 5.0376-1.8248 11.611 0.35039 16.863 4.7921 11.569 17.667 16.754 29.564 11.826 7.9589-3.2967 12.864-9.9138 13.359-18.001l-25.097 10.38-4.3361-10.512 25.403-10.512 14.235-5.8691 25.403-10.599 4.3799 10.556-25.141 10.38c6.069 5.3687 14.291 6.5816 22.25 3.2849 11.897-4.928 17.231-17.645 12.439-29.214-2.1752-5.2512-6.709-10.037-11.651-12.22-2.5628-1.1974-5.3984-1.7668-8.3218-1.752zm165.6 0c-2.3914 0.0433-4.7205 0.45692-6.8765 1.314-0.32854 0.13062-0.64325 0.28827-0.96358 0.43799-4.9416 2.1829-9.5193 6.9687-11.694 12.22-4.7922 11.569 0.6292 24.286 12.527 29.214 7.9589 3.2966 16.093 2.0838 22.162-3.2849l-25.097-10.337 4.3799-10.556 25.403 10.556 14.235 5.9129 25.447 10.512-4.3799 10.512-25.097-10.424c0.49509 8.0876 5.4436 14.705 13.403 18.001 11.897 4.928 24.685-0.21271 29.477-11.782 2.1751-5.2512 2.3011-11.869 0.35039-16.906-1.9309-5.3178-6.3505-9.7194-12.176-12.132-7.0564-2.9229-14.023-2.5054-19.972 1.1826l-5.2997-2.19-7.9276-3.2849-5.2559-2.1462c-1.5993-6.8146-6.3023-12.1-13.359-15.023-3.0721-1.2725-6.2109-1.8514-9.2854-1.7958zm-265.6 52.822c-5.3042 0.0743-10.624 2.4336-14.804 6.6137-5.4007 5.4008-7.7001 12.057-6.5699 18.965l-4.0295 4.0295-6.0881 6.0881-4.0295 4.0295c-6.9078-1.1304-13.521 1.1692-18.921 6.5699-4.4586 4.4588-6.8648 10.203-6.6137 15.855 0.12558 5.4007 2.7697 11.398 6.7889 15.417 8.8546 8.8546 22.648 8.7993 31.754-0.3066 6.0915-6.0915 8.1562-14.15 5.5187-21.812l-19.228 19.272-8.059-8.059 19.447-19.491 10.906-10.906 19.447-19.403 8.059 8.0152-19.228 19.184c7.6614 2.6376 15.677 0.66032 21.768-5.4311 9.1058-9.1058 9.2488-22.944 0.39419-31.798-4.0192-4.0192-10.06-6.7071-15.461-6.8327-0.3533-0.0143-0.69748-0.007-1.0512 0zm364.98 0c-5.4007 0.12558-11.442 2.8134-15.461 6.8327-8.8546 8.8546-8.7117 22.692 0.39419 31.798 6.0915 6.0914 14.063 8.0687 21.724 5.4311l-19.184-19.184 8.059-8.0152 19.447 19.403 10.862 10.906 19.491 19.491-8.059 8.059-19.228-19.272c-2.6376 7.6614-0.57272 15.72 5.5187 21.812 9.1058 9.1058 22.9 9.1612 31.754 0.3066 4.0191-4.0191 6.6634-10.017 6.7889-15.417 0.25133-5.6519-2.1549-11.397-6.6137-15.855-5.4006-5.4007-12.013-7.7003-18.921-6.5699l-4.0733-4.0295-6.0443-6.0881-4.0295-4.0295c1.1304-6.9078-1.1691-13.564-6.5699-18.965-4.1801-4.18-9.5017-6.5377-14.804-6.6137-0.35351-0.006-0.69794-0.0156-1.0512 0zm-436.24 86.86c-2.561 0.0573-5.0229 0.50423-7.2268 1.3578-0.33234 0.12068-0.6827 0.25411-1.0074 0.3942-4.8721 2.0984-8.8627 6.3205-11.125 11.782-2.9228 7.0563-2.5053 14.111 1.1826 20.06l-2.19 5.2559-3.2849 7.9276-2.19 5.2559c-6.8145 1.5992-12.056 6.2586-14.979 13.315-2.4124 5.8256-2.4387 12.044-0.04373 17.169 2.1828 4.9416 6.9687 9.5193 12.22 11.694 11.569 4.7921 24.286-0.58531 29.214-12.483 3.2966-7.9589 2.0837-16.137-3.2849-22.206l-10.38 25.097-10.512-4.3361 10.512-25.447 5.9129-14.235 10.512-25.403 10.512 4.3799-10.38 25.053c8.0877-0.49522 14.705-5.3998 18.001-13.359 4.928-11.897-0.21286-24.728-11.782-29.521-2.9538-1.2235-6.3868-1.8258-9.6796-1.752zm507.46 0c-2.9369 0.066-5.9152 0.66439-8.5408 1.752-11.569 4.7922-16.71 17.623-11.782 29.521 3.2966 7.959 9.87 12.864 17.958 13.359l-10.38-25.053 10.512-4.3799 10.512 25.403 5.9129 14.235 10.556 25.447-10.556 4.3361-10.38-25.097c-5.3689 6.069-6.5377 14.247-3.2411 22.206 4.928 11.897 17.601 17.231 29.17 12.439 5.2512-2.1751 10.037-6.709 12.22-11.651 2.3951-5.1256 2.3692-11.344-0.0437-17.169-2.9229-7.0563-8.1647-11.716-14.979-13.315l-2.19-5.2559-3.2849-7.9276-2.19-5.2559c3.6878-5.9495 4.1054-13.004 1.1826-20.06-2.4131-5.8256-6.7708-10.245-12.089-12.176-2.5187-0.97536-5.4286-1.4236-8.3656-1.3578zm-538.73 107.22c-5.684 0-11.816 2.358-15.724 6.0881-4.1741 3.8189-6.5261 9.5934-6.5261 15.899 0 7.6378 3.0759 13.96 8.7598 18.045v19.972c-5.6839 4.0853-8.7598 10.407-8.7598 18.045 0 6.3056 2.3519 12.08 6.5261 15.899 3.9077 3.73 10.04 6.1319 15.724 6.1319 12.522 0 22.25-9.8541 22.25-22.732 0-8.6147-4.2367-15.719-11.519-19.272v27.199h-11.388v-70.429h11.388v27.112c7.2825-3.5524 11.519-10.613 11.519-19.228 0-12.878-9.7277-22.732-22.25-22.732zm571.05 0c-12.522 0-22.206 9.8541-22.206 22.732 0 8.6147 4.2364 15.675 11.519 19.228v-27.112h11.388v70.429h-11.388v-27.199c-7.2826 3.5525-11.519 10.657-11.519 19.272 0 12.878 9.6837 22.732 22.206 22.732 5.6839 0 11.86-2.4018 15.768-6.1319 4.174-3.8189 6.5261-9.5935 6.5261-15.899 0-7.6378-3.0759-13.96-8.7598-18.045v-19.972c5.684-4.0853 8.7598-10.407 8.7598-18.045 0.00007-6.3056-2.352-12.08-6.5261-15.899-3.9078-3.73-10.084-6.0881-15.768-6.0881zm-559.66 111.3c-2.8979-0.0208-5.8675 0.55395-8.7598 1.752-5.2513 2.1752-10.037 6.7528-12.22 11.694-2.3956 5.1256-2.3692 11.344 0.04373 17.169 2.9228 7.0564 8.1647 11.716 14.979 13.315l2.19 5.2559 3.2849 7.9276 2.19 5.2997c-3.6879 5.9494-4.1055 12.916-1.1826 19.972 2.413 5.8256 6.8145 10.245 12.132 12.176 5.0375 1.9507 11.611 1.8248 16.863-0.35039 11.569-4.7921 16.754-17.579 11.826-29.477-3.2966-7.9589-9.9138-12.907-18.001-13.403l10.38 25.141-10.512 4.3361-10.512-25.447-5.9129-14.235-10.512-25.403 10.512-4.3361 10.38 25.053c5.3687-6.0689 6.5816-14.203 3.2849-22.162-3.6961-8.923-11.761-14.216-20.454-14.278zm548.32 0c-2.8998 0.0241-5.7425 0.62968-8.3656 1.752-5.2378 2.2469-9.6275 6.585-12.089 12.527-3.2968 7.9589-2.0839 16.093 3.2849 22.162l10.38-25.053 10.512 4.3361-10.512 25.403-5.9129 14.235-10.512 25.447-10.556-4.3799 10.424-25.097c-8.0877 0.49515-14.705 5.4436-18.001 13.403-4.928 11.897 0.2566 24.685 11.826 29.477 5.2512 2.1752 11.869 2.3011 16.906 0.35039 5.3179-1.9308 9.6755-6.3506 12.089-12.176 2.9228-7.0564 2.5052-14.023-1.1826-19.972l2.19-5.2997 3.2849-7.9276 2.19-5.2559c6.8145-1.5992 12.056-6.2585 14.979-13.315 2.4125-5.8256 2.4383-12.044 0.0437-17.169-2.1829-4.9415-6.9688-9.5192-12.22-11.694-2.8923-1.198-5.86-1.7761-8.7598-1.752zm-496.68 98.723c-5.3424 0.20002-10.61 2.3754-14.76 6.5261-4.0192 4.0191-6.6633 10.06-6.7889 15.461-0.2512 5.6519 2.155 11.397 6.6137 15.855 5.4008 5.4007 12.013 7.7002 18.921 6.5699l4.0295 4.0295 6.0881 6.0443 4.0295 4.0733c-1.1304 6.9078 1.1692 13.52 6.5699 18.921 4.4587 4.4588 10.203 6.8648 15.855 6.6137 5.4007-0.12558 11.442-2.8135 15.461-6.8326 8.8546-8.8546 8.7555-22.648-0.35039-31.754-6.0915-6.0915-14.15-8.1124-21.812-5.4749l19.272 19.228-8.059 8.0152-19.491-19.447-10.906-10.906-19.403-19.447 8.0152-8.0152 19.228 19.184c2.6376-7.6615 0.6166-15.677-5.4749-21.768-4.5529-4.5529-10.281-6.8103-15.987-6.8765-0.35663-0.004-0.69504-0.014-1.0512 0zm443.99 0c-5.7057 0.0662-11.434 2.3235-15.987 6.8765-6.0915 6.0915-8.1125 14.107-5.4749 21.768l19.184-19.184 8.059 8.0152-19.447 19.447-10.862 10.906-19.491 19.447-8.059-8.0152 19.228-19.228c-7.6614-2.6376-15.677-0.6166-21.768 5.4749-9.1058 9.1058-9.205 22.9-0.35039 31.754 4.0192 4.0191 10.06 6.707 15.461 6.8326 5.652 0.25116 11.397-2.1549 15.855-6.6137 5.4007-5.4007 7.7002-12.013 6.5699-18.921l4.0295-4.0733 6.0443-6.0443 4.0295-4.0295c6.9079 1.1304 13.564-1.1691 18.965-6.5699 4.4588-4.4587 6.865-10.203 6.6137-15.855-0.12558-5.4008-2.7697-11.442-6.7889-15.461-4.4274-4.4273-10.106-6.5922-15.811-6.5261zm-357.49 70.955c-2.5588 0.10287-5.041 0.64822-7.3582 1.5768-5.2968 2.1224-9.7363 6.304-12.132 12.089-2.1751 5.2512-2.3012 11.869-0.35039 16.906 1.9309 5.3178 6.3505 9.6755 12.176 12.089 7.0563 2.9227 14.067 2.549 20.016-1.1388l5.2559 2.1462 7.9276 3.2849 5.2997 2.19c1.5993 6.8146 6.2147 12.056 13.271 14.979 5.8256 2.4124 12.087 2.4392 17.213 0.0437 4.9415-2.1827 9.4754-6.9687 11.651-12.22 4.7921-11.569-0.54161-24.242-12.439-29.17-7.959-3.2967-16.181-2.1276-22.25 3.2411l25.141 10.424-4.3361 10.512-25.447-10.556-14.235-5.9129-25.403-10.512 4.3361-10.512 25.097 10.424c-0.49521-8.0876-5.3998-14.705-13.359-18.001-2.9743-1.232-6.0312-1.8564-8.9788-1.8834-0.3685-0.003-0.72947-0.0147-1.095 0zm270.98 0c-2.946 0.0252-5.9607 0.60756-8.935 1.8396-7.959 3.2967-12.951 9.9576-13.446 18.045l25.141-10.424 4.3799 10.512-25.447 10.556-14.235 5.8691-25.403 10.556-4.3361-10.556 25.053-10.337c-6.069-5.3688-14.203-6.6254-22.162-3.3287-11.897 4.9281-17.319 17.645-12.527 29.214 2.1751 5.2513 6.7528 10.037 11.694 12.22 5.1255 2.3954 11.344 2.3689 17.169-0.0437 7.0563-2.923 11.716-8.1646 13.315-14.979l5.2121-2.19 7.9714-3.2849 5.2559-2.19c5.9494 3.6877 12.96 4.1054 20.016 1.1826 5.8256-2.4131 10.245-6.7708 12.176-12.089 1.9507-5.0376 1.781-11.655-0.39419-16.906-3.594-8.6769-11.66-13.741-20.498-13.665zm-162.23 32.368c-12.878 0-22.776 9.6838-22.776 22.206 0 5.6839 2.4018 11.86 6.1319 15.768 3.8189 4.174 9.5496 6.5261 15.855 6.5261 7.6378-0.0002 14.004-3.0761 18.089-8.7599h19.973c4.0853 5.6838 10.407 8.7599 18.045 8.7599 6.3056 0 12.036-2.3521 15.855-6.5261 3.73-3.9077 6.1319-10.084 6.1319-15.768 0-12.522-9.8103-22.206-22.688-22.206-8.6147 0-15.763 4.2365-19.315 11.519h27.199v11.344h-70.429v-11.344h27.155c-3.5524-7.2827-10.613-11.519-19.228-11.519z"/>
        <path id="path10295" fill="url(#radialGradient10974)" d="m301.89 490.92c-2.154 0.0227-4.4034 0.49353-6.7013 1.4454-9.1917 3.8072-12.636 12.706-8.6284 22.381 4.0477 9.772 13.146 13.881 22.338 10.074 8.9981-3.7271 12.147-12.775 8.059-22.644-3.0359-7.3291-8.6051-11.324-15.067-11.256zm95.394 0c-1.8612 0.0774-3.6445 0.52392-5.2997 1.2702-3.7833 1.7058-6.9112 5.1001-8.935 9.9862-4.0878 9.8689-0.89521 18.917 8.1028 22.644 9.1916 3.8072 18.202-0.30179 22.25-10.074 4.0076-9.6755 0.56323-18.574-8.6284-22.381-2.2979-0.95184-4.5513-1.4237-6.7013-1.4454-0.26874-0.003-0.52251-0.0112-0.78839 0zm-150.27 22.776c-2.1735 0.022-4.4471 0.4936-6.745 1.4454-9.1917 3.8072-12.501 12.522-8.4532 22.294 4.0878 9.8689 12.726 14.02 21.724 10.293 9.1916-3.8072 12.72-13.091 8.6722-22.863-3.0057-7.2565-8.6775-11.235-15.198-11.169zm205.2 0c-1.8807 0.0761-3.7107 0.48273-5.3873 1.2264-3.8324 1.6995-7.0188 5.1047-9.0226 9.9424-4.0477 9.7721-0.56324 19.056 8.6284 22.863 8.9981 3.7271 17.68-0.38011 21.768-10.249 4.0477-9.7721 0.73836-18.53-8.4532-22.338-2.2979-0.95184-4.5707-1.4196-6.7451-1.4454-0.27184-0.003-0.51968-0.0112-0.78839 0zm-109.85 22.6-19.71 13.008 10.424 25.141-25.535 10.599-10.468 4.3361-25.579 10.556-10.424-25.141-23.082 4.7303 37.317 37.273c2.5016-4.4749 6.641-8.1634 11.782-10.293 10.643-4.4086 20.404-1.1499 26.717 8.4532-2.3281-11.257 2.2323-20.425 12.877-24.834 5.1381-2.1283 10.742-2.4835 15.68-1.095v-52.734zm15.286 0.0437v52.69c1.9149-0.54338 3.9156-0.8146 5.9567-0.83218 3.229-0.0276 6.5656 0.57532 9.7234 1.8834 10.643 4.4087 15.203 13.623 12.877 24.878 6.3134-9.6059 16.073-12.862 26.717-8.4532 5.1314 2.1255 9.2736 5.8239 11.782 10.293l37.229-37.185-23.038-4.9055-10.249 25.097-25.666-10.468-10.38-4.2923-25.535-10.775 10.293-24.878-19.71-13.052zm-180.89 46.12c-2.0461 0.0509-3.9778 0.49148-5.7377 1.2702-3.5495 1.5705-6.4496 4.5826-8.2342 8.8912-3.8073 9.1915 0.0917 17.936 9.7672 21.943 9.772 4.0478 19.012 0.51944 22.819-8.6722 3.7272-8.9981-0.38005-17.636-10.249-21.724-2.9202-1.2096-5.735-1.7733-8.3656-1.7082zm346.06 0c-2.4978 0.008-5.1792 0.56971-7.9276 1.7082-9.8689 4.0878-13.976 12.726-10.249 21.724 3.8072 9.1917 13.047 12.72 22.819 8.6722 9.6754-4.0076 13.574-12.752 9.7672-21.943-2.7365-6.6064-8.0266-10.182-14.41-10.161zm-49.975 7.84-37.317 37.317c4.4957 2.498 8.1979 6.6625 10.337 11.826 4.4086 10.643 1.1499 20.404-8.4532 26.717 11.257-2.3281 20.469 2.2323 24.878 12.877 2.1284 5.1382 2.4836 10.747 1.095 15.68h52.646l-12.789-19.622-25.141 10.468-10.599-25.622-4.3361-10.424-10.599-25.579 25.141-10.424-4.8617-23.214zm-245.67 0.0437-4.7741 22.995 25.184 10.424-10.687 25.754-4.2923 10.38-10.599 25.491-25.141-10.424-12.789 19.753h52.603c-1.3821-4.9227-1.0305-10.505 1.095-15.636 4.4086-10.643 13.579-15.203 24.834-12.877-9.6059-6.3134-12.862-16.073-8.4532-26.717 2.1323-5.1475 5.8491-9.3148 10.337-11.826l-37.317-37.317zm-72.093 46.909c-0.33533-0.008-0.67763 0.0339-1.0074 0.0437-2.0518 0.0653-4.0068 0.47361-5.7815 1.2702-3.5792 1.6064-6.4496 4.714-8.2342 9.0226-3.8073 9.1916 0.039 17.677 9.811 21.724 9.8689 4.0878 18.873 0.89528 22.6-8.1028 3.8073-9.1917-0.25791-18.202-10.03-22.25-2.5299-1.0479-5.0112-1.6447-7.3582-1.7082zm390.38 0c-2.5032-0.014-5.1626 0.53723-7.8838 1.6644-9.7722 4.0477-13.837 13.102-10.03 22.294 3.7272 8.9981 12.731 12.191 22.6 8.1028 9.7718-4.0477 13.618-12.577 9.811-21.768-2.7365-6.6065-8.1008-10.258-14.497-10.293zm-188.03 7.4022c-0.43877 0.014-0.85212 0.0952-1.2264 0.219-0.19965 0.0569-0.42609 0.14001-0.61319 0.21899-0.44263 0.18798-0.81285 0.43383-1.1826 0.74459 1.1818 3.2188 1.0876 6.342-0.1752 9.1978 0.92958 0.75097 2.1562 1.4096 3.7229 2.0586l3.3287 1.3578 4.5989-11.125-3.0659-1.2264c-2.4058-0.99654-4.0709-1.4861-5.3873-1.4454zm-15.33 0.0437c-1.2373 0.0768-2.8004 0.5296-4.9055 1.4016l-3.0659 1.2702 4.5989 11.125 3.3725-1.4016c1.5335-0.63516 2.7171-1.3717 3.6353-2.1024-1.2414-2.8379-1.3036-5.914-0.13133-9.1102-0.53544-0.45968-1.1061-0.76753-1.7958-0.96358-0.37433-0.1239-0.7874-0.20679-1.2264-0.219-0.16462-0.004-0.30504-0.0112-0.48179 0zm35.565 7.5334-4.5989 11.125 3.3725 1.4016c1.5552 0.64426 2.852 1.0115 4.0295 1.1388 1.128-2.9084 3.2377-5.1769 6.3509-6.6137-0.0558-0.6971-0.22321-1.3498-0.56939-1.971-0.70821-1.4091-2.3546-2.4818-5.5625-3.8105l-3.0221-1.2702zm-55.318 0.0437-3.0221 1.2702c-0.40099 0.16612-0.83002 0.27884-1.1826 0.43799-2.4684 1.114-3.7602 2.0958-4.3799 3.3287-0.35052 0.62884-0.56028 1.308-0.61319 2.0148 3.0929 1.4348 5.2662 3.6342 6.3947 6.5261 1.1865-0.12726 2.5538-0.44747 4.1171-1.095l3.2849-1.4016-4.5989-11.081zm-15.33 13.24c-0.51 0.0359-1.0188 0.11549-1.4892 0.30659-0.18831 0.0761-0.34434 0.16166-0.52559 0.26279-1.4091 0.70823-2.4818 2.3547-3.8105 5.5625l-1.314 3.0221 11.169 4.6427 1.3578-3.4163c0.63829-1.5411 1.0079-2.8595 1.1388-4.0295-2.9013-1.1294-5.0917-3.2432-6.5261-6.3509zm86.065 0c-1.4412 3.123-3.693 5.2231-6.6137 6.3509 0.12642 1.188 0.49004 2.551 1.1388 4.1171l1.3578 3.3287 11.125-4.5989-1.2702-3.0659c-1.3287-3.2078-2.4015-4.8105-3.8105-5.5187-0.61556-0.34305-1.2369-0.55552-1.9272-0.61318zm-98.022 20.936-1.314 3.1097c-1.3288 3.2078-1.7219 5.0727-1.2264 6.5699 0.19083 0.67129 0.52278 1.2706 0.96358 1.7958 3.2032-1.1761 6.3096-1.0703 9.154 0.17519 0.74609-0.92792 1.457-2.1211 2.1024-3.6791l1.4016-3.3287-11.081-4.6427zm109.89 0.0437-11.081 4.5989 1.4016 3.3725c0.64113 1.5477 1.2763 2.7142 2.0148 3.6353 2.857-1.2619 5.9767-1.3192 9.1978-0.13132 0.46258-0.53694 0.76672-1.1032 0.96358-1.7958 0.49555-1.4971 0.10232-3.4058-1.2264-6.6137l-1.2702-3.0659zm-102.27 20.06c-2.8446 1.2566-5.9045 1.347-9.1102 0.17519-0.46543 0.53845-0.85357 1.1443-1.0512 1.8396-0.49562 1.4971-0.0586 3.4058 1.2702 6.6137l1.2264 3.0221 11.125-4.5989-1.4016-3.3725c-0.64276-1.5516-1.318-2.7572-2.0586-3.6791zm94.65 0.0437c-0.75096 0.92962-1.4534 2.0686-2.1024 3.6353l-1.3578 3.3728 11.125 4.5551 1.2702-3.0221c1.3287-3.2078 1.6781-5.1165 1.1826-6.6137-0.19443-0.68396-0.50988-1.2635-0.96358-1.7958-3.2132 1.1796-6.3022 1.1255-9.154-0.13132zm-213.43 3.4163 12.965 19.841 25.141-10.424 10.599 25.579 4.3361 10.468 10.599 25.535-25.184 10.468 4.8179 22.863 37.273-37.273c-4.4636-2.5136-8.1673-6.6944-10.293-11.826-4.4092-10.645-1.1527-20.36 8.4532-26.674-11.255 2.3262-20.469-2.2774-24.878-12.921-2.1348-5.1538-2.4159-10.692-1.0074-15.636h-52.822zm279.44 0c1.4151 4.9541 1.0865 10.519-1.0512 15.68-4.4092 10.645-13.578 15.249-24.834 12.921 9.6031 6.3134 12.818 16.03 8.4094 26.674-2.1321 5.1473-5.821 9.3252-10.293 11.826l37.317 37.317 4.9493-23.082-25.184-10.424 10.556-25.491 4.2923-10.38 10.643-25.798 25.184 10.424 12.833-19.666h-52.822zm-74.371 15.33-1.4016 3.4163c-0.63835 1.5411-1.0079 2.8596-1.1388 4.0295 2.9152 1.1266 5.1746 3.2765 6.6137 6.3947 0.6971-0.0557 1.3936-0.2233 2.0148-0.56939 1.409-0.70824 2.438-2.3547 3.7667-5.5625l1.2702-3.0659-11.125-4.6427zm-77.919 0.0437-11.125 4.6427 1.2264 3.0659c1.3287 3.2078 2.4453 4.8105 3.8543 5.5187 0.61651 0.34361 1.2794 0.46839 1.971 0.52559 1.4411-3.116 3.6533-5.2246 6.5699-6.3509-0.12712-1.1865-0.49119-2.51-1.1388-4.0733l-1.3578-3.3287zm-153.17 8.2342c-2.5436 0.0322-5.2396 0.60227-8.0152 1.752-9.7725 4.0478-13.618 12.577-9.811 21.768 3.8073 9.1916 12.706 12.636 22.381 8.6284 9.7722-4.0478 13.837-13.102 10.03-22.294-2.6789-6.4674-8.0849-9.9371-14.585-9.8548zm383.77 0c-2.0846 0.0306-4.0317 0.43305-5.8253 1.1826-3.6176 1.5117-6.5308 4.4543-8.278 8.6722-3.8072 9.1916 0.25778 18.246 10.03 22.294 9.6754 4.0077 18.574 0.56316 22.381-8.6284 3.8074-9.1916-0.0392-17.72-9.811-21.768-2.9491-1.2215-5.8168-1.7913-8.497-1.752zm-222.06 5.1683c-1.1279 2.9081-3.3257 5.1331-6.4385 6.5699 0.0506 0.71153 0.26057 1.3384 0.61319 1.971 0.70823 1.4091 2.3108 2.5256 5.5187 3.8543l3.0659 1.2264 4.5989-11.081-3.3287-1.4016c-1.5411-0.6383-2.8596-1.008-4.0295-1.1388zm60.881 0c-1.19 0.12558-2.5474 0.48858-4.1171 1.1388l-3.3287 1.4016 4.6427 11.125 3.0221-1.2702c3.2078-1.3287 4.8543-2.4014 5.5625-3.8105 0.343-0.6155 0.51173-1.2807 0.56939-1.971-3.1163-1.4413-5.2246-3.6968-6.3509-6.6137zm-41.741 7.402-4.5989 11.125 3.0659 1.2264c3.2078 1.3287 5.1165 1.7657 6.6137 1.2702 0.68394-0.19441 1.2635-0.50985 1.7958-0.96358-1.1777-3.2081-1.0759-6.3061 0.1752-9.154-0.93168-0.75685-2.1457-1.449-3.7229-2.1024l-3.3287-1.4016zm22.513 0-3.3287 1.4016c-1.5633 0.64754-2.7988 1.3553-3.7229 2.1024 1.26 2.8523 1.3569 5.895 0.1752 9.1102 0.53694 0.46258 1.147 0.81055 1.8396 1.0074 1.4971 0.49559 3.4059 0.10246 6.6137-1.2264l3.0659-1.2702-4.6427-11.125zm-85.978 41.697-37.317 37.361 23.17 4.7741 10.38-25.141 25.622 10.731 10.38 4.3361 25.666 10.468-10.424 25.184 19.622 12.877v-52.778c-4.9381 1.3886-10.542 1.0772-15.68-1.0512-10.645-4.4092-15.205-13.621-12.877-24.878-6.3134 9.6031-16.03 12.862-26.674 8.4532-5.1569-2.1361-9.3653-5.8482-11.87-10.337zm149.49 0c-2.5048 4.4792-6.6722 8.2019-11.826 10.337-10.645 4.4092-20.404 1.1526-26.717-8.4532 2.3262 11.255-2.2774 20.469-12.921 24.878-5.1539 2.1348-10.697 2.4546-15.636 1.0512v52.822l19.71-13.052-10.337-24.965 25.535-10.556 10.468-4.3361 25.535-10.599 10.38 24.965 23.17-4.7303-37.361-37.36zm-243.79 0.56939c-0.42385-0.0126-0.8382 0.0254-1.2702 0.0437-2.3038 0.0961-4.6962 0.65242-7.1392 1.6644-9.6755 4.0077-13.575 12.708-9.7672 21.9 3.8072 9.1916 12.565 12.501 22.338 8.4532 9.8688-4.0878 13.976-12.726 10.249-21.724-2.677-6.4628-8.0518-10.143-14.41-10.337zm339.05 0c-0.34232-0.008-0.66988 0.0324-1.0074 0.0437-2.1 0.0685-4.0897 0.51098-5.9129 1.314-3.677 1.6195-6.6686 4.6702-8.4532 8.9788-3.7271 8.9981 0.38017 17.637 10.249 21.724 9.7722 4.0478 18.486 0.78217 22.294-8.4094 3.8073-9.1916-0.0479-17.936-9.7234-21.943-2.5552-1.0584-5.0499-1.6448-7.4458-1.7082zm-273.44 67.144c-1.7465 0.0528-3.4063 0.44353-4.9931 1.095-4.1105 1.6876-7.5956 5.269-9.7672 10.512-4.0477 9.7721-0.73843 18.53 8.4532 22.338 9.1916 3.8073 17.936-0.0481 21.943-9.7234 4.0479-9.7722 0.51943-19.056-8.6722-22.863-2.076-0.8599-4.1003-1.3052-6.0881-1.3578-0.28398-0.007-0.59535-0.008-0.87599 0zm205.72 0c-1.8936 0.0855-3.9008 0.54247-5.8691 1.3578-9.1917 3.8073-12.676 13.091-8.6284 22.863 4.0076 9.6754 12.708 13.574 21.9 9.7672 9.1916-3.8073 12.545-12.565 8.497-22.338-3.0658-7.4016-8.6949-11.597-15.111-11.651-0.26735-0.001-0.51784-0.0126-0.78839 0zm-150.23 22.88c-2.2018-0.00068-4.3049 0.47521-6.2633 1.3578-3.9169 1.7651-7.1739 5.2315-9.1978 10.118-4.0077 9.6754-0.56317 18.574 8.6284 22.381 9.1916 3.8073 17.72-0.0388 21.768-9.811 4.0878-9.8689 0.85141-18.917-8.1466-22.644-2.2979-0.95182-4.5871-1.4009-6.7889-1.4016zm95.876 0c-2.204 0.0004-4.4909 0.44975-6.7889 1.4016-8.9981 3.7272-12.191 12.775-8.1028 22.644 4.0477 9.7722 12.533 13.618 21.724 9.811 9.1916-3.8073 12.636-12.706 8.6284-22.381-3.0359-7.3291-8.849-11.477-15.461-11.475z"/>
        <path id="path10263" fill="url(#radialGradient10976)" d="m335.7 602.78c-0.99158-0.0247-2.0275 0.16491-3.1097 0.61318-1.9609 0.81223-3.2299 2.0956-3.8105 3.8105-0.74648 2.2049-0.36012 5.1668 1.1826 8.8912l2.0586 4.9931c1.725-1.37 3.7896-2.5519 6.0881-3.5039 3.9032-1.6168 8.0235-2.217 11.957-1.7958 3.8971-0.40248 8.0006 0.14943 11.87 1.752 2.314 0.95853 4.3553 2.1654 6.0881 3.5477l2.0586-4.9931c2.7426-6.6212 1.854-10.845-2.6279-12.702-3.4634-1.4345-6.5009-0.41082-8.9788 2.9783l-8.4532-3.5039-8.4532 3.5039c-1.7036-2.3301-3.6876-3.5372-5.8691-3.5915zm-40.908 16.687c-0.77967 0.0554-1.5686 0.26508-2.409 0.61319-3.4634 1.4346-4.9367 4.3045-4.2923 8.4532l-8.4094 3.4601-3.5039 8.497c-4.1487-0.64439-7.0186 0.78513-8.4532 4.2485-1.8566 4.482 0.47424 8.0758 7.0954 10.818l4.9931 2.0586c0.25101-2.1886 0.84373-4.4466 1.7958-6.7451 1.6248-3.9226 4.1705-7.3237 7.2706-9.811 0.0196-0.015 0.0244-0.0282 0.0437-0.0437 2.4612-2.9897 5.7266-5.4687 9.5482-7.0516 2.3139-0.95855 4.5862-1.548 6.7889-1.7958l-2.1024-4.9931c-2.057-4.9658-4.5481-7.5224-7.5772-7.7086-0.25242-0.0156-0.52849-0.0185-0.78838 0zm109.76 0c-0.58293 0.0193-1.1192 0.11058-1.6644 0.30659-0.20773 0.0746-0.41029 0.1626-0.61319 0.2628-2.087 1.0313-3.8885 3.4149-5.4311 7.1392l-2.0586 4.9931c2.1886 0.25101 4.4466 0.84373 6.745 1.7958 3.8689 1.6026 7.159 4.0966 9.6358 7.1392 3.077 2.4779 5.6539 5.8202 7.2706 9.7234 0.95841 2.314 1.5042 4.5862 1.752 6.7889l4.9931-2.1024c6.6212-2.7426 8.9958-6.3363 7.1392-10.818-1.4346-3.4634-4.3046-4.8928-8.4532-4.2485l-3.5039-8.4532-8.4532-3.5039c0.64438-4.1487-0.7852-6.9749-4.2485-8.4094-1.0724-0.4442-2.1382-0.64575-3.1097-0.61319zm-64.034 9.9862c-1.816 0.072-3.6226 0.45164-5.3873 1.1826-5.5906 2.3157-8.5735 6.6945-8.6284 12.176l8.716-3.5915c5.0623-2.0969 7.9993-2.5038 11.256-1.4454 1.3051 0.41489 2.4804 1.0483 3.5477 1.8834 1.06-0.8241 2.2105-1.4723 3.5039-1.8834 3.257-1.0584 6.194-0.69537 11.256 1.4016l8.716 3.6353c-0.0582-5.4658-3.0436-9.8191-8.6284-12.132-4.0336-1.6708-8.4408-1.6208-12.045 0.0876-1.0962 0.51651-1.9976 1.0483-2.8031 1.752-0.80449-0.70239-1.7084-1.2363-2.8031-1.752-1.802-0.85421-3.8447-1.2916-5.9129-1.314-0.25852-0.003-0.52894-0.01-0.78838 0zm-24.922 10.424c-0.22327 0.00069-0.47499 0.0311-0.70078 0.0437-1.6421 0.0911-3.3339 0.50281-5.0807 1.2264-4.0336 1.6707-7.1129 4.8282-8.4532 8.5846-0.41076 1.1424-0.67323 2.1719-0.74459 3.2411-1.0669 0.0719-2.101 0.33478-3.2411 0.74458-3.7564 1.3404-6.9138 4.4635-8.5846 8.497-2.3059 5.567-1.3049 10.72 2.4966 14.629l3.5915-8.6722c2.0968-5.0623 3.9125-7.468 6.9641-9.0226 1.2053-0.62377 2.5221-1.0158 3.8543-1.1826 0.16688-1.3322 0.55873-2.5614 1.1826-3.7667 1.5546-3.0515 3.8727-4.8672 8.935-6.964l8.6722-3.5915c-2.5234-2.4728-5.5422-3.7801-8.8912-3.7667zm68.327 0c-1.5451 0.0453-3.0369 0.36831-4.4237 0.96358-1.4612 0.62723-2.7955 1.595-4.0295 2.8031l8.716 3.5915c5.0623 2.0969 7.4242 3.8688 8.9788 6.9202 0.62377 1.2053 1.0157 2.4784 1.1826 3.8105 1.3322 0.16687 2.6053 0.60261 3.8105 1.2264 3.0516 1.5546 4.8234 3.9165 6.9203 8.9788l3.5915 8.716c3.8391-3.9155 4.8564-9.125 2.5404-14.716-1.6708-4.0335-4.8283-7.1128-8.5846-8.4532-1.1387-0.4094-2.2194-0.62853-3.2849-0.70078-0.0718-1.0672-0.29084-2.1445-0.70079-3.2849-1.3404-3.7564-4.4635-6.9139-8.497-8.5846-2.1511-0.89098-4.2328-1.3285-6.2195-1.2702zm-33.944 29.696-5.2121 3.4601 1.971 4.8179-4.9055 2.0148-1.971 0.83218-4.9055 2.0148-2.0148-4.8179-6.0881 1.2702-1.2702 6.1319 4.8179 1.971-2.0586 4.9055-0.83218 2.0148-2.0148 4.8617-4.8179-1.971-3.4163 5.2559 3.4163 5.2559 4.8179-2.0148 2.0148 4.9055 0.83218 2.0148 2.0148 4.8617-4.7741 2.0148 1.2702 6.0881 6.1319 1.2702 1.971-4.7741 4.9055 2.0586 2.0148 0.78839 4.9055 2.0148-2.0148 4.8179 5.2559 3.4163 5.1683-3.4163-1.971-4.7741 4.9055-2.0586 2.0148-0.78839 4.8617-2.0586 2.0148 4.7741 6.1319-1.2702 1.314-6.0881-4.8617-2.0148 2.0586-4.8617 0.83218-2.0148 2.0148-4.9493 4.8179 2.0148 3.3725-5.2121-3.3725-5.2121-4.8179 1.971-2.0148-4.9055-0.83218-1.971-2.0586-4.9055 4.8617-1.971-1.314-6.1319-6.1319-1.314-1.971 4.8179-4.9055-2.0148-1.971-0.83218-4.9055-2.0586 1.971-4.7741-5.2559-3.4601zm59.523 9.2854 3.6353 8.6722c2.0969 5.0623 2.46 8.0431 1.4016 11.3-0.41503 1.3054-1.0042 2.4802-1.8396 3.5477 0.82403 1.06 1.4283 2.2106 1.8396 3.5039 1.0585 3.2571 0.69536 6.194-1.4016 11.256l-3.5915 8.716c5.4609-0.0669 9.8655-3.0063 12.176-8.5846 1.6708-4.0335 1.577-8.4846-0.13133-12.089-0.51638-1.096-1.0924-1.9978-1.7958-2.8031 0.70558-0.8065 1.3222-1.7487 1.8396-2.847 1.7084-3.6039 1.7584-8.0112 0.0876-12.045-2.3161-5.5916-6.7369-8.5746-12.22-8.6284zm-119.05 0.0437c-1.717 0.02-3.3041 0.29183-4.7741 0.87598-3.206 1.2739-5.7744 3.885-7.3582 7.7086-1.6708 4.0335-1.6208 8.4408 0.0876 12.045 0.51631 1.096 1.0922 1.9979 1.7958 2.8032-0.70632 0.80695-1.278 1.7041-1.7958 2.8031-1.7084 3.604-1.8021 8.055-0.13133 12.089 2.3156 5.5904 6.6942 8.5733 12.176 8.6284l-3.5915-8.716c-2.0968-5.0623-2.5038-7.9993-1.4454-11.256 0.41115-1.2934 1.0155-2.5315 1.8396-3.5915-0.81174-1.0517-1.4327-2.2238-1.8396-3.5039-1.0585-3.2571-0.65156-6.194 1.4454-11.256l3.5915-8.6284zm152.29 1.8396c-1.8039 0.014-3.9555 0.54831-6.4385 1.5768l-4.9931 2.0586c1.3701 1.7251 2.5519 3.7458 3.5039 6.0443 1.6021 3.8678 2.1951 7.9678 1.7958 11.87 0.42371 3.9372-0.17744 8.0938-1.7958 12.001-0.9521 2.2984-2.1339 4.363-3.5039 6.0881l4.9931 2.0586c6.6211 2.7426 10.801 1.854 12.658-2.628 1.4346-3.4634 0.4547-6.5009-2.9345-8.9788l3.5039-8.4532-3.5477-8.4532c3.3892-2.478 4.4129-5.5592 2.9783-9.0226-1.1603-2.8013-3.213-4.184-6.2195-4.1609zm-186.1 0.0437c-0.75917 0.0513-1.4309 0.19109-2.0586 0.43799-0.14871 0.0584-0.29648 0.14957-0.43799 0.21899-1.3586 0.66687-2.3698 1.8232-3.0659 3.5039-1.4346 3.4634-0.45477 6.5009 2.9345 8.9788l-3.5039 8.4532 3.5039 8.4094c-3.3892 2.478-4.3692 5.5592-2.9345 9.0226 1.8565 4.482 6.0368 5.3267 12.658 2.5842l4.9931-2.0586c-1.3823-1.7327-2.5454-3.774-3.5039-6.0881-1.5829-3.8216-2.1695-7.8399-1.7958-11.694v-0.0876c-0.43551-3.9449 0.17112-8.0788 1.7958-12.001 0.95841-2.314 2.1217-4.3553 3.5039-6.0881l-4.9931-2.0586c-2.4248-1.0044-4.525-1.5006-6.3071-1.533-0.26728-0.004-0.53535-0.0171-0.78839 0zm34.645 47.04c-3.8229 3.9117-4.8099 9.1315-2.4966 14.716 1.6707 4.0335 4.872 7.1128 8.6284 8.4532 1.1387 0.40938 2.1318 0.67236 3.1973 0.74458 0.0718 1.0672 0.33457 2.1007 0.74459 3.2411 1.3403 3.7564 4.4197 6.9139 8.4532 8.5846 5.5862 2.3139 10.762 1.3315 14.673-2.4966l-8.6722-3.6353c-5.0623-2.0969-7.4242-3.9125-8.9788-6.964-0.62384-1.2053-1.0595-2.4783-1.2264-3.8105-0.001-0.0126 0-0.0296 0-0.0437-1.3116-0.17091-2.6226-0.52396-3.8105-1.1388-3.0515-1.5546-4.8234-3.8727-6.9203-8.935l-3.5915-8.716zm117.38 0.0437-3.5477 8.6722c-2.0969 5.0623-3.9563 7.4242-7.0078 8.9788-1.2053 0.6238-2.4783 1.0157-3.8105 1.1826-0.0126 0.001 0.0126 0.0425 0 0.0437-0.17095 1.3116-0.52397 2.5788-1.1388 3.7667-1.5547 3.0515-3.9165 4.8234-8.9788 6.9202l-8.716 3.6356c3.918 3.8323 9.1248 4.8127 14.716 2.4966 4.0335-1.6708 7.1128-4.8282 8.4532-8.5846 0.41103-1.1433 0.67343-2.1711 0.74459-3.2411 1.0669-0.0719 2.101-0.29089 3.2411-0.70078 3.7564-1.3404 6.9138-4.4635 8.5846-8.497 2.3168-5.5932 1.2996-10.76-2.5404-14.673zm-128.86 19.272-4.9931 2.0586c-4.1382 1.7141-6.5868 3.7448-7.402 6.1319-0.48918 1.4323-0.38962 3.0058 0.30659 4.6865 1.4346 3.4634 4.2608 4.8929 8.4094 4.2485l3.5477 8.4532 8.4094 3.5039c-0.64439 4.1487 0.82893 7.0186 4.2923 8.4532 4.482 1.8565 8.0758-0.51809 10.818-7.1392l2.0586-4.9931c-2.2027-0.24779-4.4749-0.83729-6.7889-1.7958-3.869-1.6026-7.1648-4.099-9.6358-7.1393-3.0794-2.4836-5.6101-5.8203-7.2268-9.7234-0.95231-2.2984-1.5448-4.5564-1.7958-6.7451zm140.42 0c-0.24774 2.2027-0.83728 4.431-1.7958 6.7451-1.6195 3.9097-4.1866 7.2881-7.2706 9.7672-2.4761 3.0392-5.7701 5.4942-9.6358 7.0955-2.2984 0.95228-4.5564 1.5885-6.745 1.8396l2.0586 4.9493c2.7426 6.6212 6.3363 8.9958 10.818 7.1392 3.4633-1.4346 4.8929-4.3045 4.2485-8.4532l8.4532-3.5039 3.5039-8.4532c4.1487 0.64437 7.0186-0.78514 8.4532-4.2485 1.8565-4.482-0.5181-8.0758-7.1392-10.818l-4.9493-2.0586zm-93.73 14.716c0.0467 5.4836 2.9912 9.8593 8.5846 12.176 4.0335 1.6707 8.5284 1.6208 12.132-0.0876 1.0963-0.51651 1.9976-1.0921 2.8031-1.7958 0.80449 0.70234 1.7084 1.28 2.8031 1.7958 3.604 1.7084 8.0112 1.7584 12.045 0.0876 5.5909-2.3158 8.5283-6.6982 8.5846-12.176l-8.6722 3.6355c-5.0623 2.0969-7.9994 2.5038-11.256 1.4454-1.2934-0.41117-2.4878-1.0594-3.5477-1.8834-1.06 0.82406-2.2543 1.4723-3.5477 1.8834-3.257 1.0584-6.1503 0.6515-11.213-1.4454l-8.716-3.6353zm5.5187 21.812-2.0586 4.9931c-2.7426 6.6212-1.8541 10.801 2.628 12.658 3.4634 1.4346 6.5009 0.41089 8.9788-2.9783l8.4532 3.5039 8.4532-3.5039c2.4779 3.3892 5.5154 4.4129 8.9788 2.9783 4.482-1.8565 5.3706-6.0368 2.6279-12.658l-2.1024-4.9931c-1.7327 1.3823-3.7303 2.5454-6.0443 3.5039-3.9031 1.6167-8.0293 2.2194-11.957 1.7958-3.9028 0.40013-8.0444-0.19319-11.913-1.7958-2.2985-0.95204-4.3192-2.1338-6.0443-3.5039z"/>
        <path id="path10369" d="m341.96 437.79c-1.9691 8.0465-3.1973 19.008-3.1973 31.141 0 7.9235 0.54164 15.358 1.4454 21.812l-15.505 15.505 20.892 20.936c0.72924-1.6983-0.32357-13.403 4.3799-13.403s3.6945 11.704 4.4237 13.403l20.848-20.936-15.461-15.505c0.90361-6.4536 1.3578-13.889 1.3578-21.812 0-12.134-1.1541-23.095-3.1097-31.141-2.0037 2.1556 3.9651 35.171-8.059 35.171s-6.0116-33.015-8.0152-35.171zm-85.802 17.082c-1.0262 2.7583 17.109 30.963 6.0005 35.565-11.109 4.6014-18.172-28.208-20.848-29.433 1.26 8.1875 4.3355 18.792 8.9788 30.002 3.0322 7.3203 6.3748 14.005 9.6796 19.622l-8.4094 20.235 27.331 11.344c0.0238-1.8481-5.4404-12.26-1.095-14.06 4.3454-1.7999 7.918 9.397 9.2416 10.687l11.213-27.287-20.191-8.4094c-1.6348-6.3082-4.0635-13.353-7.0954-20.673-4.6433-11.21-9.918-20.908-14.804-27.593zm187.64 0c-4.8985 6.6804-10.205 16.296-14.848 27.506-3.0322 7.3203-5.3729 14.452-7.0079 20.761l-20.279 8.3656 11.256 27.331c1.3236-1.29 4.8525-12.487 9.1978-10.687 4.3455 1.7999-1.0311 12.211-1.0074 14.06l27.243-11.344-8.3218-20.235c3.3045-5.6166 6.5602-12.302 9.592-19.622 4.6433-11.21 7.7503-21.776 9.0226-29.959-2.676 1.2248-9.8271 33.991-20.936 29.389-11.109-4.6014 7.1143-32.806 6.0881-35.565zm-93.818 34.163c6.0829 0 10.994 4.9983 10.994 11.081 0 6.0829-4.9107 10.994-10.994 10.994-6.0829 0-10.994-4.9107-10.994-10.994 0-6.0829 4.9107-11.081 10.994-11.081zm-77.349 15.417c4.294 0.0516 8.3717 2.6616 10.118 6.8764 2.3278 5.6198-0.33684 12.038-5.9567 14.366-5.6198 2.3278-12.038-0.33682-14.366-5.9567-2.3278-5.6198 0.29303-12.126 5.9129-14.454 1.405-0.58195 2.861-0.84938 4.2923-0.83218zm154.7 0c1.4296-0.0158 2.8436 0.25025 4.2485 0.83218 5.62 2.3278 8.2844 8.7901 5.9567 14.41-2.3279 5.6198-8.7462 8.2845-14.366 5.9567-5.6197-2.3278-8.2844-8.7463-5.9567-14.366 1.1639-2.8099 3.3508-4.8605 5.9567-5.9567 1.3029-0.54812 2.7313-0.86013 4.1609-0.87598zm104.07 5.1245c-7.0821 4.2973-15.685 11.174-24.265 19.753-5.6028 5.6027-10.485 11.266-14.41 16.468h-21.943l-0.0435 29.564c1.7165-0.68525 9.2446-9.6767 12.57-6.3509 3.3259 3.3259-5.6217 10.854-6.3071 12.57l29.521-0.0437 0.0435-21.9c5.2024-3.9244 10.779-8.8514 16.381-14.454 8.5797-8.5797 15.49-17.148 19.797-24.221-2.9411 0.1075-22.069 27.643-30.572 19.14-8.5024-8.5023 19.12-27.587 19.228-30.528zm-362.83 0.0437c0.1075 2.9411 27.73 22.026 19.228 30.528-8.5024 8.5024-27.631-19.077-30.572-19.184 4.2973 7.0821 11.174 15.685 19.753 24.265 5.6027 5.6027 11.266 10.529 16.468 14.454v21.9l29.564 0.0437c-0.68524-1.7165-9.6767-9.2883-6.3509-12.614 3.3258-3.3259 10.854 5.7094 12.57 6.3947l-0.0437-29.564h-21.9c-3.9244-5.2024-8.8952-10.779-14.497-16.381-8.5797-8.5797-17.148-15.534-24.221-19.841zm324.46 38.675c2.827-0.0156 5.6457 1.0467 7.7962 3.1973 4.3014 4.3013 4.2573 11.291-0.0435 15.592-4.3013 4.3012-11.247 4.3013-15.549 0-4.3011-4.3012-4.3011-11.247 0-15.549 2.1506-2.1506 4.9693-3.2256 7.7962-3.2411zm-286.05 0.0437c2.8192 0.008 5.6018 1.0905 7.7524 3.2411 4.3012 4.3012 4.3012 11.247 0 15.549-4.3012 4.3012-11.247 4.3012-15.549 0-4.3012-4.3012-4.3012-11.291 0-15.592 2.1506-2.1506 4.977-3.2051 7.7962-3.1973zm-98.373 45.42c1.2248 2.6761 34.034 9.7395 29.433 20.848-4.6014 11.109-32.807-7.0705-35.565-6.0443 6.6804 4.8985 16.34 10.205 27.55 14.848 7.3203 3.0322 14.408 5.4168 20.717 7.0516l8.4094 20.235 27.331-11.256c-1.29-1.3236-12.531-4.8962-10.731-9.2416 1.7999-4.3454 12.211 1.1188 14.06 1.095l-11.35-27.26-20.23 8.37c-5.6166-3.3045-12.346-6.5162-19.666-9.5482-11.21-4.6433-21.776-7.794-29.959-9.0664zm482.75 0c-8.1876 1.26-18.792 4.2917-30.002 8.935-7.3204 3.0322-13.961 6.3748-19.578 9.6796l-20.279-8.3656-11.344 27.287c1.8481 0.0238 12.26-5.3966 14.06-1.0512 1.7999 4.3454-9.397 7.8742-10.687 9.1978l27.331 11.256 8.4094-20.235c6.3082-1.6348 13.353-4.0635 20.673-7.0954 11.21-4.6433 20.908-9.8742 27.593-14.76-2.7584-1.0262-31.007 17.109-35.609 6.0005-4.6014-11.109 28.208-18.172 29.433-20.848zm-428.31 20.235c1.4234-0.004 2.8436 0.25019 4.2485 0.83218 5.6198 2.3278 8.2845 8.7463 5.9567 14.366-2.3278 5.6198-8.7463 8.2845-14.366 5.9567-5.6198-2.3278-8.2845-8.7901-5.9567-14.41 1.1639-2.8099 3.3929-4.8411 6.0005-5.9129 1.3039-0.53556 2.6937-0.82752 4.1171-0.83218zm373.91 0c4.3073 0.0195 8.3717 2.574 10.118 6.7888 2.3277 5.6198-0.38067 12.038-6.0006 14.366-5.6199 2.3278-12.038-0.33685-14.366-5.9567-2.3277-5.6198 0.29307-12.038 5.913-14.366 1.4049-0.58196 2.9003-0.83866 4.336-0.83218zm-383.07 63.114-15.461 15.505c-6.4536-0.90346-13.933-1.3578-21.856-1.3578-12.134 0-23.095 1.1541-31.141 3.1097 2.1556 2.0037 35.171-4.0089 35.171 8.0152s-33.015 6.0554-35.171 8.059c8.0465 1.9691 19.008 3.1535 31.141 3.1535 7.9235 0 15.402-0.49783 21.856-1.4016l15.461 15.461 20.936-20.848c-1.6983-0.72924-13.403 0.27976-13.403-4.4237s11.704-3.6507 13.403-4.3799l-20.936-20.892zm392.22 0-20.936 20.892c1.6983 0.72924 13.403-0.32357 13.403 4.3799s-11.704 3.6945-13.403 4.4237l20.936 20.848 15.505-15.461c6.4535 0.90361 13.889 1.3578 21.812 1.3578 12.134 0 23.095-1.1541 31.141-3.1097-2.1556-2.0037-35.171 3.9651-35.171-8.059s33.015-6.0116 35.171-8.0152c-8.0464-1.9691-19.008-3.1973-31.141-3.1973-7.9235 0-15.358 0.54164-21.812 1.4454l-15.505-15.505zm-398.35 14.278c6.0829 0 10.994 4.9107 10.994 10.994 0 6.0829-4.9107 10.994-10.994 10.994-6.0829 0-11.037-4.9107-11.037-10.994 0-6.0829 4.9545-10.994 11.037-10.994zm404.48 0c6.0828 0 11.081 4.9107 11.081 10.994 0 6.0829-4.9983 10.994-11.081 10.994-6.083 0-10.994-4.9107-10.994-10.994 0-6.0829 4.9107-10.994 10.994-10.994zm-393.1 62.72-8.3656 20.235c-6.3082 1.6348-13.397 4.0635-20.717 7.0954-11.21 4.6433-20.864 9.918-27.55 14.804 2.7583 1.0262 30.963-17.153 35.565-6.0443 4.6014 11.109-28.208 18.216-29.433 20.892 8.1875-1.26 18.792-4.3793 30.002-9.0226 7.3203-3.0322 14.005-6.331 19.622-9.6358l20.235 8.3656 11.344-27.287c-1.8481-0.0238-12.26 5.3966-14.06 1.0512s9.397-7.8304 10.687-9.154l-27.331-11.3zm381.67 0-27.331 11.256c1.2901 1.3237 12.487 4.8524 10.687 9.1978-1.7999 4.3455-12.167-1.0749-14.016-1.0512l11.344 27.287 20.235-8.3656c5.6166 3.3045 12.302 6.6039 19.622 9.6358 11.21 4.6433 21.776 7.7501 29.959 9.0226-1.2252-2.6759-34.034-9.7833-29.433-20.892 4.6014-11.109 32.85 7.0705 35.609 6.0443-6.6804-4.8986-16.34-10.248-27.55-14.892-7.3203-3.0322-14.409-5.373-20.717-7.0079l-8.4094-20.235zm-377.59 14.673c4.2845 0.0289 8.328 2.574 10.074 6.7889 2.3278 5.6198-0.33684 12.038-5.9567 14.366-5.6198 2.3278-12.038-0.29306-14.366-5.9129-2.3278-5.6198 0.33682-12.038 5.9567-14.366 1.405-0.58195 2.8641-0.8856 4.2923-0.87598zm373.52 0c1.4306-0.0184 2.8874 0.25025 4.2923 0.83218 5.6199 2.3279 8.3724 8.7899 6.0443 14.41-2.3279 5.6199-8.8338 8.2407-14.454 5.9129-5.6197-2.3278-8.2846-8.7462-5.9567-14.366 1.1639-2.8099 3.3592-4.837 5.9567-5.9129 1.2987-0.53796 2.6864-0.85759 4.1171-0.87598zm-313.73 54.311-29.564 0.0437 0.0437 21.9c-5.2023 3.9244-10.822 8.8952-16.425 14.497-8.5797 8.5797-15.534 17.148-19.841 24.221 2.9411-0.10736 22.069-27.73 30.572-19.228 8.5024 8.5024-19.077 27.631-19.184 30.572 7.0822-4.2973 15.685-11.174 24.265-19.753 5.6027-5.6027 10.529-11.266 14.454-16.468h21.856l0.0437-29.564c-1.7166 0.68526-9.2444 9.6768-12.57 6.3509-3.3258-3.3258 5.6656-10.854 6.3509-12.57zm253.95 0.0437c0.68537 1.7166 9.6767 9.2445 6.3509 12.57-3.3259 3.3259-10.854-5.6655-12.57-6.3509l0.0435 29.564h21.9c3.9245 5.2024 8.8513 10.822 14.454 16.425 8.5796 8.5797 17.148 15.49 24.221 19.797-0.10792-2.9411-27.686-22.069-19.184-30.572 8.5023-8.5024 27.631 19.12 30.572 19.228-4.2974-7.0822-11.174-15.729-19.753-24.308-5.6026-5.6027-11.266-10.485-16.468-14.41v-21.9l-29.564-0.0437zm-269.99 11.24c2.8115 0 5.6018 1.0905 7.7524 3.2411 4.3013 4.3013 4.3012 11.247 0 15.549-4.3012 4.3012-11.247 4.3012-15.549 0-4.3012-4.3012-4.3012-11.247 0-15.549 2.1506-2.1506 4.9847-3.2411 7.7962-3.2411zm286.01 0.0437c2.8116 0 5.6457 1.0467 7.7962 3.1973 4.3013 4.3013 4.3454 11.335 0.0435 15.636-4.3013 4.3012-11.291 4.2137-15.592-0.0876-4.3011-4.3012-4.3013-11.247 0-15.549 2.1506-2.1506 4.941-3.1973 7.7524-3.1973zm-214.13 28.119-27.287 11.344 8.4094 20.235c-3.3045 5.6166-6.56 12.346-9.592 19.666-4.6433 11.21-7.794 21.82-9.0664 30.002 2.6762-1.2247 9.7833-34.078 20.892-29.477 11.109 4.6015-7.0705 32.807-6.0443 35.565 4.8986-6.6804 10.205-16.296 14.848-27.506 3.0322-7.3203 5.4168-14.452 7.0516-20.761l20.191-8.3656-11.256-27.331c-1.3237 1.29-4.8523 12.487-9.1978 10.687-4.3454-1.7999 1.075-12.211 1.0512-14.06zm142.26 0.0437c-0.0238 1.8481 5.3528 12.26 1.0074 14.06-4.3455 1.8-7.8304-9.4408-9.154-10.731l-11.3 27.374 20.235 8.3218c1.6348 6.3082 4.1073 13.397 7.1392 20.717 4.6433 11.21 9.8742 20.908 14.76 27.593 1.0262-2.7583-17.153-30.963-6.0443-35.565 11.109-4.6014 18.216 28.164 20.892 29.389-1.26-8.1875-4.3355-18.749-8.9789-29.959-3.0322-7.3203-6.3748-14.049-9.6796-19.666l8.3656-20.191-27.243-11.344zm-75.51 14.979-20.892 20.936 15.505 15.461c-0.9036 6.4536-1.3578 13.933-1.3578 21.856 0 12.134 1.1541 23.095 3.1097 31.141 2.0037-2.1556-4.0089-35.171 8.0152-35.171s6.0554 33.015 8.059 35.171c1.9691-8.0465 3.1535-19.008 3.1535-31.141 0-7.9235-0.49783-15.402-1.4016-21.856l15.461-15.461-20.848-20.936c-0.72924 1.6983 0.27976 13.403-4.4237 13.403s-3.6507-11.704-4.3799-13.403zm-73.101 0.70078c1.4247-0.004 2.8436 0.2502 4.2485 0.83218 5.6199 2.3278 8.2845 8.7462 5.9567 14.366s-8.7462 8.2845-14.366 5.9567-8.2844-8.7463-5.9567-14.366c1.1639-2.8099 3.403-4.8808 6.0005-5.9567 1.2987-0.53795 2.6924-0.82811 4.1171-0.83218zm154.96 0c4.2845 0.0289 8.3279 2.574 10.074 6.7889 2.3278 5.6199-0.33684 12.082-5.9567 14.41-5.6198 2.3278-12.038-0.38064-14.366-6.0005-2.3278-5.6198 0.33686-12.038 5.9567-14.366 1.405-0.58194 2.8641-0.84178 4.2923-0.83218zm-77.481 15.373c6.0829 0 10.994 4.9107 10.994 10.994 0 6.0829-4.9107 11.037-10.994 11.037-6.0829 0-10.994-4.9545-10.994-11.037 0-6.0829 4.9107-10.994 10.994-10.994z" fill="url(#radialGradient10978)"/>
      </g>
    </g>
  </g>
  <metadata>
    <rdf:RDF>
      <cc:Work>
        <dc:format>image/svg+xml</dc:format>
        <dc:type rdf:resource="http://purl.org/dc/dcmitype/StillImage"/>
        <cc:license rdf:resource="http://creativecommons.org/licenses/publicdomain/"/>
        <dc:publisher>
          <cc:Agent rdf:about="http://openclipart.org/">
            <dc:title>Openclipart</dc:title>
          </cc:Agent>
        </dc:publisher>
        <dc:title>thing 2</dc:title>
        <dc:date>2013-06-16T00:54:07</dc:date>
        <dc:description>another inkscape experiment</dc:description>
        <dc:source>http://openclipart.org/detail/179354/thing-2-by-rematuche-179354</dc:source>
        <dc:creator>
          <cc:Agent>
            <dc:title>rematuche</dc:title>
          </cc:Agent>
        </dc:creator>
        <dc:subject>
          <rdf:Bag>
            <rdf:li>abstract</rdf:li>
            <rdf:li>magic</rdf:li>
            <rdf:li>mandala</rdf:li>
            <rdf:li>religion</rdf:li>
            <rdf:li>rune</rdf:li>
            <rdf:li>runic</rdf:li>
            <rdf:li>spell</rdf:li>
          </rdf:Bag>
        </dc:subject>
      </cc:Work>
      <cc:License rdf:about="http://creativecommons.org/licenses/publicdomain/">
        <cc:permits rdf:resource="http://creativecommons.org/ns#Reproduction"/>
        <cc:permits rdf:resource="http://creativecommons.org/ns#Distribution"/>
        <cc:permits rdf:resource="http://creativecommons.org/ns#DerivativeWorks"/>
      </cc:License>
    </rdf:RDF>
  </metadata>
</svg>
