<?xml version="1.0" encoding="utf-8"?>
<svg id="woman" width="86" height="380" viewBox="202.71499633789062 584.406982421875 86 380.0480041503906" preserveAspectRatio="xMidYMid meet" xmlns="http://www.w3.org/2000/svg">
  <defs id="svgEditorDefs">
    <path id="svgEditorClosePathDefs" class="lines" fill="black" style="stroke-width: 0px; stroke: none;"/>
    <linearGradient id="linearGradient10954" y2="353.8" gradientUnits="userSpaceOnUse" x2="498.75" gradientTransform="matrix(0.936791, -0.859291, 0.85927, 0.93681, -1308.604957, 462.789813)" y1="750.29" x1="498.75">
      <stop id="stop10854" style="stop-color:#391b0f" offset="0"/>
      <stop id="stop10856" style="stop-color:#5b2318" offset="0.1099"/>
      <stop id="stop10858" style="stop-color:#5b2318" offset="0.2747"/>
      <stop id="stop10860" style="stop-color:#905036" offset="1"/>
    </linearGradient>
  </defs>
  <g transform="matrix(0.062748, 0, 0, 0.062748, 259.277222, 754.585327)">
    <title id="title10187">American Football</title>
    <g id="layer6">
      <g id="g11074">
        <path id="path10183" style="stroke:#391b0f;stroke-width:2;fill:url(#linearGradient10954)" d="M -528.822 471.224 C -318.882 278.654 -586.923 205.91 -526.177 179.67 C -163.25 22.902 -37.497 58.382 -16.717 62.777 C 18.007 70.12 8.478 70.104 29.985 95.785 C 51.492 121.466 64.234 122.772 65.007 164.173 C 65.645 198.383 70.988 370.503 4.657 521.453 C -61.673 672.413 -108.373 710.033 -168.623 765.303 C -228.873 820.563 -366.193 908.173 -519.193 939.413 C -598.463 955.603 -817.223 947.063 -831.223 929.073 C -836.86 920.813 -845.384 911.593 -852.155 906.573 C -867.343 890.013 -877.522 855.353 -879.103 826.703 C -880.684 798.053 -892.251 636.813 -818.555 480.583 C -744.863 324.343 -648.165 242.483 -648.165 242.483 L -528.822 471.224 Z"/>
        <path id="path10193" style="fill:#ffffff" d="M -826.642 498.52 C -843.971 538.787 -855.893 579.022 -864.028 616.91 C -859.209 626.799 -853.336 638.683 -851.641 641.287 C -848.984 645.367 -841.775 648.517 -841.775 648.517 C -841.775 648.517 -842.017 654.188 -834.984 661.856 C -827.951 669.524 -734.674 779.486 -699.064 820.676 C -663.456 861.866 -638.482 886.725 -635.236 890.264 C -633.377 892.291 -629.81 894.693 -626.984 896.44 C -611.441 892.142 -586.156 884.866 -567.684 878.109 C -541.898 868.677 -525.951 862.129 -516.43 857.941 C -517.359 854.415 -519.248 849.501 -522.9 846.949 C -528.96 842.709 -624.33 742.319 -672.33 686.429 C -720.33 630.549 -791.1 551.009 -794.34 547.479 C -797.586 543.94 -797.763 534.285 -797.763 534.285 C -797.763 534.285 -800.738 538.103 -808.263 528.715 C -815.788 519.327 -821.611 509.479 -824.218 504.268 C -824.848 503.009 -825.699 500.916 -826.641 498.512 Z"/>
        <path id="path10195" style="fill:#ffffff" d="M -356.067 77.767 C -348.427 79.208 -339.599 81.471 -333.768 84.859 C -323.651 90.737 -326.538 89.105 -317.834 97.412 C -311.676 103.287 -314.185 104.212 -316.189 104.259 C -312.763 104.454 -303.203 105.252 -300.529 108.168 C -297.283 111.707 -218.303 189.906 -166.759 242.548 C -115.218 295.188 -35.489 390.408 -31.799 396.798 C -29.86 400.158 -26.443 402.69 -23.607 404.378 C -17.306 393.033 -2.679 366.073 6.111 344.451 C 12.526 328.672 17.725 315.099 21.248 305.769 C 20.985 301.515 20.388 297.485 19.053 296.03 C 15.807 292.491 -36.693 227.655 -74.66 188.63 C -112.65 149.6 -175.91 89.955 -182.95 82.29 C -189.982 74.622 -200.732 74.128 -200.732 74.128 C -200.732 74.128 -201.126 67.541 -204.927 64.5 C -212.552 58.397 -221.778 55.12 -229.721 53.336 C -265.806 56.996 -308.905 64.214 -356.091 77.769 Z"/>
        <path id="path10214" style="stroke: rgb(184, 184, 184); fill: rgb(238, 238, 238);" d="M -768.058 458.116 C -770.048 455.493 -770.406 453.967 -767.679 448.603 C -764.952 443.238 -761.389 437.921 -758.523 434.321 C -755.657 430.721 -752.433 428.647 -750.422 425.499 C -748.412 422.352 -745.406 415.247 -742.52 411.146 C -739.634 407.045 -734.001 402.348 -732.648 399.916 C -731.294 397.484 -729.622 392.31 -724.347 386.087 C -719.073 379.865 -715.629 377.552 -713.878 375.644 C -712.126 373.737 -710.753 370.804 -705.677 364.319 C -700.602 357.834 -697.178 356.022 -694.332 352.923 C -691.486 349.824 -692.441 347.51 -685.713 341.621 C -678.986 335.733 -674.747 334.469 -672.119 331.608 C -669.492 328.747 -667.203 323.859 -662.028 320.14 C -656.853 316.421 -652.872 316.398 -649.409 313.584 C -645.946 310.771 -643.677 306.384 -639.995 303.332 C -636.313 300.281 -625.764 293.105 -623.057 293.51 C -620.35 293.916 -618.48 294.274 -616.49 296.897 C -614.5 299.52 -618.54 301.046 -622.202 303.597 C -625.865 306.147 -630.005 310.177 -631.756 312.084 C -633.508 313.991 -638.763 319.713 -641.35 321.573 C -643.938 323.433 -649.292 326.389 -653.809 329.393 C -658.327 332.397 -660.398 337.046 -664.757 341.314 C -669.116 345.581 -675.942 348.704 -677.714 351.112 C -679.485 353.52 -684.8 360.745 -687.208 363.368 C -689.616 365.99 -695.03 370.448 -697.22 372.833 C -699.409 375.217 -704.345 383.467 -706.953 385.826 C -709.56 388.187 -713.899 391.954 -717.203 396.031 C -720.508 400.108 -722.418 406.021 -725.942 410.336 C -729.465 414.652 -733.804 418.419 -736.69 422.52 C -739.576 426.621 -740.154 430.602 -743.498 435.681 C -746.842 440.759 -750.325 444.073 -753.43 448.413 C -756.535 452.752 -758.785 456.639 -760.397 460.31 C -762.009 463.982 -763.124 465.675 -764.298 463.601 C -765.472 461.526 -768.059 458.116 -768.059 458.116 Z"/>
        <path id="path10216" style="stroke:#b8b8b8;fill:#ffffff" d="M -774.187 442.8 C -776.395 439.85 -779.391 437.126 -772.772 428.069 C -766.154 419.013 -763.271 418.358 -761.558 420.768 C -759.846 423.177 -750.99 434.459 -743.826 442.813 C -736.661 451.167 -725.194 462.042 -721.972 465.555 C -718.75 469.068 -718.682 473.482 -718.613 477.897 C -718.543 482.311 -717.889 485.194 -723.813 484.16 C -729.737 483.126 -735.616 481.056 -742.104 475.066 C -748.593 469.077 -762.786 455.23 -765.738 451.47 C -768.69 447.709 -774.187 442.801 -774.187 442.801 Z"/>
        <path id="path10218" style="stroke:#b8b8b8;fill:#ffffff" d="M -735.897 391.25 C -737.835 388.052 -738.399 383.097 -734.82 378.321 C -731.24 373.545 -729.011 370.008 -726.691 370.368 C -724.371 370.727 -722.907 372.867 -720.451 376.087 C -717.995 379.307 -714.119 385.702 -705.197 395.43 C -696.275 405.157 -689.697 409.074 -685.979 413.127 C -682.261 417.18 -676.405 419.768 -677.349 423.62 C -678.294 427.471 -678.743 431.864 -681.648 433.036 C -684.553 434.208 -694.125 433.535 -701.628 426.983 C -709.13 420.431 -721.183 411.088 -726.387 405.413 C -731.592 399.739 -735.896 391.249 -735.896 391.249 Z"/>
        <path id="path10224" style="stroke:#b8b8b8;fill:#ffffff" d="M -493.047 155.73 C -488.315 154.07 -484.189 155.646 -478.363 161.024 C -472.536 166.402 -450.162 187.873 -447.047 191.27 C -443.931 194.667 -439.641 203.24 -440.287 207.407 C -440.933 211.574 -446.31 217.4 -451.367 215.783 C -456.423 214.167 -463.341 212.471 -467.146 203.452 C -470.951 194.433 -490.29 178.219 -493.851 174.337 C -497.411 170.454 -501.778 174.46 -505.339 170.578 C -508.899 166.697 -509.709 163.865 -504.937 161.275 C -500.165 158.685 -493.047 155.73 -493.047 155.73 Z"/>
        <path id="path10228" style="stroke:#b8b8b8;fill:#ffffff" d="M -442.377 126.23 C -435.259 123.275 -430.567 122.545 -426.076 126.468 C -421.585 130.39 -394.154 153.478 -390.674 159.22 C -387.193 164.962 -383.348 173.051 -384.924 177.177 C -386.5 181.303 -384.92 187.896 -396.288 181.346 C -407.656 174.797 -414.493 171.24 -419.348 164.972 C -424.204 158.704 -428.779 145.924 -436.02 140.951 C -443.262 135.978 -445.203 137.759 -447.913 135.778 C -450.624 133.797 -446.622 127.445 -446.622 127.445 Z"/>
        <path id="path10230" style="stroke:#b8b8b8;fill:#ffffff" d="M -689.937 322.93 C -686.54 319.814 -687.025 320.259 -681.684 326.082 C -676.343 331.905 -674.603 334.777 -667.037 343.025 C -659.471 351.275 -656.64 350.465 -651.299 356.287 C -645.958 362.11 -641.387 364.172 -638.797 368.943 C -636.207 373.716 -635.762 374.201 -637.864 379.702 C -639.965 385.204 -650.239 385.693 -661.001 375.908 C -671.763 366.122 -692.762 345.177 -696.283 340.365 C -699.803 335.552 -698.187 330.496 -695.801 329.201 C -693.415 327.905 -689.938 322.929 -689.938 322.929 Z"/>
      </g>
    </g>
  </g>
</svg>