<svg class="hair" width="97.31735229492188" height="76.3599853515625" viewBox="185.247 1570.21 97.3174 76.36" xmlns="http://www.w3.org/2000/svg"><path class="hair" id="path2242" style="fill:#3872c1;fill-opacity:1;fill-rule:nonzero;stroke:none" d="m 2010.01,7272 c -23.96,34.6 -14.64,74.6 -14.64,74.6 26.64,-32 123.86,-79.9 123.86,-79.9 -47.11,62.4 -60.31,167.2 -63.92,212.4 -5.18,-9.3 -13.34,-14.7 -27.35,-10.1 -5.27,-28.2 -14.84,-56.4 -31.6,-78.8 -54.29,-72.8 -100.49,-68.2 -130.51,-80.9 -10.58,-4.5 -21.15,-9.7 -32.22,-14.8 l -0.04,-6.9 c 0,-5.5 -1.09,-10.7 -3.15,-15.6 4.77,-1.9 9.4,-4.1 13.91,-6.3 41.74,-13.8 95.08,-15 95.08,-15 -11.99,17.3 -7.99,45.3 -7.99,45.3 34.63,-21.3 78.57,-24 78.57,-24" transform="matrix(0.13333330353101044, 0, 0, -0.13333330353101044, 0, 2613.333251953125)"/><path class="hair" id="path2244" style="fill:#3872c1;fill-opacity:1;fill-rule:nonzero;stroke:none" d="m 1494.45,7598.7 c 1.05,-1.4 2.22,-2.6 3.36,-4 3.92,-4.5 8.16,-8.9 12.93,-13.2 l 0.49,0.9 27.67,47.2 27.11,-47.6 24.84,-43.6 h 7.19 l 25.72,44 27.68,47.2 27.13,-47.6 24.84,-43.6 h 7.17 l 25.72,44 27.7,47.2 27.11,-47.6 24.84,-43.6 h 7.17 l 25.74,44 27.68,47.2 27.11,-47.6 24.84,-43.6 h 7.19 l 25.72,44 27.7,47.2 27.11,-47.6 1.62,-2.8 c 4.61,3.9 8.73,8 12.61,12.2 0.1,-0.7 0.2,-1.6 0.32,-2.5 7.65,2.8 19.72,5.7 30.19,1 1.82,36.5 1.74,71.3 -5.64,85.7 l -0.84,1.6 c -21.6,73.9 -140.92,146.2 -286.86,146.2 -151.56,0 -277.93,-78 -292.85,-154.8 -5.62,-19.2 -10.27,-45.2 -13.81,-72.4 10.76,8.1 24.51,5.6 33.5,2.5" transform="matrix(0.13333330353101044, 0, 0, -0.13333330353101044, 0, 2613.333251953125)"/><path class="hair" id="path2246" style="fill:#3872c1;fill-opacity:1;fill-rule:nonzero;stroke:none" d="m 1694.1,7287.6 v 7 c -11.06,5 -21.59,10.2 -32.15,14.7 -30.02,12.7 -76.23,8.1 -130.51,80.9 -18.55,24.8 -28.32,56.7 -33.16,87.9 -31.49,-9.9 -32.86,31.7 -38.44,51.8 -1.17,4.2 -2.76,8.4 -4.38,12.5 -1.4,-18.9 -2.16,-36.2 -2.16,-49.3 0,-2.4 0.13,-4.8 0.23,-7.2 -3.3,-43.6 -16.13,-151.5 -64.18,-215.2 0,0 97.23,47.9 123.87,79.9 0,0 9.33,-40 -14.63,-74.6 0,0 43.94,2.7 78.57,24 0,0 3.99,-28 -7.99,-45.3 0,0 49.32,1.1 90.22,13.4 5.51,-1.4 11.17,-2.6 16.84,-3.8 6.6,3.3 13.43,6.3 20.58,8.8 -1.74,4.6 -2.71,9.5 -2.71,14.5" transform="matrix(0.13333330353101044, 0, 0, -0.13333330353101044, 0, 2613.333251953125)"/></svg>