<svgclass="hair" style="z-index:4;" width="132.26666259765625" height="90.1865234375" viewBox="167.7731452.51132.26790.1865" xmlns="http://www.w3.org/2000/svg" ><pathid="path2322" style="fill:#f58615;fill-opacity:1;fill-rule:nonzero;stroke:none" d="m2222.23,8312.7c3.99,8.15.88,12.85.88,12.8-1.74,4.5-3.51,8.8-5.28,13.218.15,7.427.47,28.418.81,46.3-8.11,18.2-30.23,24.8-47.57,15.6h-0.02c17.64,9.124.54,30.814.29,48.1-10.21,17.4-32.77,21.9-49.03,10.816.59,10.820.95,33.28.76,49.5-12.23,16.2-35.24,17.9-50.08,4.8l-0.02,0.1c15.22,12.916.61,35.72.32,50.4-14.58,14.4-37.5,13.1-50.44,-2h-0.02c13.21,14.911.36,37.8-5.1,50.3-16.64,12.2-39.28,7.4-49.65,-9.5h-0.01c10.81,16.75.46,39.2-12.91,48.9-18.32,9.7-39.99,1.2-47.55,-17.18.03,18.1-0.84,39.6-20.47,46.2-19.64,6.6-39.68,-5.1-44.24,-24.5h-0.01c5.08,19.2-7.02,39-27.41,42.5-20.39,3.5-38.35,-11.2-39.91,-312.1,19.8-12.9,37.4-33.6,37.8-20.73,0.3-36.37,-17.1-34.67,-36.91.68,19.8-13.94,37.2-34.68,36.9-20.71,-0.4-35.69,-18-33.6,-37.8h-0.01c-1.55,19.8-19.52,34.5-39.9,31-20.38,-3.5-32.49,-23.3-27.41,-42.5-4.57,19.4-24.61,31.1-44.26,24.5-19.61,-6.6-28.49,-28.1-20.47,-46.2h-0.01c-7.54,18.3-29.22,26.8-47.53,17.1-18.36,-9.7-23.72,-32.2-12.9,-48.9h-0.01c-10.39,16.9-33.03,21.7-49.67,9.5-16.45,-12.5-18.29,-35.4-5.09,-50.3h-0.02c-12.95,15.1-35.85,16.4-50.45,2-14.26,-14.7-12.9,-37.52.33,-50.4l-0.02,-0.1c-14.84,13.1-37.85,11.4-50.08,-4.8-12.19,-16.3-7.82,-38.78.76,-49.5-16.27,11.1-38.82,6.6-49.04,-10.8-10.24,-17.3-3.35,-3914.31,-48.1h-0.01c-17.37,9.2-39.48,2.6-47.59,-15.6-8.65,-17.90.64,-38.918.82,-46.3-1.79,-4.4-3.56,-8.7-5.3,-13.20,01.89,-4.75.9,-12.8-17.99,-8.4-24.57,-31.3-13.44,-49.711.39,-17.934.32,-22.150.3,-10.1h0.03c-15.89,-11.5-19.31,-35.1-5.2,-50.913.32,-16.337.33,-16.250.99,-2.4l0.04,-0.1c-13.95,-13.8-13.8,-37.52.57,-50.915.63,-14.239.13,-10.750.72,5.1h0.06c-11.54,-15.5-7.92,-39.210.13,-5018.26,-10.840.42,-549.42,12.7l0.01,-0.1c-9.54,-17.5-1.62,-38.817.58,-47.718.77,-9.540.51,1.846.9,19.8l0.08,-0.1c-6.37,-18.23.99,-39.324.01,-44.920.28,-4.839.77,7.143.74,26.3h0.07c-3.59,-17.36.62,-3523.71,-39.917.4,15.737.34,2860.19,36.1-1.73,4.5-2.72,9.4-2.72,14.4v7c-11.05,5-21.58,10.3-32.14,14.7-30.04,12.7-76.23,8.1-130.5,80.9-18.56,24.8-28.33,56.7-33.18,87.9-31.49,-9.9-32.84,31.7-38.43,51.8-5.78,20.8-21.18,39.7-4.23,61.212.31,15.732.14,10.442.06,6.40.17,-1.10.29,-1.70.29,-1.79.64,-0.718.94,-0.828.07,-0.50.43,-2018.34,-35.940.34,-31.722.17,2.333.83,24.927.97,42.9h0.02c5.69,-18.727.7,-29.547.48,-19.420.62,8.625.6,33.115.11,49h0.05c10.57,-16.734.13,-2150.67,-6.917.07,13.516.77,37.72.78,51h0.02c1.53,-1.53.22,-2.84.94,-42.2,-7.36.78,-14.113.92,-18.817.12,-1240.07,-5.949.54,11.2h0.03c-10.23,-17.3-3.39,-39.215.54,-48.519.45,-8.640.7,0.247.31,19.3h0.02c-6.76,-18.23.51,-4024.76,-44.821.03,-5.440.36,8.742.55,28.4h0.08c-2.51,-18.912.66,-38.834.94,-37.522.22,-0.437.3,18.934.27,38.2h0.03c2.56,-18.822.94,-34.143.88,-26.42.47,0.64.7,1.66.82,2.60.53,-2.70.74,-4.10.74,-4.10,00.38,-2.50.92,-6.910.33,3.928.75,7.840.4,-716.95,-21.61.54,-40.4-4.23,-61.2-5.61,-20.2-6.97,-62.2-38.97,-51.7-5.26,-28.2-14.85,-56.4-31.61,-78.8-54.28,-72.8-100.48,-68.2-130.49,-80.9-10.59,-4.4-21.16,-9.7-32.23,-14.7l-0.04,-7c0,-5.5-1.1,-10.7-3.14,-15.618.1,-7.134.36,-17.249.01,-29.710.51,7.816.06,21.413.28,34.7h0.07c3.99,-19.223.46,-31.143.75,-26.320,5.630.38,26.724.01,44.9l0.05,0.1c6.41,-1828.16,-29.346.92,-19.819.2,8.927.12,30.217.58,47.7v0.1c9.01,-17.731.17,-23.549.42,-12.718.06,10.821.67,34.510.15,50h0.06c11.58,-15.835.08,-19.350.72,-5.116.37,13.416.51,37.12.56,50.9l0.06,0.1c13.63,-13.837.65,-13.950.97,2.414.11,15.810.7,39.4-5.19,50.9h0.02c15.99,-1238.9,-7.850.29,10.111.15,18.44.55,41.3-13.42,49.7" transform="matrix(0.1333333035310105,0,0,-0.1333333035310105,4.547473508864641e-13,2613.333251953125)" /></svg>