<svgclass="hair" style="z-index:4;" width="75.51715087890625" height="84.2266845703125" viewBox="756.7391563.5275.517284.2267" xmlns="http://www.w3.org/2000/svg" ><pathid="path2176" style="fill:#f0ef1d;fill-opacity:1;fill-rule:nonzero;stroke:none" d="m6196.88,7243.3h14.73l2.67,229.4c-5.17,-29-17.47,-62.6-34.7,-85.7-54.28,-72.7-100.48,-68.1-130.5,-80.8-11.11,-4.7-20.23,-8.8-31.92,-14l-1.99,-7.7c0,-16.9-10.59,-31.7-26.94,-41.2h73.2l1.02,1.612.69,20.811.63,-21.40.57,-1h33.04l14.65,40.313.98,-40.3h31.18l8.82,14.47.87,-14.4" transform="matrix(0.13333330353101047,0,0,-0.13333330353101047,0,2613.333251953125)" /><pathid="path2178" style="fill:#f0ef1d;fill-opacity:1;fill-rule:nonzero;stroke:none" d="m5880.32,7283.1v7.8c-10.46,4.7-20.45,9.7-30.49,14-30.03,12.7-76.22,8-130.5,80.8-23.47,31.4-37.98,75.3-41.13,113.6l2.67,-257.4h13.18l8.83,14.57.85,-14.5h72.48l0.21,0.412.68,20.711.49,-21.1h99.46c-16.26,9.5-26.73,24.3-26.73,41.2" transform="matrix(0.13333330353101047,0,0,-0.13333330353101047,0,2613.333251953125)" /><pathid="path2180" style="fill:#f0ef1d;fill-opacity:1;fill-rule:nonzero;stroke:none" d="m5679.53,7585.9c0,012.65,9281.24,133.273.25,43.9153.18,-21.3190.46,-54.60,098.56,87.9179.8,50.639.35,-18.171.84,-56.583.91,-125.20,026.98,271.7-267.37,239.70,0-272.03,44-268.04,-243.7" transform="matrix(0.13333330353101047,0,0,-0.13333330353101047,0,2613.333251953125)" /></svg>