<?xml version="1.0" encoding="utf-8"?>
<svg class="hair" style="z-index:4;" width="80.1650390625" height="45.466552734375" viewBox="29.5797 1708.28 80.165 45.4666" xmlns="http://www.w3.org/2000/svg">
  <path id="path2124" style="fill:#987a44;fill-opacity:1;fill-rule:nonzero;stroke:none" d="m 719.977,6697.3 c -3.559,3.6 -7.457,7.2 -11.559,10.7 18.098,0.6 30.191,-4 30.191,-4 -83.765,77.3 -161.418,73.2 -191.871,69.4 1.168,8.7 2.754,14.5 2.754,14.5 -14.945,-5.3 -26.957,-16.4 -33.414,-23.3 -1.785,-0.8 -3.457,-1.8 -5.062,-2.8 -34.508,24.8 -87.7,19.6 -129.34,4.8 -43.262,-15.5 -70.598,-44 -70.598,-44 35.969,8 30.641,6.7 30.641,6.7 -119.871,-86.6 -95.895,-258.4 -95.895,-258.4 17.305,90.5 97.219,143.8 97.219,143.8 l 13.328,-51.9 47.945,65.2 27.973,-55.9 53.27,51.9 17.316,-50.6 41.781,68.4 42.121,-64.4 40.664,52 39.961,-81.3 21.313,68 c 0,0 79.199,-78.6 96.515,-169.2 0,0 37.856,145.2 -65.253,250.4" transform="matrix(0.13333330353101047, 0, 0, -0.13333330353101047, 0, 2613.333251953125)"/>
</svg>