<?xml version="1.0" encoding="utf-8"?>
<svg class="hair" style="z-index:4;" width="77.71463012695312" height="112.68017578125" viewBox="336.743 1916.19 77.7146 112.68" xmlns="http://www.w3.org/2000/svg">
  <path id="path2304" style="fill:#3872c1;fill-opacity:1;fill-rule:nonzero;stroke:none" d="m 2758.8,4643.4 c -1.64,4.5 -2.6,9.2 -2.6,14.1 l 0.01,6.9 c -11.04,5 -21.58,10.3 -32.15,14.8 -30.03,12.7 -76.22,8.1 -130.5,80.8 -18.55,24.9 -28.34,56.7 -33.16,88 -13.69,-4.4 -21.72,1 -26.83,10.2 -8,-187.8 8.8,-426.7 8.8,-426.7 0,-26.5 21.47,-48 47.95,-48 h 9.75 c 20.64,117.6 64.71,224.9 158.73,259.9" transform="matrix(0.13333330353101047, 0, 0, -0.13333330353101047, 7.105427357601002e-15, 2613.333251953125)"/>
  <path id="path2306" style="fill:#3872c1;fill-opacity:1;fill-rule:nonzero;stroke:none" d="m 3090.09,4838.9 c -5.28,-28.2 -14.87,-56.4 -31.62,-78.9 -54.28,-72.7 -100.47,-68.1 -130.49,-80.8 -10.59,-4.5 -21.15,-9.8 -32.25,-14.8 l -0.02,-6.9 c 0,-4.7 -1.17,-10 -2.71,-14.3 89.9,-40.9 133.92,-141.8 156.81,-259.7 22.02,4.3 41.29,24.7 41.29,48 l 13.19,406.2 c -3.91,-1 -8.62,-0.7 -14.2,1.2" transform="matrix(0.13333330353101047, 0, 0, -0.13333330353101047, 7.105427357601002e-15, 2613.333251953125)"/>
  <path id="path2308" style="fill:#3872c1;fill-opacity:1;fill-rule:nonzero;stroke:none" d="m 2586.1,5042.2 c 58.3,-27.5 132.37,-40.7 231.98,-40.7 96.83,0 184.06,17.1 245.91,44.5 22.74,-44.5 27.97,-80.4 27.97,-80.4 0,0 0.37,-2.5 0.92,-6.9 4.16,1.6 9.63,3.1 15.43,3.5 l 0.12,3.3 c 0,17.5 -12.19,65 -28.07,95.5 -24.82,84.7 -110.43,163.5 -252.97,165.6 -135.84,2 -235.93,-61.4 -265.04,-171.8 -2.5,-6.5 -14.63,-48.4 -19.47,-83.4 6.84,-0.5 13.16,-2.5 17.44,-4.3 1.17,6.8 7.21,37.5 25.78,75.1" transform="matrix(0.13333330353101047, 0, 0, -0.13333330353101047, 7.105427357601002e-15, 2613.333251953125)"/>
</svg>