<svg class="hair" style="z-index:4;" width="72.60406494140625" height="77.919921875" viewBox="612.9061569.2972.604177.9199" xmlns="http://www.w3.org/2000/svg" ><pathid="path2170" style="fill:#7c91d2;fill-opacity:1;fill-rule:nonzero;stroke:none" d="m4608.92,7601.4c17.83,44.472.79,9172.79,9167.92,-24140.84,-85.9140.84,-85.95,12-19.97,53-19.97,5339.95,-1768.91,-8968.91,-8922.98,6969.93,8469.93,84-10.99,-9-7.99,-44-7.99,-4438.96,53.9150.84,72.9150.84,72.942.95,-46.956.93,-114.956.93,-114.90.13,5.3-0.04,10.4-0.14,15.5-4.69,243.1-256.58,244.3-256.58,244.3-287.68,2-280.68,-245.8-280.68,-245.80.42,3.54.45,17.35.12,18.9" transform="matrix(0.13333330353101047,0,0,-0.13333330353101047,0,2613.333251953125)" /><pathid="path2172" style="fill:#7c91d2;fill-opacity:1;fill-rule:nonzero;stroke:none" d="m5123.47,7245.9h14.74l-2,226.8c-5.17,-29.1-12.81,-59.9-30.04,-83-54.28,-72.8-100.48,-68.2-130.5,-80.9-11.11,-4.7-20.22,-8.7-31.91,-14l-2,-7.7c0,-16.9-10.59,-31.7-26.93,-41.2h73.18l1.02,1.712.7,20.711.64,-21.30.57,-1.1h33.03l14.66,40.313.99,-40.3h31.15l8.84,14.47.86,-14.4" transform="matrix(0.13333330353101047,0,0,-0.13333330353101047,0,2613.333251953125)" /><pathid="path2174" style="fill:#7c91d2;fill-opacity:1;fill-rule:nonzero;stroke:none" d="m4802.25,7287.1v7.7c-10.44,4.8-20.45,9.8-30.48,14-30.04,12.7-76.22,8.1-130.5,80.9-23.48,31.4-35.33,74.6-38.48,112.9v-256.7h13.2l8.82,14.47.86,-14.4h72.48l0.19,0.312.7,20.811.48,-21.1h99.45c-16.25,9.5-26.72,24.3-26.72,41.2" transform="matrix(0.13333330353101047,0,0,-0.13333330353101047,0,2613.333251953125)" /></svg>