<svg class="hair" style="z-index:4;" width="77.71463012695312" height="112.68017578125" viewBox="336.7431916.1977.7146112.68" xmlns="http://www.w3.org/2000/svg" ><pathid="path2304" style="fill:#3872c1;fill-opacity:1;fill-rule:nonzero;stroke:none" d="m2758.8,4643.4c-1.64,4.5-2.6,9.2-2.6,14.1l0.01,6.9c-11.04,5-21.58,10.3-32.15,14.8-30.03,12.7-76.22,8.1-130.5,80.8-18.55,24.9-28.34,56.7-33.16,88-13.69,-4.4-21.72,1-26.83,10.2-8,-187.88.8,-426.78.8,-426.70,-26.521.47,-4847.95,-48h9.75c20.64,117.664.71,224.9158.73,259.9" transform="matrix(0.13333330353101047,0,0,-0.13333330353101047,7.105427357601002e-15,2613.333251953125)" /><pathid="path2306" style="fill:#3872c1;fill-opacity:1;fill-rule:nonzero;stroke:none" d="m3090.09,4838.9c-5.28,-28.2-14.87,-56.4-31.62,-78.9-54.28,-72.7-100.47,-68.1-130.49,-80.8-10.59,-4.5-21.15,-9.8-32.25,-14.8l-0.02,-6.9c0,-4.7-1.17,-10-2.71,-14.389.9,-40.9133.92,-141.8156.81,-259.722.02,4.341.29,24.741.29,48l13.19,406.2c-3.91,-1-8.62,-0.7-14.2,1.2" transform="matrix(0.13333330353101047,0,0,-0.13333330353101047,7.105427357601002e-15,2613.333251953125)" /><pathid="path2308" style="fill:#3872c1;fill-opacity:1;fill-rule:nonzero;stroke:none" d="m2586.1,5042.2c58.3,-27.5132.37,-40.7231.98,-40.796.83,0184.06,17.1245.91,44.522.74,-44.527.97,-80.427.97,-80.40,00.37,-2.50.92,-6.94.16,1.69.63,3.115.43,3.5l0.12,3.3c0,17.5-12.19,65-28.07,95.5-24.82,84.7-110.43,163.5-252.97,165.6-135.84,2-235.93,-61.4-265.04,-171.8-2.5,-6.5-14.63,-48.4-19.47,-83.46.84,-0.513.16,-2.517.44,-4.31.17,6.87.21,37.525.78,75.1" transform="matrix(0.13333330353101047,0,0,-0.13333330353101047,7.105427357601002e-15,2613.333251953125)" /></svg>