<svg class="hair" width="96.69464111328125" height="72.813232421875" viewBox="339.643 1461.21 96.6946 72.8132" xmlns="http://www.w3.org/2000/svg"><path class="hair" id="path2460" style="fill:#211d1d;fill-opacity:1;fill-rule:nonzero;stroke:none" d="m 2673.29,8168.4 c -18.56,24.9 -28.32,56.7 -33.17,87.9 -31.49,-9.9 -32.85,31.7 -38.45,51.9 -5.77,20.7 -21.16,39.6 -4.22,61.2 12.52,15.9 32.88,10.1 42.59,6.1 1.02,5.9 5.65,29.5 18.79,60 39.44,-48.7 137.41,-83.2 252.09,-83.2 108.34,0 201.79,30.8 245.05,75.2 12.48,-31.2 15.72,-53.5 15.72,-53.5 0,0 0.39,-2.5 0.9,-6.9 10.37,3.9 28.77,7.8 40.41,-7 16.95,-21.5 1.54,-40.4 -4.24,-61.2 -5.61,-20.2 -6.95,-62.2 -38.95,-51.6 -5.27,-28.3 -14.86,-56.5 -31.6,-78.9 -6.66,-8.9 -13.2,-16.6 -19.59,-23.4 27.25,-13.2 53.26,-29 77.54,-47.2 47.81,57 76.37,128.7 76.37,206.5 0,185.9 -162.34,336.6 -362.6,336.6 -200.28,0 -362.61,-150.7 -362.61,-336.6 0,-79.2 29.57,-152 78.93,-209.5 21.28,15.8 46.53,31.7 71.65,45.2 -7.99,7.9 -16.2,17.1 -24.61,28.4" transform="matrix(0.1333333035310105, 0, 0, -0.1333333035310105, 4.547473508864641e-13, 2613.333251953125)"/></svg>