<svgclass="hair" style="z-index:4;" width="71.4713134765625" height="37.0263671875" viewBox="33.35841828.6971.471337.0264" xmlns="http://www.w3.org/2000/svg" ><pathid="path2072" style="fill:#7a3e1a;fill-opacity:1;fill-rule:nonzero;stroke:none" d="m785.652,5624.1c0.571,21.9-4.683,63.7-41.172,118.4-1.074,1.6-9.019,12.9-12.167,17.1h-0.016c-30.918,39.9-71.274,73.1-124.516,85.9-163.828,39.3-258.14,-29.8-266.363,-37.3-62.617,-48.6-82.324,-130.1-88.652,-168.3-0.571,-2.8-1.118,-5.5-1.645,-8.3l0.141,-1.8c-0.824,-6.3-1.074,-10-1.074,-1029.957,18.642.554,33.743.082,34.1-5.465,-18.5-1.153,-28.8-1.153,-28.830.61,9.167.602,43.870.625,46.1-7.344,-31.5-8.008,-50.8-8.008,-50.85.704,2.162.715,44.567.246,48-2.71,-23.1-3.984,-44.6-3.984,-44.625.317,11.959.301,41.665.449,47.513.325,-25.647.09,-52.247.09,-52.20,15.3-0.152,54.1-0.469,56.626.914,-39.653.071,-52.653.071,-52.60,10.60.679,31.31.636,39.7-0.093,1.3-0.195,2.5-0.308,3.720.703,-21.963.941,-41.463.941,-41.40.664,12.6-1.328,22.6-1.465,36.3l-0.347,1.2c22.301,-25.368.418,-43.568.418,-43.50,9.31.465,29.7-1.977,44.518.36,-17.349.301,-4570.57,-56.50,01.7,5.82.032,16.4l0.054,0.3-0.039,0.3" transform="matrix(0.13333330353101047,0,0,-0.13333330353101047,2.842170943040401e-14,2613.3332519531255)" /></svg>