<svg class="hair" style="z-index:4;" width="80.1650390625" height="45.466552734375" viewBox="29.57971708.2880.16545.4666" xmlns="http://www.w3.org/2000/svg" ><pathid="path2124" style="fill:#987a44;fill-opacity:1;fill-rule:nonzero;stroke:none" d="m719.977,6697.3c-3.559,3.6-7.457,7.2-11.559,10.718.098,0.630.191,-430.191,-4-83.765,77.3-161.418,73.2-191.871,69.41.168,8.72.754,14.52.754,14.5-14.945,-5.3-26.957,-16.4-33.414,-23.3-1.785,-0.8-3.457,-1.8-5.062,-2.8-34.508,24.8-87.7,19.6-129.34,4.8-43.262,-15.5-70.598,-44-70.598,-4435.969,830.641,6.730.641,6.7-119.871,-86.6-95.895,-258.4-95.895,-258.417.305,90.597.219,143.897.219,143.8l13.328,-51.947.945,65.227.973,-55.953.27,51.917.316,-50.641.781,68.442.121,-64.440.664,5239.961,-81.321.313,68c0,079.199,-78.696.515,-169.20,037.856,145.2-65.253,250.4" transform="matrix(0.13333330353101047,0,0,-0.13333330353101047,0,2613.333251953125)" /></svg>