<?xml version="1.0" encoding="utf-8"?>
<svg class="hair" style="z-index:4;" width="75.51715087890625" height="84.2266845703125" viewBox="756.739 1563.52 75.5172 84.2267" xmlns="http://www.w3.org/2000/svg">
  <path id="path2176" style="fill:#f0ef1d;fill-opacity:1;fill-rule:nonzero;stroke:none" d="m 6196.88,7243.3 h 14.73 l 2.67,229.4 c -5.17,-29 -17.47,-62.6 -34.7,-85.7 -54.28,-72.7 -100.48,-68.1 -130.5,-80.8 -11.11,-4.7 -20.23,-8.8 -31.92,-14 l -1.99,-7.7 c 0,-16.9 -10.59,-31.7 -26.94,-41.2 h 73.2 l 1.02,1.6 12.69,20.8 11.63,-21.4 0.57,-1 h 33.04 l 14.65,40.3 13.98,-40.3 h 31.18 l 8.82,14.4 7.87,-14.4" transform="matrix(0.13333330353101047, 0, 0, -0.13333330353101047, 0, 2613.333251953125)"/>
  <path id="path2178" style="fill:#f0ef1d;fill-opacity:1;fill-rule:nonzero;stroke:none" d="m 5880.32,7283.1 v 7.8 c -10.46,4.7 -20.45,9.7 -30.49,14 -30.03,12.7 -76.22,8 -130.5,80.8 -23.47,31.4 -37.98,75.3 -41.13,113.6 l 2.67,-257.4 h 13.18 l 8.83,14.5 7.85,-14.5 h 72.48 l 0.21,0.4 12.68,20.7 11.49,-21.1 h 99.46 c -16.26,9.5 -26.73,24.3 -26.73,41.2" transform="matrix(0.13333330353101047, 0, 0, -0.13333330353101047, 0, 2613.333251953125)"/>
  <path id="path2180" style="fill:#f0ef1d;fill-opacity:1;fill-rule:nonzero;stroke:none" d="m 5679.53,7585.9 c 0,0 12.65,92 81.24,133.2 73.25,43.9 153.18,-21.3 190.46,-54.6 0,0 98.56,87.9 179.8,50.6 39.35,-18.1 71.84,-56.5 83.91,-125.2 0,0 26.98,271.7 -267.37,239.7 0,0 -272.03,44 -268.04,-243.7" transform="matrix(0.13333330353101047, 0, 0, -0.13333330353101047, 0, 2613.333251953125)"/>
</svg>