<svg id="hairBack4" class="hairBack" width="105px" height="216px" viewBox="466.22900390625 1460.4615478515625 216.23077392578125 428.5384521484375" xmlns="http://www.w3.org/2000/svg"><path class="hairBack" id="path2232" style="fill: rgb(92, 39, 144); fill-opacity: 1; fill-rule: nonzero; stroke: none;" d="M 643.942 1561.978 C 643.942 1504.013 604.159 1457 555.084 1457 C 506.014 1457 466.229 1504.013 466.229 1561.978 C 466.229 1581.541 470.769 1599.856 478.65 1615.519 L 521.552 1615.519 C 526.227 1610.992 531.642 1607.454 537.925 1605.191 C 537.482 1603.994 537.229 1602.719 537.229 1601.419 L 537.232 1599.597 C 534.415 1598.295 531.726 1596.942 529.037 1595.772 C 521.383 1592.467 509.608 1593.666 495.775 1574.725 C 491.044 1568.272 488.558 1559.973 487.321 1551.857 C 479.294 1554.432 478.948 1543.609 477.526 1538.38 C 476.05 1532.968 472.127 1528.051 476.445 1522.458 C 479.014 1519.128 482.86 1519.44 485.565 1520.247 C 485.869 1531.121 486.341 1547.851 486.341 1547.851 L 486.703 1546.809 L 497.949 1513.897 L 611.203 1513.897 L 622.808 1547.851 C 622.808 1547.851 623.127 1536.792 623.405 1526.802 C 623.446 1525.475 623.478 1524.149 623.514 1522.873 C 626.21 1521.938 630.538 1521.208 633.335 1524.852 C 637.658 1530.471 633.73 1535.362 632.256 1540.774 C 630.82 1546.056 630.482 1556.955 622.323 1554.224 C 620.985 1561.56 618.54 1568.898 614.269 1574.725 C 600.434 1593.666 588.656 1592.467 581.005 1595.772 C 578.309 1596.942 575.62 1598.322 572.795 1599.624 L 572.787 1601.419 C 572.787 1602.849 572.502 1604.202 571.985 1605.502 C 577.65 1607.766 582.608 1611.2 586.969 1615.519 L 631.518 1615.519 C 639.398 1599.856 643.942 1581.541 643.942 1561.978"/><path class="hairBack" d="M 469.433 1661.353 C 466.477 1677.538 470.608 1683.047 471.819 1688.662 C 475.578 1706.076 484.974 1703.813 481.831 1722.024 C 477.689 1746.027 467.769 1766.966 470.307 1790.493 C 470.744 1794.552 477.932 1813.651 479.54 1817.376 C 480.882 1820.485 483.839 1823.216 484.778 1826.478 C 485.246 1828.109 484.011 1833.118 488.92 1838.24 C 498.709 1848.456 507.653 1858.039 517.083 1868.965 C 521.826 1874.461 542.51 1872.428 549.386 1874.021 C 553.444 1874.964 575.31 1879.485 571.213 1878.068 C 563.521 1875.406 557.171 1870.929 554.626 1868.965 C 546.818 1862.934 537.068 1847.447 533.67 1837.607 C 533.232 1836.338 539.612 1845.07 543.925 1850.287 C 545.223 1851.858 539.221 1836.36 540.655 1837.607 C 550.927 1846.532 560.526 1842.245 572.086 1846.71 C 573.315 1847.182 578.422 1848.958 579.946 1850.757 C 598.962 1873.229 567.284 1836.593 565.975 1833.56 C 559.015 1817.43 554.626 1802.173 554.626 1781.974 C 554.626 1777.927 554.626 1773.88 554.626 1769.833 C 554.626 1767.782 551.981 1763.766 553.753 1763.766 C 560.169 1763.766 562.505 1772.95 566.36 1778.654 C 572.911 1788.353 585.505 1794.695 593.913 1801.191 C 599.097 1805.196 612.148 1845.226 654.414 1848.36 C 660.542 1848.815 613.229 1814.944 615.285 1815.236 C 670.12 1823.08 669.979 1891.86 669.979 1891.86 C 669.979 1891.86 681.192 1804.028 669.979 1788.768 C 664.64 1781.504 674.544 1759.726 673.259 1750.784 C 669.732 1726.263 660.818 1741.859 658.183 1717.438 C 656.377 1700.694 675.497 1694.406 668.93 1674.911 C 659.151 1645.881 672.332 1637.565 672.889 1611.234 C 673.312 1591.195 668.545 1587.809 668.409 1587.472 C 607.375 1436.219 632.309 1573.261 632.675 1571.04 C 644.399 1500.063 615.634 1498.848 606.111 1503.261 C 600.229 1505.987 616.59 1501.616 612.608 1506.229 C 611.634 1507.357 597.278 1497.06 595.748 1497.06 C 586.968 1497.06 586.568 1500.236 577.703 1496.812 C 573.951 1495.363 548.195 1516.52 545.925 1513.893 C 545.284 1513.148 502.077 1505 501.116 1504.723 C 494.267 1502.739 472.943 1517.2 472.943 1528.316" style="stroke: black; fill: rgb(92, 39, 144); stroke-opacity: 0;"/></svg>