<svg class="hair" width="147.90399169921875" height="52.7332763671875" viewBox="563.651 1815.53 147.904 52.7333" xmlns="http://www.w3.org/2000/svg"><path class="hair" id="path2222" style="fill:#bf1c2d;fill-opacity:1;fill-rule:nonzero;stroke:none" d="m 4995.02,5785.8 c 0,0 193.81,197.7 341.64,-80 0,0 -53.95,38 -95.9,33 0,0 62.93,-30 70.92,-95.9 0,0 -39.94,43 -72.91,44 0,0 44.94,-41 17.97,-98.9 0,0 -48.95,137.8 -223.75,146.8 l -37.97,51" transform="matrix(0.13333330353101047, 0, 0, -0.13333330353101047, 0, 2613.333251953125)"/><path class="hair" id="path2224" style="fill:#bf1c2d;fill-opacity:1;fill-rule:nonzero;stroke:none" d="m 4533.54,5695.9 c 0,0 10.97,172.8 256.71,180.8 0,0 220.75,-7 232.76,-184.8 0,0 -16,25.9 -52.95,67.9 0,0 -12.99,-30 -33.97,-58 0,0 -41.62,30.3 -47.61,55.3 0,0 -5.67,-44.9 -26.64,-59.9 0,0 -32.29,22 -33.3,55.9 0,0 -15.32,-38.6 -41.29,-54.6 0,0 -22.64,32 -26.62,60 0,0 -25.65,-49 -46.63,-60 0,0 -17.98,42.6 -19.98,58.6 0,0 -20.64,-44.6 -50.6,-58.6 0,0 -8.34,28 -9.34,56 0,0 -25.62,-46.7 -44.61,-55.6 0,0 -6.66,37.6 -0.66,55.6 2.24,6.7 -55.27,-58.6 -55.27,-58.6" transform="matrix(0.13333330353101047, 0, 0, -0.13333330353101047, 0, 2613.333251953125)"/><path class="hair" id="path2226" style="fill:#f5f013;fill-opacity:1;fill-rule:nonzero;stroke:none" d="m 5045.16,5779.5 c 9.8,-21 5.62,-43.7 -9.38,-50.7 -14.98,-7 -35.1,4.3 -44.92,25.3 -9.82,21 -5.63,43.7 9.35,50.7 15,7 35.1,-4.3 44.95,-25.3" transform="matrix(0.13333330353101047, 0, 0, -0.13333330353101047, 0, 2613.333251953125)"/><path class="hair" id="path2228" style="fill:#bf1c2d;fill-opacity:1;fill-rule:nonzero;stroke:none" d="m 4569,5785.8 c 0,0 -193.79,197.7 -341.62,-80 0,0 53.95,38 95.9,33 0,0 -62.93,-30 -70.92,-95.9 0,0 39.96,43 72.91,44 0,0 -44.94,-41 -17.97,-98.9 0,0 48.95,137.8 223.75,146.8 l 37.95,51" transform="matrix(0.13333330353101047, 0, 0, -0.13333330353101047, 0, 2613.333251953125)"/><path class="hair" id="path2230" style="fill:#f5f013;fill-opacity:1;fill-rule:nonzero;stroke:none" d="m 4518.89,5779.5 c -9.81,-21 -5.63,-43.7 9.35,-50.7 15,-7 35.12,4.3 44.92,25.3 9.85,21 5.65,43.7 -9.35,50.7 -14.98,7 -35.1,-4.3 -44.92,-25.3" transform="matrix(0.13333330353101047, 0, 0, -0.13333330353101047, 0, 2613.333251953125)"/></svg>