<svg width="102.8519287109375" height="90.666748046875" viewBox="449.287 1913.93 102.852 90.6667" xmlns="http://www.w3.org/2000/svg"><path id="path2300" style="fill:#50abe4;fill-opacity:1;fill-rule:nonzero;stroke:none" d="m 4139.12,4792.8 c 1.92,21.2 -16.64,37.5 -35.7,36.6 v 0 c 19.31,0.9 35.7,18.7 32.28,39.8 -2.28,21.3 -21.5,34.8 -41.07,30.7 l -0.02,0.1 c 19.1,3.7 31.99,23.8 25.98,44.4 -6.45,20.5 -26.66,31.2 -45.55,23.9 h -0.02 c 18.59,6.7 27.23,28.4 18.61,48.2 -9.98,19.1 -32.01,26.3 -49,16.1 17.36,9.7 21.89,32.4 10.08,50.6 -8.79,11.7 -22.13,16.7 -34.46,14.9 -1.29,3 -3.24,6.1 -5.95,9.4 2.95,11.5 -0.41,24.6 -10.06,34.8 -10.7,9.9 -24.67,12.4 -36.41,8.5 -1.89,3.6 -4.67,7 -8.01,10.2 -0.17,11.1 -6.03,22.3 -16.89,30 -12.91,7.7 -27.52,7.1 -38.24,0.5 -2.54,4.6 -6.06,8.5 -10.28,11.7 -3.26,9.6 -10.95,18.1 -22.16,22.9 -14.3,4.5 -28.27,1 -37.27,-7.6 -3.46,3.9 -7.99,7 -13.24,9 -5.45,8.5 -14.81,15 -26.7,17 -15.12,1 -27.99,-5.8 -34.71,-16.4 -3.94,2.3 -8.32,3.8 -12.93,4 -7.2,8.2 -18.63,13.2 -31.77,12.4 -18.07,-3.1 -30.42,-16.4 -31.59,-31.7 -1.42,0.7 -2.99,1.2 -4.65,1.6 -8.45,11.5 -24.53,16.9 -40.95,11.7 -18.15,-7.7 -27.4,-25.1 -22.87,-41.5 l -0.18,-2.1 c -9.86,14.4 -30.29,18.9 -47.64,8.5 -17.3,-12.2 -21.99,-33.4 -10.89,-49 l -1.08,0.5 c -12.52,13.1 -34.2,13.8 -49.33,-0.2 -11.78,-12.4 -14.16,-29.2 -7.15,-42 0.02,-1.7 0.13,-3.4 0.39,-4.9 -14.38,6.8 -32.66,2.5 -43.73,-12.2 -11.82,-18.2 -7.29,-40.9 10.09,-50.6 -17.01,10.2 -39.02,3 -49.02,-16.1 -8.59,-19.8 0.04,-41.5 18.61,-48.2 v 0 c -18.9,7.3 -39.1,-3.4 -45.54,-23.9 -6.02,-20.6 6.87,-40.7 25.95,-44.4 v -0.1 c -19.57,4.1 -38.78,-9.4 -41.09,-30.7 -3.4,-21.1 12.97,-38.9 32.31,-39.8 v 0 c -19.07,0.9 -37.62,-15.4 -35.71,-36.6 1.23,-21.3 18.23,-36.7 37.85,-34.5 v 0 c -20.21,-2 -33.67,-20.6 -29.64,-41.6 3.14,-21.2 23.12,-33.5 42.55,-28.3 h 0.02 c -19.08,-5 -29.55,-25.5 -23.24,-46 7.09,-20 29.32,-28.8 46.9,-21 3.02,-6.7 6.13,-13.4 9.45,-19.9 h 21.97 c 0,-19.8 15.57,-36 34.75,-36 19.18,0 34.72,16.2 34.72,36 0,-19.8 15.57,-36 34.75,-36 4.82,0 9.43,1.1 13.61,2.9 6.21,8.8 12.91,17 20.02,24.5 0.67,2.8 1.12,5.7 1.12,8.6 0,-2.3 0.25,-4.5 0.64,-6.7 19.83,20.6 43.26,36.7 70.98,46.4 -1.74,4.6 -2.74,9.5 -2.74,14.5 v 7 c -11.03,5 -21.56,10.2 -32.14,14.7 -30.02,12.7 -76.22,8.1 -130.49,80.9 -18.56,24.8 -28.32,56.7 -33.17,87.9 -31.48,-9.9 -32.85,31.7 -38.43,51.8 -5.79,20.8 -21.2,39.7 -4.24,61.2 10.08,12.9 25.17,11.6 35.78,8.5 1.19,-41.8 3.05,-106.1 3.05,-106.1 l 1.42,4 35.02,100.4 c 6.23,-6.1 14.61,-9.9 23.87,-9.9 19.26,0 34.9,16.1 34.9,36 0,-19.9 15.61,-36 34.88,-36 19.26,0 34.89,16.1 34.89,36 0,-19.9 15.62,-36 34.9,-36 19.26,0 34.88,16.1 34.88,36 0,-19.9 15.61,-36 34.88,-36 19.26,0 34.89,16.1 34.89,36 0,-19.9 15.62,-36 34.9,-36 19.26,0 34.88,16.1 34.88,36 0,-19.9 15.61,-36 34.88,-36 19.26,0 34.89,16.1 34.89,36 0,-19.9 15.62,-36 34.88,-36 7.89,0 15.08,2.8 20.92,7.4 l 35.54,-101.9 c 0,0 1.24,42.5 2.33,80.9 0.16,5.2 0.31,10.2 0.45,15.1 10.56,3.6 27.54,6.4 38.53,-7.6 16.94,-21.6 1.53,-40.4 -4.23,-61.2 -5.63,-20.3 -6.96,-62.2 -38.97,-51.7 -5.27,-28.2 -14.86,-56.4 -31.62,-78.8 -54.28,-72.8 -100.47,-68.2 -130.49,-80.9 -10.59,-4.5 -21.15,-9.7 -32.25,-14.7 l -0.01,-7 c 0,-5.5 -1.1,-10.7 -3.15,-15.6 27.44,-10.8 50.72,-28.3 70.47,-50.8 1.33,3.8 2.19,7.9 2.19,12.2 0,-19.8 15.56,-36 34.72,-36 19.2,0 34.75,16.2 34.75,36 0,-19.8 15.57,-36 34.75,-36 19.18,0 34.74,16.2 34.74,36 h 21.95 c 3.34,6.5 6.45,13.2 9.48,19.9 17.58,-7.8 39.8,1 46.89,21 6.31,20.5 -4.18,41 -23.24,46 h 0.02 c 19.43,-5.2 39.41,7.1 42.56,28.3 4.02,21 -9.42,39.6 -29.67,41.6 h 0.02 c 19.63,-2.2 36.64,13.2 37.85,34.5" transform="matrix(0.13333330353101047, 0, 0, -0.13333330353101047, 7.105427357601002e-15, 2613.333251953125)"/></svg>