<?xml version="1.0" encoding="utf-8"?>
<svg class="hair" style="z-index:4;" width="79.55599975585938" height="61.533447265625" viewBox="336.211 2059.51 79.556 61.5334" xmlns="http://www.w3.org/2000/svg">
  <path id="path2268" style="fill:#f58615;fill-opacity:1;fill-rule:nonzero;stroke:none" d="m 3118.25,3856.7 c 0,164 -133.57,297 -298.33,297 -164.77,0 -298.34,-133 -298.34,-297 0,-43.9 9.61,-85.4 26.74,-122.9 -0.24,4.5 -0.4,9.1 -0.4,13.7 0,68.7 27.9,135.4 76.92,184 14.24,14.1 30.06,26.4 46.99,36.8 l 181.39,-78.3 -22.64,70.6 c 0,0 106.54,-110.6 193.1,-181.2 l 8.01,63.9 c 0,0 30.6,-43.5 39.37,-136.7 -0.8,-4.8 -1.69,-9.6 -2.75,-14.4 31.54,47.1 49.94,103.6 49.94,164.5" transform="matrix(0.13333330353101047, 0, 0, -0.13333330353101047, 7.105427357601002e-15, 2613.333251953125)"/>
</svg>