<svgclass="hair" style="z-index:4;" width="97.31735229492188" height="76.3599853515625" viewBox="185.2471570.2197.317476.36" xmlns="http://www.w3.org/2000/svg" ><pathid="path2242" style="fill:#3872c1;fill-opacity:1;fill-rule:nonzero;stroke:none" d="m2010.01,7272c-23.96,34.6-14.64,74.6-14.64,74.626.64,-32123.86,-79.9123.86,-79.9-47.11,62.4-60.31,167.2-63.92,212.4-5.18,-9.3-13.34,-14.7-27.35,-10.1-5.27,-28.2-14.84,-56.4-31.6,-78.8-54.29,-72.8-100.49,-68.2-130.51,-80.9-10.58,-4.5-21.15,-9.7-32.22,-14.8l-0.04,-6.9c0,-5.5-1.09,-10.7-3.15,-15.64.77,-1.99.4,-4.113.91,-6.341.74,-13.895.08,-1595.08,-15-11.99,17.3-7.99,45.3-7.99,45.334.63,-21.378.57,-2478.57,-24" transform="matrix(0.13333330353101044,0,0,-0.13333330353101044,0,2613.333251953125)" /><pathid="path2244" style="fill:#3872c1;fill-opacity:1;fill-rule:nonzero;stroke:none" d="m1494.45,7598.7c1.05,-1.42.22,-2.63.36,-43.92,-4.58.16,-8.912.93,-13.2l0.49,0.927.67,47.227.11,-47.624.84,-43.6h7.19l25.72,4427.68,47.227.13,-47.624.84,-43.6h7.17l25.72,4427.7,47.227.11,-47.624.84,-43.6h7.17l25.74,4427.68,47.227.11,-47.624.84,-43.6h7.19l25.72,4427.7,47.227.11,-47.61.62,-2.8c4.61,3.98.73,812.61,12.20.1,-0.70.2,-1.60.32,-2.57.65,2.819.72,5.730.19,11.82,36.51.74,71.3-5.64,85.7l-0.84,1.6c-21.6,73.9-140.92,146.2-286.86,146.2-151.56,0-277.93,-78-292.85,-154.8-5.62,-19.2-10.27,-45.2-13.81,-72.410.76,8.124.51,5.633.5,2.5" transform="matrix(0.13333330353101044,0,0,-0.13333330353101044,0,2613.333251953125)" /><pathid="path2246" style="fill:#3872c1;fill-opacity:1;fill-rule:nonzero;stroke:none" d="m1694.1,7287.6v7c-11.06,5-21.59,10.2-32.15,14.7-30.02,12.7-76.23,8.1-130.51,80.9-18.55,24.8-28.32,56.7-33.16,87.9-31.49,-9.9-32.86,31.7-38.44,51.8-1.17,4.2-2.76,8.4-4.38,12.5-1.4,-18.9-2.16,-36.2-2.16,-49.30,-2.40.13,-4.80.23,-7.2-3.3,-43.6-16.13,-151.5-64.18,-215.20,097.23,47.9123.87,79.90,09.33,-40-14.63,-74.60,043.94,2.778.57,240,03.99,-28-7.99,-45.30,049.32,1.190.22,13.45.51,-1.411.17,-2.616.84,-3.86.6,3.313.43,6.320.58,8.8-1.74,4.6-2.71,9.5-2.71,14.5" transform="matrix(0.13333330353101044,0,0,-0.13333330353101044,0,2613.333251953125)" /></svg>