<svg class="hair" style="z-index:4;" width="77.2239990234375" height="53.4798583984375" viewBox="742.2281822.0877.22453.4799" xmlns="http://www.w3.org/2000/svg" ><pathid="path2016" style="fill:#4f3724;fill-opacity:1;fill-rule:nonzero;stroke:none" d="m5620.01,5655.30.08,0.30.15,0.1zm-9.38,15.3v2.6l0.32,0.3c-0.12,-1-0.2,-1.9-0.32,-2.9zm533.56,31.9c-1.39,21.4-7.83,41.6-18.42,60-10.9,19.1-29.63,40.7-49.63,50.75.61,30.2-0.31,64.7-0.31,64.7-13.85,-28.2-43.3,-32.6-52.62,-35.3-6.34,-1.312.31,61.312.31,61.3-12.21,-12.8-36.82,-16.3-53.65,-1722.57,18.820.37,35.720.37,35.7-9.59,-10.1-22.82,-15.6-36.14,-18.5-3.12,-0.3-6.29,-0.5-9.68,-0.5-3.66,-0.1-7.33,0-10.98,0.1-4.82,0.8-9.63,1.3-14.51,0.7-6.76,0.5-13.48,1.3-20.14,2.6-27.6,5.3-52.79,18.8-80.62,23.4-25,4-44.65,-5.6-61.51,-20.3-9.67,-6.8-17.97,-15.2-23.42,-24.6l-1.99,-2.4c-65.58,16-121.52,-32.5-145.99,-90.1-14.89,-35-19.83,-75.5-25,-112.9-1.49,-10.8-2.31,-21.4-2.66,-32-2.89,-50.24.12,-109.54.12,-109.50.51,23.720.04,82.128.63,106.70.32,-24.45.65,-59.75.65,-59.70,13.73.01,27.66.17,38.48.01,22.321.76,45.638.75,58.75.45,4.211.56,8.617.44,13.412.21,8.923.4,20.630.57,28.56.95,6.613.69,13.720.27,21.36.76,7.913.38,16.419.61,25.25,6.79.63,13.613.77,20.72.38,-2.64.9,-57.23,-7.21.77,-2.43.75,-4.96.11,-7.48.61,-9.219.37,-16.330.12,-22.9l2.59,-1.6c1.12,-0.72.23,-1.33.33,-232.32,-19.766.11,-34.4103.28,-41.916.75,-3.434.08,-4.651.13,-3.118.85,1.639.51,4.356.93,-4.917.29,-931.43,-21.841.21,-37.37.43,-15.819.28,-45.912.66,-64.60,06.91,5.512.15,20.54,-10.37.48,-20.89.92,-31.72.85,-15.25.2,-37.5-0.76,-54.40,032.42,41.444.78,80.7l0.1,0.3c0.45,1.50.94,31.33,4.50.49,1.61.03,3.11.46,4.76.55,25.47.74,53.16.04,79" transform="matrix(0.13333330353101047,0,0,-0.13333330353101047,0,2613.333251953125)" /></svg>