<svg width="82.754638671875" height="75.5467529296875" viewBox="596.225 1693.24 82.7546 75.5468" xmlns="http://www.w3.org/2000/svg"><path id="path2342" style="fill:#f58615;fill-opacity:1;fill-rule:nonzero;stroke:none" d="m 4636.3,6426.1 11.19,-92 68.34,86.4 83.5,-65.1 -6.47,85.6 86.39,-56.3 -20.16,100.7 132.03,-50.1 -83.83,113.5 185.06,-28.2 -101.23,85.2 71,73.7 -112.03,-26.8 18.67,248 -100.18,-223 -50.6,111.9 -53.28,-125.2 -82.58,103.9 -5.33,-143.8 -109.2,58.6 39.94,-130.6 -135.84,-13.3 98.55,-85.2 -77.24,-34.7 93.22,8.1 -13.3,-93.3 63.38,92" transform="matrix(0.13333330353101047, 0, 0, -0.13333330353101047, 0, 2613.333251953125)"/></svg>