<?xml version="1.0" encoding="utf-8"?>
<svg class="hair" style="z-index:4;" width="90.7197036743164" height="68.4666748046875" viewBox="23.9344 1925.09 90.7197 68.4667" xmlns="http://www.w3.org/2000/svg">
  <path id="path2214" style="fill:#987a44;fill-opacity:1;fill-rule:nonzero;stroke:none" d="m 838.656,4931.4 -113.574,19.2 62.414,163.5 -127.629,-108.6 -2.832,122.8 -97.988,-94.4 -35.371,127.9 -61.153,-130.3 -77.597,96.7 -14.285,-135.8 -130.246,40.9 53.281,-108.7 c -2.422,-1.8 -4.785,-3.7 -7.09,-5.7 l -80.703,19.2 38.535,-65.2 C 179.508,4779.3 200.453,4663 200.453,4663 l 18.672,41 10.168,-39.4 32.02,43 30.011,-42.1 c 19.364,134.3 115.254,168.9 115.254,168.9 l 63.465,-98.4 27.52,81.3 57.5,-85.6 20.812,100.5 101.941,-97.7 -21.445,89.9 c 39.785,-28.8 73.887,-79.6 78.684,-169.4 l 31.972,40.7 29.969,-44.4 11.973,38.8 16.738,-41.8 c 0,0 34.199,149.1 -64.336,250.3 l 77.285,32.8" transform="matrix(0.13333330353101047, 0, 0, -0.13333330353101047, 7.105427357601002e-15, 2613.333251953125)"/>
</svg>