<?xml version="1.0" encoding="utf-8"?><svg width="141.9999542236328" height="73.8934326171875" viewBox="150.905 1690.61 142 73.8934" xmlns="http://www.w3.org/2000/svg"><path id="path2280" style="fill:#593f32;fill-opacity:1;fill-rule:nonzero;stroke:none" d="m 1423.3,6774.2 c 6.2,13.3 16.48,22.6 27,26 -55.71,42.1 -201.5,120.2 -318.51,-99.6 0,0 53.95,38 95.9,33 0,0 -62.93,-30 -70.93,-95.9 0,0 39.95,42.9 72.92,43.9 0,0 -44.95,-40.9 -17.98,-98.9 0,0 47.22,132.7 214.11,146.1 -9.06,9.9 -10.57,28.2 -2.51,45.4" transform="matrix(0.13333330353101047, 0, 0, -0.13333330353101047, 0, 2613.333251953125)"/><path id="path2284" style="fill:#593f32;fill-opacity:1;fill-rule:nonzero;stroke:none" d="m 2100.89,6733.6 c 41.96,5 95.9,-33 95.9,-33 -117.01,219.8 -262.8,141.7 -318.5,99.6 10.51,-3.4 20.8,-12.7 26.99,-26 9.81,-20.9 5.63,-43.6 -9.35,-50.7 -15,-7 -35.11,4.3 -44.92,25.3 -8.45,18.1 -6.48,37.3 3.76,46.9 -48.1,45.2 -112.83,72.9 -184.08,72.9 -75.02,0 -142.8,-30.7 -191.57,-80.3 5.21,-10.4 5.13,-25.2 -1.53,-39.5 -9.82,-21 -29.94,-32.3 -44.94,-25.3 l -0.5,0.4 c -14.32,-27.5 -24.1,-57.7 -28.21,-89.7 0,0 -24.28,-172.1 -3.3,-268 0,0 -4.32,187.6 26.7,268 h 486.19 c 30.22,-81.4 25.98,-266 25.98,-266 19.66,89.8 -0.4,246.6 -3.01,266 h 0.94 c -4.36,33.8 -15.01,65.7 -30.7,94.3 163.7,-15.2 210.14,-145.8 210.14,-145.8 26.96,58 -17.98,98.9 -17.98,98.9 32.97,-1 72.91,-43.9 72.91,-43.9 -7.99,65.9 -70.92,95.9 -70.92,95.9" transform="matrix(0.13333330353101047, 0, 0, -0.13333330353101047, 0, 2613.333251953125)"/><ellipse transform="matrix(0.914452, 0.404678, -0.404706, 0.914456, 150.673191, 1667.925893)" cx="56.818" cy="22.897" rx="4.192" ry="5.519" style="fill: rgb(101, 79, 210);"/><ellipse transform="matrix(0.904728, -0.425994, 0.425981, 0.904737, 188.714948, 1714.103126)" cx="56.818" cy="24.077" rx="4.192" ry="5.803" style="fill: rgb(101, 79, 210);"/></svg>