<svg class="hair" width="42.925323486328125" height="61.760009765625" viewBox="491.249 1577.51 42.9253 61.76" xmlns="http://www.w3.org/2000/svg"><path class="hair" id="path2164" style="fill:#3aa59b;fill-opacity:1;fill-rule:nonzero;stroke:none" d="m 3974.06,7564.5 -1.89,0.5 c -1.02,0.2 -2.03,0.5 -3.07,0.7 -0.94,0.2 -1.81,0.5 -2.81,0.6 l -1.04,0.1 c -10.23,1.5 -20.74,1 -29.31,-4.3 0,0 13.34,45.6 52.91,52.5 0,0 -30.84,25.3 -72.68,4.1 0,0 15.65,63 48.75,82.4 0,0 -40.49,10.5 -86.01,-43.8 0,0 14.72,72.7 31.29,100.8 0,0 -2.43,-0.9 -6.31,-2.6 h -0.18 c -0.72,0.6 -1.66,0.9 -2.64,0.2 -1.75,-1.3 -3.51,-2.7 -5.27,-4 -17.71,-8.8 -47.68,-27.4 -65.63,-58 0,0 -1.39,44.1 4.14,75 0,0 -28.52,-15.2 -59.34,-110 0,0 -10.59,14.3 -11.96,36.4 0,0 -34.04,-51.1 -16.11,-174.8 0,0 -46.91,37.7 -62.53,57 0,0 100.25,-223.5 124.17,-271.8 0,0 0.47,2 1.43,5.2 l 0.25,0.3 0.22,1.3 c 1.21,4 2.97,9.5 5.41,15.6 l 0.06,0.1 c 6.4,16.1 17.13,36.2 32.65,44.2 0,0 2.76,21.1 29.9,26.7 0,0 -5.51,33.5 21.6,39 0,0 2.77,22.6 49.69,17.1 0,0 1.83,73.1 56.56,95.6 0,0 -14.73,9.2 -32.25,13.9" transform="matrix(0.13333330353101047, 0, 0, -0.13333330353101047, 0, 2613.333251953125)"/></svg>