<svg class="hair" style="z-index:4;" width="112.92259216308594" height="94.320068359375" viewBox="167.5951801.87112.92394.3201" xmlns="http://www.w3.org/2000/svg" ><pathid="path2338" style="fill:#67bc37;fill-opacity:1;fill-rule:nonzero;stroke:none" d="m2080.12,5656.7c-1.31,1.1-2.76,1.9-4.2,2.816.28,3.427.96,19.526.9,39.1-1.79,15.1-11.22,26.5-23.1,31.1-2.66,2.1-5.62,3.6-8.71,4.914.2,7.121.62,24.116.87,42.2-3.46,12.1-12.02,20.5-21.99,24.4-4.22,3.3-9.02,5.5-14.04,6.611.15,10.114.64,27.26.73,43.1-4.39,8.9-11.65,14.9-19.7,18-5.93,4.6-12.94,7.1-20.01,7.47.74,127.37,28.5-2.96,41.8-4.45,6-10.25,10-16.46,12.3-7.98,6.1-17.7,8.4-26.82,74.46,12.80.94,28.2-11.2,38.7-3.75,3.5-7.95,5.9-12.29,7.5-10.38,7.7-23.08,8.9-33.72,4.81.27,13.1-5.01,26.8-18.46,34.5-2.17,1.4-4.38,2.5-6.64,3.3l-2.36,1.7c-12.82,8.2-27.88,6.9-38.69,-0.2-1.63,12-9.74,23.1-22.94,28.2-3.12,2.3-6.57,4.4-10.59,5.7-14.67,6-29.82,1.2-39,-8.7-3.38,9.3-10.76,17.2-20.99,21-4.83,3.6-10.63,6.2-17.38,7-16.26,3-30.74,-5.1-37.51,-17.5-4,6.6-10.16,11.9-17.71,14.7-6.52,5-14.93,7.9-24.3,7.1-17.43,-0.4-30.51,-11.9-34.08,-26.4-3.72,4.2-8.47,7.5-13.86,9.5-8.24,6.3-19.4,9.2-31.02,6.1-17.96,-4.2-28.88,-19.1-28.49,-34.8-2.82,2.2-5.98,4-9.41,5.3-9.92,7.6-24.22,10-37.6,3.8-17.67,-8.2-25.77,-26.3-20.75,-42.3-1.69,1-3.41,1.8-5.25,2.5-11.55,9-29.01,10.2-43.15,0.2-16.68,-12.3-20.68,-33.1-10.56,-48.1l-2.01,0.6c-13.22,10.6-33.97,9.8-47.82,-4.5-15.09,-16.4-14.21,-39.81.82,-52.3h-0.03c-15.15,12.4-38.99,8.5-51.34,-10-11.62,-19.1-6.54,-41.911.58,-51l-0.01,-0.1c-17.27,9.4-39.74,1-48.6,-19.5-7.29,-20.10.87,-40.418.78,-47l0.95,-0.7c-18.49,5.1-37.72,-7.3-42.9,-28.5-2.98,-19.26.81,-36.322.42,-41.6l2,-1.6c-17.55,-0.7-31.56,-15.7-32.56,-360.08,-1710.26,-30.523.65,-35.21.73,-1.43.55,-2.55.48,-3.4-15.6,-5.4-25.07,-22.4-21.48,-42.13.4,-13.812.62,-23.623.35,-27.63.64,-2.87.66,-4.811.86,-5.9-10.74,-10.2-13.86,-28.6-3.84,-45.15.02,-8.211.96,-13.619.38,-16.37.56,-5.716.4,-7.924.73,-6.9-4.36,-13.20.02,-29.514.19,-402.82,-25.74,-3.58.69,-4.7l0.31,-0.3c13.32,-9.428.6,-9.839.81,-3.51.26,-12.59.7,-24.723.8,-30.12.84,-2.15.91,-3.99.44,-5.214.99,-5.729.94,-1.739.19,7.93.36,-9.610.91,-17.821.28,-21.74.49,-3.49.81,-5.915.89,-6.915.44,-3.229.54,3.737.1,15.12.2,-4.45.39,-8.29.22,-11.419.03,18.941.3,33.567.3,42.6-1.74,4.6-2.73,9.5-2.73,14.5v7c-11.04,5-21.57,10.3-32.13,14.8-30.03,12.7-76.23,8-130.51,80.8-18.55,24.8-28.32,56.7-33.16,87.9-31.5,-9.9-32.84,31.7-38.44,51.8-5.77,20.8-21.18,39.7-4.23,61.312.51,15.932.87,10.142.59,61.06,6.26.12,3220.92,64.912.24,-0.522.93,628.08,15.9-10.17,-16.9-0.67,-40.721.14,-48.621.57,-7.842.77,3.947.37,23-5.19,-198.1,-39.429.66,-4321.51,-3.740.53,10.442.52,30.2-2.37,-19.513.13,-37.934.63,-38.821.5,-1.238.76,15.238.57,34.8-0.18,-19.617.06,-3638.56,-34.821.5,0.937.01,19.334.64,38.8h0.01c1.99,-19.820.99,-33.942.49,-30.221.59,3.634.86,2429.66,43h0.01c4.59,-19.125.8,-30.847.38,-2321.8,7.931.3,31.721.14,48.65.87,-11.318.98,-18.233.4,-15.317.26,-38.121.46,-66.921.46,-66.90,00.39,-2.50.9,-6.910.35,3.928.77,7.840.42,-716.95,-21.61.54,-40.4-4.23,-61.2-5.62,-20.3-6.96,-62.2-38.97,-51.7-5.27,-28.2-14.86,-56.4-31.6,-78.8-54.28,-72.8-100.48,-68.1-130.51,-80.8-10.59,-4.5-21.16,-9.8-32.23,-14.8l-0.03,-7c0,-5.5-1.09,-10.7-3.13,-15.626.11,-10.348.43,-26.767.54,-47.69.85,516.74,14.118.75,24.63.64,-3.98.13,-6.913.23,-8.98.37,-6.319.69,-9.131.5,-5.817.62,4.128.33,19.727.8,35.32.66,-25.64,-3.78.87,-4.910.11,-7.924.9,-9.939,-2.818.59,9.625.61,29.818.3,45.30.93,-0.41.89,-0.82.88,-1.212.38,-1032.9,-9.847.3,5.217.67,17.313.82,43.4-2.91,53.5-2.22,1.4-4.46,2.5-6.75,3.4l-1.89,1.4h0.04c2.24,-1.64.63,-2.77.1,-3.5l1.5,-1.3c16.67,-11.740.8,-4.350.41,18.28.2,21-1.22,41.7-18.23,47.5l-0.44,0.3c18.13,-2.935.53,11.238.75,32.91.03,18-8.6,33-22.59,38.1" transform="matrix(0.13333330353101047,0,0,-0.13333330353101047,2.842170943040401e-14,2613.3332519531255)" /></svg>