<svg class="hair" style="z-index:4;" width="104.2652587890625" height="96.1201171875" viewBox="733.8281911.27104.26596.1201" xmlns="http://www.w3.org/2000/svg" ><pathid="path2238" style="fill:#e943aa;fill-opacity:1;fill-rule:nonzero;stroke:none" d="m6204.45,5032.4c-63.92,157.2-197.13,121.2-197.13,121.210.67,21.343.97,38.743.97,38.7-79.92,11.9-111.9,-26.7-111.9,-26.721.33,3623.99,99.923.99,99.9-47.95,-54.6-125.2,-79.9-125.2,-79.9-334.04,-40.7-334.47,-245.4-324.39,-315.84.69,-0.98.85,-2.311.95,-3.62.01,11.517.89,91.685.24,157.93.79,3.77.71,7.111.77,10.445.1,-43.2156.53,-126.7332.64,-113.30,0109.88,-35.995.9,-157.8l10,45.711.39,52.1c8.92,0.818.78,-1.226.03,-10.416.95,-21.61.54,-40.4-4.22,-61.2-5.62,-20.2-6.97,-62.2-38.96,-51.7-5.28,-28.2-14.87,-56.3-31.62,-78.8-54.28,-72.8-100.47,-68.1-130.51,-80.8-10.59,-4.5-21.13,-9.8-32.21,-14.8l-0.04,-7c0,-3.9-0.58,-7.6-1.64,-11.219.34,530.63,10.330.63,10.3l19.96,-9.3c45.29,2069.28,41.369.28,41.3l18.63,-16c287.69,215.873.26,483.573.26,483.570.59,13.3133.18,-22.7133.18,-22.7" transform="matrix(0.13333330353101047,0,0,-0.13333330353101047,7.105427357601002e-15,2613.333251953125)" /><pathid="path2240" style="fill:#e943aa;fill-opacity:1;fill-rule:nonzero;stroke:none" d="m5721.66,4563.5c-11.05,5-21.6,10.3-32.15,14.8-30.04,12.7-76.23,8-130.51,80.8-18.55,24.9-28.32,56.7-33.18,87.9-6.74,-2.1-12.17,-2-16.48,05.09,-130.587.77,-164.787.77,-164.7l14.65,11.9c21.31,-34.658.61,-42.658.61,-42.6v12c18.2,-8.636.04,-14.753.13,-19-1.18,3.8-1.86,7.8-1.86,11.9l0.02,7" transform="matrix(0.13333330353101047,0,0,-0.13333330353101047,7.105427357601002e-15,2613.333251953125)" /></svg>