<svgclass="hair" style="z-index:4;" width="147.90399169921875" height="52.7332763671875" viewBox="563.6511815.53147.90452.7333" xmlns="http://www.w3.org/2000/svg" ><pathid="path2222" style="fill:#bf1c2d;fill-opacity:1;fill-rule:nonzero;stroke:none" d="m4995.02,5785.8c0,0193.81,197.7341.64,-800,0-53.95,38-95.9,330,062.93,-3070.92,-95.90,0-39.94,43-72.91,440,044.94,-4117.97,-98.90,0-48.95,137.8-223.75,146.8l-37.97,51" transform="matrix(0.13333330353101047,0,0,-0.13333330353101047,0,2613.333251953125)" /><pathid="path2224" style="fill:#bf1c2d;fill-opacity:1;fill-rule:nonzero;stroke:none" d="m4533.54,5695.9c0,010.97,172.8256.71,180.80,0220.75,-7232.76,-184.80,0-16,25.9-52.95,67.90,0-12.99,-30-33.97,-580,0-41.62,30.3-47.61,55.30,0-5.67,-44.9-26.64,-59.90,0-32.29,22-33.3,55.90,0-15.32,-38.6-41.29,-54.60,0-22.64,32-26.62,600,0-25.65,-49-46.63,-600,0-17.98,42.6-19.98,58.60,0-20.64,-44.6-50.6,-58.60,0-8.34,28-9.34,560,0-25.62,-46.7-44.61,-55.60,0-6.66,37.6-0.66,55.62.24,6.7-55.27,-58.6-55.27,-58.6" transform="matrix(0.13333330353101047,0,0,-0.13333330353101047,0,2613.333251953125)" /><pathid="path2226" style="fill:#f5f013;fill-opacity:1;fill-rule:nonzero;stroke:none" d="m5045.16,5779.5c9.8,-215.62,-43.7-9.38,-50.7-14.98,-7-35.1,4.3-44.92,25.3-9.82,21-5.63,43.79.35,50.715,735.1,-4.344.95,-25.3" transform="matrix(0.13333330353101047,0,0,-0.13333330353101047,0,2613.333251953125)" /><pathid="path2228" style="fill:#bf1c2d;fill-opacity:1;fill-rule:nonzero;stroke:none" d="m4569,5785.8c0,0-193.79,197.7-341.62,-800,053.95,3895.9,330,0-62.93,-30-70.92,-95.90,039.96,4372.91,440,0-44.94,-41-17.97,-98.90,048.95,137.8223.75,146.8l37.95,51" transform="matrix(0.13333330353101047,0,0,-0.13333330353101047,0,2613.333251953125)" /><pathid="path2230" style="fill:#f5f013;fill-opacity:1;fill-rule:nonzero;stroke:none" d="m4518.89,5779.5c-9.81,-21-5.63,-43.79.35,-50.715,-735.12,4.344.92,25.39.85,215.65,43.7-9.35,50.7-14.98,7-35.1,-4.3-44.92,-25.3" transform="matrix(0.13333330353101047,0,0,-0.13333330353101047,0,2613.333251953125)" /></svg>