<svgclass="hair" style="z-index:4;" width="90.7197036743164" height="68.4666748046875" viewBox="23.93441925.0990.719768.4667" xmlns="http://www.w3.org/2000/svg" ><pathid="path2214" style="fill:#987a44;fill-opacity:1;fill-rule:nonzero;stroke:none" d="m838.656,4931.4-113.574,19.262.414,163.5-127.629,-108.6-2.832,122.8-97.988,-94.4-35.371,127.9-61.153,-130.3-77.597,96.7-14.285,-135.8-130.246,40.953.281,-108.7c-2.422,-1.8-4.785,-3.7-7.09,-5.7l-80.703,19.238.535,-65.2C179.508,4779.3200.453,4663200.453,4663l18.672,4110.168,-39.432.02,4330.011,-42.1c19.364,134.3115.254,168.9115.254,168.9l63.465,-98.427.52,81.357.5,-85.620.812,100.5101.941,-97.7-21.445,89.9c39.785,-28.873.887,-79.678.684,-169.4l31.972,40.729.969,-44.411.973,38.816.738,-41.8c0,034.199,149.1-64.336,250.3l77.285,32.8" transform="matrix(0.13333330353101047,0,0,-0.13333330353101047,7.105427357601002e-15,2613.333251953125)" /></svg>