<svgclass="hair" style="z-index:4;" width="87.61203002929688" height="80.1334228515625" viewBox="331.9051690.9587.61280.1334" xmlns="http://www.w3.org/2000/svg" ><pathid="path2076" style="fill:#ec1d27;fill-opacity:1;fill-rule:nonzero;stroke:none" d="m3024.7,6720.3c64.49,12.5121.68,-21.3121.68,-21.3-58.4,147.6-180.08,113.8-180.08,113.89.73,20.140.16,36.340.16,36.3-73.01,11.3-102.21,-25-102.21,-2519.46,33.821.9,93.821.9,93.8-43.81,-51.3-114.36,-75-114.36,-75-196.61,-24.6-266.64,-113.2-289.18,-190.7-17.47,-38.1-33.32,-86-28.16,-146.50,023.97,024.94,-5.10.95,-4.81.82,-10.82.67,-17.43.27,-25.36.32,-61.611.78,-95.83.57,-22.38.15,-43.714.54,-60.50,04.49,24.711.77,60.215.07,73.442.24,193.367.15,238.50,09.99,-3820.99,-620,039.95,4852.94,620,017.97,-4730.96,-620,026.04,44.240.95,637.64,-2.433.61,-57.438.16,-66.3h0.1c-0.7,1.3-1.44,2.7-2.3,4.30,034.96,5344.96,618.2,-11.936.72,-56.140.95,-620,026.66,42.134.97,582.94,0.119.97,-3228.08,-49.922.63,-46.651.48,-117.959.14,-191.12.2,-21.32.69,-42.70.66,-63.70,07.87,28.316.66,63.59.14,36.719.28,80.922.46,108.3l0.26,2.1c0.25,2.515.56,6.929.55,0.98.47,-3.622.26,112.1-43.64,200.5-10.5,17.9-18.45,28.1-18.45,28.1" transform="matrix(0.13333330353101047,0,0,-0.13333330353101047,0,2613.333251953125)" /></svg>