<svg width="110.92501831054688" height="78.5997314453125" viewBox="28.9696 1439.79 110.925 78.5997" xmlns="http://www.w3.org/2000/svg"><path id="path2090" style="fill:#a0d066;fill-opacity:1;fill-rule:nonzero;stroke:none" d="m 330.375,8272.8 6.895,-3.8 55.289,58.1 11.175,-92 68.34,86.4 83.496,-65.1 -6.449,85.5 86.367,-56.2 -20.156,100.6 132.039,-50 -83.836,113.5 151.301,-23.1 c 42.305,-60.2 50.723,-118.3 50.723,-118.3 0,0 0.382,-2.5 0.906,-6.9 10.351,3.9 28.769,7.9 40.41,-7 16.949,-21.5 1.531,-40.4 -4.234,-61.2 -1.625,-5.8 -2.899,-13.5 -4.645,-21.2 l 97.102,52.3 -103.891,55.9 158.003,106.6 -192.624,-5.4 115.09,144.7 -171.031,-72.7 9.609,47.1 8.105,39.8 11.582,56.9 -51.945,-35.2 -71.668,-48.4 12.527,166.4 0.625,8.2 5.52,73.3 -100.16,-222.9 -50.621,111.9 -53.266,-125.2 -82.586,103.9 -5.32,-143.9 -109.231,58.6 39.961,-130.5 -135.843,-13.3 98.558,-85.3 -93.09,-15.9 -16.129,-2.7 19.075,-10.7 39.765,-22.3 10.989,-6.2 13.511,-7.6 29.762,-16.7" transform="matrix(0.1333333035310105, 0, 0, -0.1333333035310105, 4.547473508864641e-13, 2613.333251953125)"/></svg>