<svg class="hair" width="75.51715087890625" height="84.2266845703125" viewBox="756.739 1563.52 75.5172 84.2267" xmlns="http://www.w3.org/2000/svg"><path class="hair" id="path2176" style="fill:#f0ef1d;fill-opacity:1;fill-rule:nonzero;stroke:none" d="M 6196.88 7243.3 L 6211.61 7243.3 L 6214.28 7472.7 C 6209.11 7443.7 6196.81 7410.1 6179.58 7387 C 6125.3 7314.3 6079.1 7318.9 6049.08 7306.2 C 6037.97 7301.5 6028.85 7297.4 6017.16 7292.2 L 6015.17 7284.5 C 6015.17 7267.6 6014.703 7271.022 6022.649 7248.362 L 6061.43 7243.3 L 6062.45 7244.9 L 6075.14 7265.7 L 6086.77 7244.3 L 6087.34 7243.3 L 6120.38 7243.3 L 6135.03 7283.6 L 6149.01 7243.3 L 6180.19 7243.3 L 6189.01 7257.7 L 6196.88 7243.3" transform="matrix(0.13333330353101047, 0, 0, -0.13333330353101047, 0, 2613.333251953125)"/><path class="hair" id="path2178" style="fill:#f0ef1d;fill-opacity:1;fill-rule:nonzero;stroke:none" d="M 5880.32 7283.1 L 5880.32 7290.9 C 5869.86 7295.6 5859.87 7300.6 5849.83 7304.9 C 5819.8 7317.6 5773.61 7312.9 5719.33 7385.7 C 5695.86 7417.1 5681.35 7461 5678.2 7499.3 L 5680.87 7241.9 L 5694.05 7241.9 L 5702.88 7256.4 L 5710.73 7241.9 L 5783.21 7241.9 L 5783.42 7242.3 L 5796.1 7263 L 5807.59 7241.9 L 5868.582 7249.998 C 5879.655 7275.696 5880.32 7266.2 5880.32 7283.1" transform="matrix(0.13333330353101047, 0, 0, -0.13333330353101047, 0, 2613.333251953125)"/><path class="hair" id="path2180" style="fill:#f0ef1d;fill-opacity:1;fill-rule:nonzero;stroke:none" d="M 5679.53 7585.9 C 5679.53 7585.9 5692.18 7677.9 5760.77 7719.1 C 5834.02 7763 5913.95 7697.8 5951.23 7664.5 C 5951.23 7664.5 6049.79 7752.4 6131.03 7715.1 C 6170.38 7697 6202.87 7658.6 6214.94 7589.9 C 6214.94 7589.9 6241.92 7861.6 5947.57 7829.6 C 5947.57 7829.6 5675.54 7873.6 5679.53 7585.9" transform="matrix(0.13333330353101047, 0, 0, -0.13333330353101047, 0, 2613.333251953125)"/></svg>