<?xml version="1.0" encoding="utf-8"?><svg width="72.60406494140625" height="77.919921875" viewBox="612.906 1569.29 72.6041 77.9199" xmlns="http://www.w3.org/2000/svg"><path id="path2170" style="fill:#7c91d2;fill-opacity:1;fill-rule:nonzero;stroke:none" d="m 4608.92,7601.4 c 17.83,44.4 72.79,91 72.79,91 67.92,-24 140.84,-85.9 140.84,-85.9 5,12 -19.97,53 -19.97,53 39.95,-17 68.91,-89 68.91,-89 22.98,69 69.93,84 69.93,84 -10.99,-9 -7.99,-44 -7.99,-44 38.96,53.9 150.84,72.9 150.84,72.9 42.95,-46.9 56.93,-114.9 56.93,-114.9 0.13,5.3 -0.04,10.4 -0.14,15.5 -4.69,243.1 -256.58,244.3 -256.58,244.3 -287.68,2 -280.68,-245.8 -280.68,-245.8 0.42,3.5 4.45,17.3 5.12,18.9" transform="matrix(0.13333330353101047, 0, 0, -0.13333330353101047, 0, 2613.333251953125)"/><path id="path2172" style="fill:#7c91d2;fill-opacity:1;fill-rule:nonzero;stroke:none" d="m 5123.47,7245.9 h 14.74 l -2,226.8 c -5.17,-29.1 -12.81,-59.9 -30.04,-83 -54.28,-72.8 -100.48,-68.2 -130.5,-80.9 -11.11,-4.7 -20.22,-8.7 -31.91,-14 l -2,-7.7 c 0,-16.9 -10.59,-31.7 -26.93,-41.2 h 73.18 l 1.02,1.7 12.7,20.7 11.64,-21.3 0.57,-1.1 h 33.03 l 14.66,40.3 13.99,-40.3 h 31.15 l 8.84,14.4 7.86,-14.4" transform="matrix(0.13333330353101047, 0, 0, -0.13333330353101047, 0, 2613.333251953125)"/><path id="path2174" style="fill:#7c91d2;fill-opacity:1;fill-rule:nonzero;stroke:none" d="m 4802.25,7287.1 v 7.7 c -10.44,4.8 -20.45,9.8 -30.48,14 -30.04,12.7 -76.22,8.1 -130.5,80.9 -23.48,31.4 -35.33,74.6 -38.48,112.9 v -256.7 h 13.2 l 8.82,14.4 7.86,-14.4 h 72.48 l 0.19,0.3 12.7,20.8 11.48,-21.1 h 99.45 c -16.25,9.5 -26.72,24.3 -26.72,41.2" transform="matrix(0.13333330353101047, 0, 0, -0.13333330353101047, 0, 2613.333251953125)"/></svg>