<svgclass="hair" style="z-index:4;" width="93.2294921875" height="57.94677734375" viewBox="734.1762061.4393.229557.9468" xmlns="http://www.w3.org/2000/svg" ><pathid="path2132" style="fill:#7a3e1a;fill-opacity:1;fill-rule:nonzero;stroke:none" d="m5879.05,3828.6c0.82,-0.41.71,-0.72.66,-0.9l1.25,-0.8c-1.45,0.5-2.8,1-3.91,1.7zm-152.85,40c1.45,-2.93.13,-5.34.98,-7.5-2.15,2.1-3.77,4.6-4.98,7.5zm479.24,-27.4c0.1,3.8-0.59,8-1.91,12.4-0.92,8.2-4.18,15.8-8.99,22.4-1.71,2.3-7.04,9.3-12.15,14v0c3.03,10.2-0.15,25.8-3.75,32.7-1.61,3.1-3.7,6.3-6.07,9.3-4.16,6.8-10.63,12.7-18.87,17.8-1.37,0.8-2.73,1.4-4.12,1.81.1,7.9-1.04,17-3.03,23.9-3.39,11.7-11.41,19-22.09,23.2-1.95,0.7-5.04,1.6-8.45,2.14.46,10.61.73,23.3-4.73,32.1-6.96,9.4-16.81,21.3-29.2,20.4-1.58,-0.2-3.33,-0.5-5.12,-0.9-2.87,-0.4-5.72,-1.1-8.36,-2.30.39,16-13.66,33.1-24.87,41.3-10.87,7.9-28.48,10.6-39.5,2.4-1.94,19.7-22.04,33.6-39.47,34.9-5.17,0.3-11.94,-1.6-17.99,-5.1-3.75,-1.6-6.82,-3.6-9.24,-5.9-6.72,7.3-20.43,13.9-24.85,14.3-7.79,0.7-22.05,-5.5-30.11,-14.2-6.23,8-21.76,15-26.31,16.5-15.1,5-30.15,-3.1-37.54,-16.2-5.9,10.4-26.02,7.9-34.75,4.9-6.25,-2-13.39,-9.7-17.51,-18.2-1.78,2-4.26,3.4-6.72,4.3-10.45,3.6-19.95,2.9-29.93,-1.9-7.12,-3.4-16.48,-13.1-20.95,-23.4-1.21,0.9-2.45,1.6-3.4,2.1-7.08,3.5-15.72,3.1-23.2,1.7-7.6,-1.4-14.74,-5.9-19.26,-12.6-2.35,-3.4-3.72,-6.7-4.4,-10-4.08,3.4-11,3.6-15.7,2.7-8.17,-1.5-15.31,-6-20.17,-13.2-3.5,-5.3-6.53,-12-8.17,-19.1-9.75,10.2-28.19,1.5-34.9,-8.9-3.91,-6-7.54,-18.1-6.64,-27.9-14.2,-0.3-24.49,-15-27.22,-28.6-1.15,-5.8-0.75,-13.11.24,-19.7-11.8,0.2-23.98,-18.5-24.76,-28.9-0.45,-6.31.89,-14.96.09,-21.8-11.02,-5.4-16.96,-23.2-16.15,-34.70.29,-4.13.64,-12.48.11,-18.1-14.01,-8.2-13.17,-30.7-10.18,-45.51.03,-5.35.74,-13.611.43,-18.4-7.53,-11.13.29,-25.215.09,-29.75.51,-212.83,3.916.48,7.221.65,19.529.32,1.647.82,-5.228.82,-10.742.07,28.730.91,46.33.74,1.17.27,3.19.65,5.47.91,7.712.04,17.910.6,29.2-0.97,7.7-4.44,13.5-9.21,17.45.21,4.68.89,12.610.34,20.12.47,-15.33,-0.97.94,-0.54.27,0.611.27,414.61,8.711.49,-11.529.24,-14.639.79,-4.20.12,-9.55.08,-19.812.41,-25.18.03,-5.717.8,-8.127.31,-6.54.19,0.77.72,3.910.59,8.10.21,-2.10.62,-4.31.46,-6.63.11,-8.713.49,-13.421.31,-15.48.56,-2.218.65,-1.125.53,50.92,0.81.72,1.92.49,3.1l0.24,-1.9c1.93,-8.710.28,-13.217.85,-14.510.57,-1.822.68,1.729.18,9.82.24,-6.36.7,-11.712.84,-14.415.74,-6.927.57,-2.937.07,82.09,-11.111.44,-17.224.76,-22.610.32,-4.320.61,2.226.17,11.41.08,-9.27.11,-16.716.2,-22.710.59,-720.17,-3.828.3,2.7l1.5,0.7c0.21,-6.73.57,-12.412.36,-16.312.95,-5.723.89,-4.231.94,3.7-0.44,-9.33.42,-17.912.22,-24.13.53,-2.412.31,-5.519.98,-5.8-2.06,-3.5-2.87,-8.1-2.48,-13.41.12,-14.612.71,-24.524.87,-28.920.04,-7.243.73,7.948.91,28.22.73,5.44.52,11.55.79,17.4l0.24,1.6c4.86,4.811.43,2.917.48,3.28.16,0.411.68,8.913.71,162.13,7.51.14,20.3-3.39,28.89.19,5.512.75,25.213,34.1" transform="matrix(0.13333330353101047,0,0,-0.13333330353101047,0,2613.333251953125)" /></svg>