<?xml version="1.0" encoding="utf-8"?>
<svg width="108.18130493164062" height="59.4000244140625" viewBox="319.815 1807.23 108.181 59.4" xmlns="http://www.w3.org/2000/svg">
  <path id="path2464" style="fill:#eeee17;fill-opacity:1;fill-rule:nonzero;stroke:none" d="m 2583.88,5766.8 c -4.04,-2.6 146.51,-102.6 484.78,-129.2 0,0 -53.92,408.2 -484.78,129.2" transform="matrix(0.13333330353101047, 0, 0, -0.13333330353101047, 2.842170943040401e-14, 2613.3332519531255)"/>
  <path id="path2466" style="fill:#eeee17;fill-opacity:1;fill-rule:nonzero;stroke:none" d="m 2637.15,5781.4 c -1.33,-4 -97.22,-181.1 -97.22,-181.1 0,0 -5.34,127.9 43.95,166.5 49.28,38.6 53.27,14.6 53.27,14.6" transform="matrix(0.13333330353101047, 0, 0, -0.13333330353101047, 2.842170943040401e-14, 2613.3332519531255)"/>
  <path id="path2468" style="fill:#eeee17;fill-opacity:1;fill-rule:nonzero;stroke:none" d="m 2570.41,5697.1 c -30.92,-57.7 -87.52,-87.6 -126.43,-66.8 -38.89,20.9 -45.37,84.5 -14.46,142.3 30.91,57.7 87.52,87.5 126.41,66.7 38.91,-20.8 45.39,-84.5 14.48,-142.2" transform="matrix(0.13333330353101047, 0, 0, -0.13333330353101047, 2.842170943040401e-14, 2613.3332519531255)"/>
  <path id="path2470" style="fill:#eeee17;fill-opacity:1;fill-rule:nonzero;stroke:none" d="m 3038.17,5702.4 c 30.92,-57.7 87.52,-87.6 126.43,-66.7 38.91,20.8 45.37,84.5 14.45,142.2 -30.9,57.7 -87.5,87.6 -126.4,66.7 -38.91,-20.8 -45.37,-84.5 -14.48,-142.2" transform="matrix(0.13333330353101047, 0, 0, -0.13333330353101047, 2.842170943040401e-14, 2613.3332519531255)"/>
  <path id="path2474" style="fill:#f9bd13;fill-opacity:1;fill-rule:nonzero;stroke:none" d="m 2559.53,5706.8 c 18.63,34.8 26.33,71.2 23.99,102.7 12.89,-29.5 9.47,-72.4 -11.97,-112.4 -23.58,-44 -62.07,-71.8 -96.28,-73.3 31.8,14 62.91,43.1 84.26,83" transform="matrix(0.13333330353101047, 0, 0, -0.13333330353101047, 2.842170943040401e-14, 2613.3332519531255)"/>
</svg>