<svgclass="hair" style="z-index:4;" width="92.75837707519531" height="33.86669921875" viewBox="34.6141591.2192.758433.8667" xmlns="http://www.w3.org/2000/svg" ><pathid="path2502" style="fill:#aec9c2;fill-opacity:1;fill-rule:nonzero;stroke:none" d="m275.172,7532.8c-1.102,-1.7-1.996,-3.6-2.676,-5.6l-1.945,-2.2c1.086,2.42.664,5.24.621,7.8zm163.156,47.8-0.715,0.61.215,0.8zm-6.625,-24.30.488,-1-0.664,0.7zm-77.379,42.80.086,0.21.938,-0.6-0.66,-0.4-1.465,0.2zm-27.429,2.6c0.293,-2.10.804,-4.11.507,-6-7.672,1.2-16.484,-1.1-26.312,-8.1-13.695,-9.7-17.621,-25.4-11.598,-38.9-12.762,0.3-26.277,-11.7-28.351,-24.7-2.536,-16.18.097,-37.623.871,-36.2-2.871,-4.2-3.707,-10.2-1.703,-15.91.902,-5.55.832,-10.611.668,-121.152,-0.22.437,-0.33.769,-0.3-0.199,-1-0.328,-2.1-0.121,-3.30.98,-5.74.605,-10.39.594,-13.24.844,-2.910.941,-3.916.051,-1.13.894,-8.110.277,-15.217.957,-19.911.32,-8.127.082,-10.239.078,-0.4l0.726,0.6c10.492,6.516.442,17.117.977,29.10.344,1.30.633,2.60.867,3.97.832,6.414.973,13.621.184,21.215.796,19.332.515,45.230.046,71.5-0.957,10.2-4.55,19.9-10.285,27.510.754,12.28.325,30.7-2.984,42.4-5.398,5.7-13.789,9.6-22.148,10.5-2.02,21.2-26.672,37.5-51.688,27.7-4.496,-1.8-8.922,-4.1-13.141,-6.9-8.941,-3.9-16.632,-12.2-21.355,-22-4.609,-8-6.656,-16.8-4.609,-25.5" transform="matrix(0.13333330353101044,0,0,-0.13333330353101044,0,2613.333251953125)" /><pathid="path2504" style="fill:#aec9c2;fill-opacity:1;fill-rule:nonzero;stroke:none" d="m898.512,7607.2c-0.844,1.9-1.918,3.7-3.231,5.4-0.226,0.9-0.515,1.9-0.847,2.81.457,-2.22.929,-5.14.078,-8.2zm-48.992,-162.70.953,0.2-0.043,-1.4zm-16.743,18.8-1.105,0.10.961,0.2zm78.063,41.50.113,-0.2-1.523,-1.30.004,0.81.027,1.1zm17.203,21.5c-1.906,0.9-3.879,1.6-5.887,25.215,5.88.047,14.57.571,26.5-0.684,16.8-11.704,28.7-26.27,317.219,10.54.516,28.4-5.289,37.2-12.059,10.9-35.91,13.7-43.313,-0.2-1.988,4.7-6.535,8.6-12.417,10.1-5.583,1.3-12,0.8-16.375,-3.3-0.852,-0.8-1.637,-1.9-2.364,-3-0.73,0.7-1.527,1.4-2.636,1.9-5.325,2.3-11.165,1.8-16.34,-0.8-5.035,-2.5-9.2,-7.1-9.66,-12.9-8.95,1.2-18.34,-0.3-26.442,-4.2-13.035,-5-23.355,-17.1-21.711,-32.5l0.141,-1c-0.313,-12.35.308,-2314.527,-30.90.91,-11.86,-1.92.824,-2.81.094,-10.13.227,-206.219,-29.47.602,-23.720.184,-51.943.567,-64.29.019,-4.719.113,-728.625,-6.34.355,-15.721.203,-23.837.207,-20.77.64,1.515.5,6.420.839,12.918.832,-9.946.02,1.951.414,28.20.969,4.71.383,9.71.375,14.81.645,9.6-1.128,20.6-6.738,29.8-4.234,8.3-10.484,14.8-18.867,17.8" transform="matrix(0.13333330353101044,0,0,-0.13333330353101044,0,2613.333251953125)" /></svg>