<?xml version="1.0" encoding="utf-8"?><svg width="89.95333862304688" height="58.920166015625" viewBox="459.844 1700.73 89.9533 58.9202" xmlns="http://www.w3.org/2000/svg"><path id="path2298" style="fill-opacity: 1; fill-rule: nonzero; stroke: none; fill: rgb(122, 26, 119);" d="M 3918.36 6815.5 C 3918.05 6815.3 3867.75 6844.5 3819.24 6826.1 C 3801.56 6821.9 3786.45 6813.9 3777.19 6801.1 C 3774.69 6798.2 3772.62 6795.2 3770.88 6792.1 C 3761.88 6802.7 3746.29 6810.4 3722.85 6813.8 C 3690.16 6818.6 3691.496 6821.018 3681.146 6797.718 C 3663.726 6813.318 3599.41 6798.6 3578.32 6785.5 C 3552.38 6769.4 3537.17 6730.9 3561.15 6713.8 C 3551.25 6712.2 3541.76 6706 3536.56 6696.8 C 3531.64 6688.1 3530.02 6677.3 3536.21 6668.6 C 3537.4 6666.9 3539.06 6665.2 3540.92 6663.7 C 3539.26 6662.7 3537.64 6661.6 3536.29 6660 C 3529.67 6652 3528.26 6642.1 3531.15 6632.7 C 3532.23 6629.1 3630.863 6680.778 3606.873 6614.178 C 3583.473 6550.178 3672.892 6610.144 3672.892 6610.144 C 3746.912 6686.044 3730.627 6584.134 3732.777 6585.334 C 3752.617 6583.634 3795.598 6663.448 3814.898 6665.048 C 3863.938 6669.348 3845.12 6551.8 3878.38 6586.1 C 3888.69 6596.8 3896.15 6609.2 3900.08 6622 C 3949.08 6597.9 4009.596 6820.003 4048.48 6523.5 C 4048.48 6523.5 4123.48 6696.9 3918.36 6815.5" transform="matrix(0.13333330353101047, 0, 0, -0.13333330353101047, 0, 2613.333251953125)"/></svg>