<?xml version="1.0" encoding="utf-8"?>
<svg width="76.89599609375" height="57.933349609375" viewBox="599.154 2061.31 76.896 57.9333" xmlns="http://www.w3.org/2000/svg">
  <path id="path2478" style="fill:#593f32;fill-opacity:1;fill-rule:nonzero;stroke:none" d="m 5070.38,3705.7 -38.63,432.8 -30.63,-91.9 -54.61,90.6 -41.68,-86.1 -58.69,89.1 -50.7,-87.8 -48.71,86.1 -44.73,-87.4 -55.15,84.8 -46.25,-84.8 -45.99,84.1 -60.95,-429.5 h 22.55 c 1.92,10.4 4.52,20.5 7.65,30.5 9.77,27.4 85.92,175.5 262.5,45.4 0,0 153.19,112.9 229.8,7.5 14.94,-25.5 25.77,-53.7 31.43,-83.4 h 22.79" transform="matrix(0.13333330353101047, 0, 0, -0.13333330353101047, 0, 2613.333251953125)"/>
</svg>