<svg class="hair" style="z-index:4;" width="110.92501831054688" height="78.5997314453125" viewBox="28.96961439.79110.92578.5997" xmlns="http://www.w3.org/2000/svg" ><pathid="path2090" style="fill:#a0d066;fill-opacity:1;fill-rule:nonzero;stroke:none" d="m330.375,8272.86.895,-3.855.289,58.111.175,-9268.34,86.483.496,-65.1-6.449,85.586.367,-56.2-20.156,100.6132.039,-50-83.836,113.5151.301,-23.1c42.305,-60.250.723,-118.350.723,-118.30,00.382,-2.50.906,-6.910.351,3.928.769,7.940.41,-716.949,-21.51.531,-40.4-4.234,-61.2-1.625,-5.8-2.899,-13.5-4.645,-21.2l97.102,52.3-103.891,55.9158.003,106.6-192.624,-5.4115.09,144.7-171.031,-72.79.609,47.18.105,39.811.582,56.9-51.945,-35.2-71.668,-48.412.527,166.40.625,8.25.52,73.3-100.16,-222.9-50.621,111.9-53.266,-125.2-82.586,103.9-5.32,-143.9-109.231,58.639.961,-130.5-135.843,-13.398.558,-85.3-93.09,-15.9-16.129,-2.719.075,-10.739.765,-22.310.989,-6.213.511,-7.629.762,-16.7" transform="matrix(0.1333333035310105,0,0,-0.1333333035310105,4.547473508864641e-13,2613.333251953125)" /></svg>