<svgclass="hair" style="z-index:4;" width="147.90399169921875" height="52.7332763671875" viewBox="563.6511815.53147.90452.7333" xmlns="http://www.w3.org/2000/svg" xmlns:bx="https://boxy-svg.com" ><pathid="path-1" style="fill:rgb(79,55,36);fill-opacity:1;fill-rule:nonzero;stroke:none;" d="M607.0341852.235C606.931851.809606.7151851.555606.4911851.182L606.2181851.222C6061851.755606.1321852.129606.4841852.555C606.7041852.835607.1041852.542607.0341852.235" /><pathid="path-2" style="fill:rgb(79,55,36);fill-opacity:1;fill-rule:nonzero;stroke:none;" d="M610.2051848.635C609.8911848.02609.2451847.653608.571847.115L607.7491847.173C607.0941847.942607.4911848.482608.551849.097C609.2121849.501610.4151849.078610.2051848.635" /><pathid="path-3" style="fill:rgb(79,55,36);fill-opacity:1;fill-rule:nonzero;stroke:none;" d="M615.9271840.358C615.6871839.713615.1931839.327614.6781838.761L614.051838.821C613.5491839.631613.8521840.198614.6621840.845C615.1681841.27616.0881840.825615.9271840.358" /><pathid="path-4" style="fill:rgb(79,55,36);fill-opacity:1;fill-rule:nonzero;stroke:none;" d="M611.7491846.752C611.5091846.232611.0151845.921610.4991845.466L609.8721845.515C609.3711846.166609.6751846.623610.4841847.143C610.991847.485611.911847.127611.7491846.752" /><pathid="path-5" style="fill:rgb(79,55,36);fill-opacity:1;fill-rule:nonzero;stroke:none;" d="M611.8621842.168C611.6591841.679611.2421841.388610.8051840.96L610.2741841.006C609.8511841.617610.1081842.047610.7921842.536C611.221842.857611.9981842.52611.8621842.168" /><pathid="path-6" style="fill:rgb(79,55,36);fill-opacity:1;fill-rule:nonzero;stroke:none;" d="M615.3711842.26C615.0571841.645614.4111841.278613.7361840.74L612.9151840.798C612.261841.567612.6571842.107613.7161842.722C614.3781843.126615.5811842.703615.3711842.26" /><pathid="path-7" style="fill:rgb(79,55,36);fill-opacity:1;fill-rule:nonzero;stroke:none;" d="M618.7781837.864C618.4641837.249617.8181836.881617.1431836.344L616.3221836.401C615.6671837.171616.0641837.711617.1231838.326C617.7851838.729618.9881838.307618.7781837.864" transform="matrix(0.81353,0.581524,-0.581524,0.81353,1183.628067,-16.41049)" /><pathid="path-8" style="fill:rgb(79,55,36);fill-opacity:1;fill-rule:nonzero;stroke:none;" d="M621.6431837.39C621.4031836.745620.9091836.359620.3931835.793L619.7661835.853C619.2651836.663619.5681837.23620.3781837.877C620.8841838.302621.8041837.857621.6431837.39" /><pathid="path-9" style="fill:rgb(79,55,36);fill-opacity:1;fill-rule:nonzero;stroke:none;" d="M617.5781839.2C617.3751838.711616.9581838.42616.5211837.992L615.991838.038C615.5671838.649615.8231839.079616.5081839.568C616.9351839.889617.7141839.552617.5781839.2" /><pathid="path-10" style="fill:rgb(79,55,36);fill-opacity:1;fill-rule:nonzero;stroke:none;" d="M621.0861839.292C620.7731838.677620.1271838.31619.4521837.772L618.631837.83C617.9761838.599618.3721839.139619.4321839.754C620.0941840.158621.2971839.735621.0861839.292" /><pathid="path-11" style="fill:rgb(79,55,36);fill-opacity:1;fill-rule:nonzero;stroke:none;" d="M624.4931834.897C624.1791834.282623.5331833.914622.8581833.377L622.0371833.434C621.3821834.204621.7791834.745622.8381835.359C623.51835.762624.7031835.34624.4931834.897" transform="matrix(0.81353,0.581524,-0.581524,0.81353,1182.968474,-20.2871)" /><pathid="path-12" style="fill:rgb(79,55,36);fill-opacity:1;fill-rule:nonzero;stroke:none;" d="M627.461834.823C627.221834.178626.7261833.792626.211833.226L625.5831833.286C625.0821834.096625.3851834.663626.1951835.31C626.7011835.735627.6211835.29627.461834.823" transform="matrix(0.849652,0.527344,-0.527344,0.849652,1061.515729,-54.54108)" /><pathid="path-13" style="fill:rgb(79,55,36);fill-opacity:1;fill-rule:nonzero;stroke:none;" d="M622.9671834.285C622.7641833.796622.3471833.505621.911833.077L621.3791833.123C620.9561833.734621.2121834.164621.8971834.653C622.3241834.974623.1031834.637622.9671834.285" transform="matrix(0.849652,0.527344,-0.527344,0.849652,1060.640949,-52.320944)" /><pathid="path-14" style="fill:rgb(79,55,36);fill-opacity:1;fill-rule:nonzero;stroke:none;" d="M626.0211835.971C625.7081835.356625.0621834.989624.3871834.451L623.5651834.509C622.9111835.278623.3071835.818624.3671836.433C625.0291836.837626.2321836.414626.0211835.971" transform="matrix(0.849652,0.527344,-0.527344,0.849652,1061.867643,-53.435645)" /><pathid="path-15" style="fill:rgb(79,55,36);fill-opacity:1;fill-rule:nonzero;stroke:none;" d="M631.2321834.034C630.9181833.419630.2721833.051629.5971832.514L628.7761832.571C628.1211833.341628.5181833.882629.5771834.496C630.2391834.899631.4421834.477631.2321834.034" transform="matrix(0.384553,0.923103,-0.923103,0.384553,2080.232374,547.052716)" /><pathid="path-16" style="fill:rgb(79,55,36);fill-opacity:1;fill-rule:nonzero;stroke:none;" d="M627.4611834.824C627.2211834.179626.7271833.793626.2111833.227L625.5841833.287C625.0831834.097625.3861834.664626.1961835.311C626.7021835.736627.6221835.291627.4611834.824" transform="matrix(0.849652,0.527344,-0.527344,0.849652,1061.514891,-54.541795)" /><pathid="path-17" style="fill:rgb(79,55,36);fill-opacity:1;fill-rule:nonzero;stroke:none;" d="M622.9671834.285C622.7641833.796622.3471833.505621.911833.077L621.3791833.123C620.9561833.734621.2121834.164621.8971834.653C622.3241834.974623.1031834.637622.9671834.285" transform="matrix(0.849652111530304,0.5273439288139343,-0.5273439288139343,0.849652111530304,1060.6409912109375,-52.320945739745866)" /><pathid="path-18" style="fill:rgb(79,55,36);fill-opacity:1;fill-rule:nonzero;stroke:none;" d="M626.0211835.971C625.7081835.356625.0621834.989624.3871834.451L623.5651834.509C622.9111835.278623.3071835.818624.3671836.433C625.0291836.837626.2321836.414626.0211835.971" transform="matrix(0.849652111530304,0.5273439288139343,-0.5273439288139343,0.849652111530304,1061.86767578125,-53.43564605712868)" /><pathid="path-19" style="fill:rgb(79,55,36);fill-opacity:1;fill-rule:nonzero;stroke:none;" d="M631.2321834.035C630.9181833.419630.2721833.052629.5971832.515L628.7761832.572C628.1211833.341628.5181833.882629.5771834.496C630.2391834.9631.4421834.478631.2321834.035" transform="matrix(0.384553,0.923103,-0.923103,0.384553,2080.232901,547.052998)" /><pathid="path-20" style="fill:rgb(79,55,36);fill-opacity:1;fill-rule:nonzero;stroke:none;" d="M637.5771833.257C637.2641832.642636.6171832.274635.9421831.737L635.1221831.794C634.4661832.564634.8641833.105635.9231833.719C636.5851834.122637.7881833.7637.5771833.257" transform="matrix(0.643748,0.765237,-0.765237,0.643748,1629.181721,166.095586)" /><pathid="path-21" style="fill:rgb(79,55,36);fill-opacity:1;fill-rule:nonzero;stroke:none;" d="M634.861832.245C634.621831.6634.1261831.214633.611830.648L632.9831830.708C632.4821831.518632.7851832.084633.5951832.732C634.1011833.157635.0211832.712634.861832.245" transform="matrix(0.692187,0.721718,-0.721718,0.692187,1517.119659,106.412606)" /><pathid="path-22" style="fill:rgb(79,55,36);fill-opacity:1;fill-rule:nonzero;stroke:none;" d="M633.1871832.918C632.8741832.303632.2281831.936631.5531831.398L630.7311831.456C630.0771832.225630.4731832.765631.5331833.38C632.1951833.784633.3981833.361633.1871832.918" transform="matrix(0.692187,0.721718,-0.721718,0.692187,1517.006382,108.067477)" /><pathid="path-23" style="fill:rgb(79,55,36);fill-opacity:1;fill-rule:nonzero;stroke:none;" d="M638.7141832.334C638.41831.719637.7541831.351637.0791830.814L636.2581830.871C635.6031831.6416361832.182637.0591832.796C637.7211833.199638.9241832.777638.7141832.334" transform="matrix(0.143418,0.989662,-0.989662,0.143418,2358.88145,938.410939)" /><pathid="path-24" style="fill:rgb(79,55,36);fill-opacity:1;fill-rule:nonzero;stroke:none;" d="M646.811832.598C646.4971831.983645.851831.615645.1751831.078L644.3551831.135C643.6991831.905644.0971832.446645.1561833.06C645.8181833.463647.0211833.041646.811832.598" transform="matrix(0.643748,0.765237,-0.765237,0.643748,1631.966556,158.795319)" /><pathid="path-25" style="fill:rgb(79,55,36);fill-opacity:1;fill-rule:nonzero;stroke:none;" d="M644.0931832.904C643.8531832.259643.3591831.873642.8431831.307L642.2161831.367C641.7151832.177642.0181832.743642.8281833.391C643.3341833.816644.2541833.371644.0931832.904" transform="matrix(0.692187,0.721718,-0.721718,0.692187,1520.43744,99.951865)" /><pathid="path-26" style="fill:rgb(79,55,36);fill-opacity:1;fill-rule:nonzero;stroke:none;" d="M633.1871832.917C632.8741832.302632.2281831.936631.5531831.397L630.7311831.456C630.0771832.224630.4731832.765631.5331833.38C632.1951833.784633.3981833.36633.1871832.917" transform="matrix(0.692187,0.721718,-0.721718,0.692187,1517.006249,108.067439)" /><pathid="path-27" style="fill:rgb(79,55,36);fill-opacity:1;fill-rule:nonzero;stroke:none;" d="M642.2311831.345C641.9171830.73641.2711830.362640.5961829.825L639.7751829.882C639.121830.652639.5171831.193640.5761831.807C641.2381832.21642.4411831.788642.2311831.345" transform="matrix(0.143418,0.989662,-0.989662,0.143418,2360.915026,934.082602)" /><pathid="path-28" style="fill:rgb(79,55,36);fill-opacity:1;fill-rule:nonzero;stroke:none;" d="M648.4541832.787C648.1411832.171647.4951831.804646.8191831.267L645.9981831.324C645.3441832.093645.741832.634646.7991833.248C647.4611833.652648.6641833.23648.4541832.787" transform="matrix(-0.416381,0.90919,-0.90919,-0.416381,2582.454878,2006.972908)" /><pathid="path-29" style="fill:rgb(79,55,36);fill-opacity:1;fill-rule:nonzero;stroke:none;" d="M652.1461834.479C651.9061833.834651.4121833.448650.8961832.882L650.2691832.942C649.7681833.752650.0711834.318650.8811834.966C651.3871835.391652.3071834.946652.1461834.479" transform="matrix(-0.059635,0.99822,-0.99822,-0.059635,2520.668161,1293.44402)" /><pathid="path-30" style="fill:rgb(79,55,36);fill-opacity:1;fill-rule:nonzero;stroke:none;" d="M654.7861837.125C654.4721836.51653.8261836.142653.1511835.605L652.331835.662C651.6751836.432652.0721836.973653.1311837.587C653.7931837.99654.9961837.568654.7861837.125" transform="matrix(-0.629004,0.777402,-0.777402,-0.629004,2492.24557,2483.990376)" /><pathid="path-31" style="fill:rgb(79,55,36);fill-opacity:1;fill-rule:nonzero;stroke:none;" d="M650.8241833.462C650.5111832.847649.8651832.481649.191831.942L648.3681832.001C647.7141832.769648.111833.31649.171833.925C649.8321834.329651.0351833.905650.8241833.462" transform="matrix(-0.059635,0.99822,-0.99822,-0.059635,2517.931349,1294.033276)" /><pathid="path-32" style="fill:rgb(79,55,36);fill-opacity:1;fill-rule:nonzero;stroke:none;" d="M659.8641842.434C659.5511841.818658.9051841.451658.2291840.914L657.4081840.971C656.7541841.74657.151842.281658.2091842.896C658.8711843.299660.0741842.877659.8641842.434" transform="matrix(-0.416381,0.90919,-0.90919,-0.416381,2604.769386,2004.022024)" bx:origin="0.748-1.347" /><pathid="path-33" style="fill:rgb(79,55,36);fill-opacity:1;fill-rule:nonzero;stroke:none;" d="M653.2091834.97C652.9691834.325652.4751833.939651.9591833.373L651.3321833.433C650.8311834.243651.1341834.809651.9441835.457C652.451835.882653.371835.437653.2091834.97" transform="matrix(-0.059635,0.99822,-0.99822,-0.059635,2523.640473,1292.961932)" bx:origin="0.8040.796" /><pathid="path-34" style="fill:rgb(79,55,36);fill-opacity:1;fill-rule:nonzero;stroke:none;" d="M654.7861837.125C654.4721836.51653.8261836.142653.1511835.605L652.331835.662C651.6751836.432652.0721836.973653.1311837.587C653.7931837.99654.9961837.568654.7861837.125" transform="matrix(-0.6290040016174316,0.7774021029472351,-0.7774021029472351,-0.6290040016174316,2492.24560546875,2483.990478515625)" bx:origin="0.6072.199" /><pathid="path-35" style="fill:rgb(79,55,36);fill-opacity:1;fill-rule:nonzero;stroke:none;" d="M654.0821839.068C653.7691838.453653.1231838.087652.4481837.548L651.6261837.607C650.9721838.375651.3681838.916652.4281839.531C653.091839.935654.2931839.511654.0821839.068" transform="matrix(-0.059635,0.99822,-0.99822,-0.059635,2527.349081,1293.863285)" bx:origin="1.047-0.085" /><pathid="path-36" style="fill:rgb(79,55,36);fill-opacity:1;fill-rule:nonzero;stroke:none;" d="M661.8191839.204C661.5791838.559661.0851838.173660.5691837.607L659.9421837.667C659.4411838.477659.7441839.043660.5541839.691C661.061840.116661.981839.672661.8191839.204" transform="matrix(-0.059635,0.99822,-0.99822,-0.059635,2535.634853,1288.795783)" /><pathid="path-37" style="fill:rgb(79,55,36);fill-opacity:1;fill-rule:nonzero;stroke:none;" d="M650.8241833.462C650.5111832.847649.8651832.481649.191831.942L648.3681832.001C647.7141832.769648.111833.31649.171833.925C649.8321834.329651.0351833.905650.8241833.462" transform="matrix(-0.05963500589132309,0.9982200264930725,-0.9982200264930725,-0.05963500589132309,2517.931396484375,1294.0333251953127)" /><pathid="path-38" style="fill:rgb(79,55,36);fill-opacity:1;fill-rule:nonzero;stroke:none;" d="M661.7321843.643C661.4191843.027660.7731842.66660.0971842.123L659.2761842.18C658.6221842.949659.0181843.49660.0771844.105C660.7391844.508661.9421844.086661.7321843.643" transform="matrix(-0.416381,0.90919,-0.90919,-0.416381,2608.514476,2004.036089)" bx:origin="0.748-1.347" /><pathid="path-39" style="fill:rgb(79,55,36);fill-opacity:1;fill-rule:nonzero;stroke:none;" d="M658.2651839.256C658.0251838.611657.5311838.225657.0151837.66L656.3881837.719C655.8871838.53656.191839.0956571839.744C657.5061840.168658.4261839.724658.2651839.256" transform="matrix(-0.059635,0.99822,-0.99822,-0.059635,2533.27689,1292.45702)" bx:origin="0.8040.796" /><pathid="path-40" style="fill:rgb(79,55,36);fill-opacity:1;fill-rule:nonzero;stroke:none;" d="M657.271840.936C656.9571840.321656.3111839.955655.6361839.416L654.8141839.475C654.161840.243654.5561840.784655.6161841.399C656.2781841.803657.4811841.379657.271840.936" transform="matrix(-0.059635,0.99822,-0.99822,-0.059635,2532.591908,1292.660412)" bx:origin="1.047-0.085" /><pathid="path-41" style="fill:rgb(79,55,36);fill-opacity:1;fill-rule:nonzero;stroke:none;" d="M663.0861852.01C662.9581851.364662.6921850.978662.4141850.411L662.0771850.472C661.8071851.281661.9711851.849662.4061852.496C662.6781852.921663.1731852.476663.0861852.01" /><pathid="path-42" style="fill:rgb(79,55,36);fill-opacity:1;fill-rule:nonzero;stroke:none;" d="M665.0471847.677C664.6981847.094663.9751846.746663.2191846.234L662.3031846.289C661.5681847.019662.0141847.532663.1971848.116C663.9371848.5665.2831848.098665.0471847.677" /><pathid="path-43" style="fill:rgb(79,55,36);fill-opacity:1;fill-rule:nonzero;stroke:none;" d="M664.3881844.819C664.0391844.236663.3151843.888662.561843.376L661.6431843.431C660.9091844.161661.3541844.674662.5381845.258C663.2781845.642664.6241845.24664.3881844.819" /><pathid="path-44" style="fill:rgb(79,55,36);fill-opacity:1;fill-rule:nonzero;stroke:none;" d="M663.3991841.302C663.051840.719662.3261840.371661.5711839.859L660.6541839.914C659.921840.644660.3651841.157661.5491841.741C662.2891842.125663.6351841.723663.3991841.302" /></svg>