<svg class="hair" style="z-index:4;" width="96.69464111328125" height="72.813232421875" viewBox="339.6431461.2196.694672.8132" xmlns="http://www.w3.org/2000/svg" ><pathid="path2460" style="fill:#211d1d;fill-opacity:1;fill-rule:nonzero;stroke:none" d="m2673.29,8168.4c-18.56,24.9-28.32,56.7-33.17,87.9-31.49,-9.9-32.85,31.7-38.45,51.9-5.77,20.7-21.16,39.6-4.22,61.212.52,15.932.88,10.142.59,6.11.02,5.95.65,29.518.79,6039.44,-48.7137.41,-83.2252.09,-83.2108.34,0201.79,30.8245.05,75.212.48,-31.215.72,-53.515.72,-53.50,00.39,-2.50.9,-6.910.37,3.928.77,7.840.41,-716.95,-21.51.54,-40.4-4.24,-61.2-5.61,-20.2-6.95,-62.2-38.95,-51.6-5.27,-28.3-14.86,-56.5-31.6,-78.9-6.66,-8.9-13.2,-16.6-19.59,-23.427.25,-13.253.26,-2977.54,-47.247.81,5776.37,128.776.37,206.50,185.9-162.34,336.6-362.6,336.6-200.28,0-362.61,-150.7-362.61,-336.60,-79.229.57,-15278.93,-209.521.28,15.846.53,31.771.65,45.2-7.99,7.9-16.2,17.1-24.61,28.4" transform="matrix(0.1333333035310105,0,0,-0.1333333035310105,4.547473508864641e-13,2613.333251953125)" /></svg>