<?xml version="1.0" encoding="utf-8"?><svg width="73.55734252929688" height="94.6534423828125" viewBox="463.883 1801.69 73.5573 94.6534" xmlns="http://www.w3.org/2000/svg"><path id="path2252" style="fill:#c96340;fill-opacity:1;fill-rule:nonzero;stroke:none" d="m 3826.2,5402.6 c 0,-5.5 -1.1,-10.8 -3.15,-15.7 6.97,-2.7 13.66,-5.9 20.1,-9.5 4.64,14.2 8.94,29.4 12.82,45.8 -9.76,-4.3 -19.53,-9.1 -29.74,-13.7 l -0.03,-6.9" transform="matrix(0.13333330353101047, 0, 0, -0.13333330353101047, 0, 2613.333251953125)"/><path id="path2254" style="fill:#c96340;fill-opacity:1;fill-rule:nonzero;stroke:none" d="m 3686.69,5402.6 v 6.9 c -9.21,4.2 -18.06,8.5 -26.86,12.4 3.51,-14.6 7.34,-28.5 11.47,-41.4 5.83,2.8 11.85,5.4 18.1,7.6 -1.72,4.6 -2.71,9.4 -2.71,14.5" transform="matrix(0.13333330353101047, 0, 0, -0.13333330353101047, 0, 2613.333251953125)"/><path id="path2256" style="fill:#ad4d37;fill-opacity:1;fill-rule:nonzero;stroke:none" d="m 3767.06,5979.4 c 13.97,-0.5 26.96,-1.7 39.49,-3.3 0.16,1.5 0.47,3 0.47,4.6 0,26.5 -21.46,48 -47.95,48 -26.48,0 -47.95,-21.5 -47.95,-48 0,-1.7 0.34,-3.3 0.51,-5 32.62,4.6 55.43,3.7 55.43,3.7" transform="matrix(0.13333330353101047, 0, 0, -0.13333330353101047, 0, 2613.333251953125)"/><path id="path2258" style="fill:#c96340;fill-opacity:1;fill-rule:nonzero;stroke:none" d="m 3711.12,5980.7 c 0,26.5 21.47,48 47.95,48 26.49,0 47.95,-21.5 47.95,-48 0,-1.6 -0.31,-3.1 -0.47,-4.6 -12.53,1.6 -25.52,2.8 -39.49,3.3 0,0 -22.81,0.9 -55.43,-3.7 -0.17,1.7 -0.51,3.3 -0.51,5 z M 3488.52,5693 c 12.46,10.4 49.94,37.6 99.42,37 2.28,-0.1 6.62,79.9 8.98,79.9 2.29,0 2.62,-80.1 4.98,-80.1 37.45,-0.5 80.92,-0.7 125.86,-0.5 2.12,0.1 8.34,29.9 9.89,41.3 0.42,-11.4 3.21,-41.2 5.11,-41.1 58.21,0.4 118.03,1.8 169.79,4.9 3.02,0.2 8.17,29.1 9.1,38.1 1.19,-8.8 8.34,-37 10.92,-36.8 35.07,2.4 78.49,-25.4 92.67,-52.3 l 0.2,-0.3 c 0,0 1.37,8.4 2.17,22.1 3.19,55.3 -3.33,199.3 -147.64,253.4 0.11,2.1 0.31,4.1 0.31,6.1 0,67.7 -54.86,122.6 -122.54,122.6 -67.67,0 -122.53,-54.9 -122.53,-122.6 0,-2.8 0.23,-5.5 0.42,-8.3 -76.2,-29.1 -156.51,-94.4 -152.98,-241.5 0.2,-8.3 0.62,-16.9 1.38,-25.9 0,0 1.57,1.6 4.49,4" transform="matrix(0.13333330353101047, 0, 0, -0.13333330353101047, 0, 2613.333251953125)"/></svg>