<svgclass="hair" style="z-index:4;" width="94.69482421875" height="77.506591796875" viewBox="733.3051692.2794.694877.5066" xmlns="http://www.w3.org/2000/svg" ><pathid="path2120" style="fill:#713922;fill-opacity:1;fill-rule:nonzero;stroke:none" d="m6210,6662.3c-69.92,21-96.56,-3.6-96.56,-3.63.45,42.220.11,38.427.69,38.6-41.09,0.7-75.97,-8-75.97,-89,52.956.95,82.956.95,82.9-65.94,6-116.88,-38-116.88,-3838.97,442.99,88.92.99,88.96,-67.9-30.95,-75.9-30.95,-75.913.98,64-17.99,117.9-17.99,117.9-15.98,-43-46.96,-106.9-46.96,-106.9-53.92,37-42.93,145.9-42.93,145.9-31.97,-26-38.96,-128.9-38.96,-128.9-22.97,28-67.93,132.8-67.93,132.8-13.98,-70.9-51.95,-139.8-51.95,-139.83,30-32.95,56.9-32.95,56.9-2.01,-36.9-17.99,-83.9-17.99,-83.9-23.97,361.99,110.91.99,110.9-90.9,-48.9-85.9,-183.8-85.9,-183.8-23.98,9-60.93,63.9-60.93,63.9-14.98,-82.938.96,-202.738.96,-202.7-11.99,23-49.96,12-49.96,1248.98,-41.449.02,-135.962.95,-201.81.09,-5.32.24,-9.53.32,-130,038.63,239.447.95,246.19.31,6.6186.46,-30221.76,-2839.96,0197.11,33.9201.77,284.67,-653.95,-227.853.95,-227.81.91,11.89.59,30.410.64,36.617.99,117.931.98,6057.95,182.8-20.97,-33.9-28.96,-24.9-28.96,-24.918.98,97.974.9,122.874.9,122.8" transform="matrix(0.13333330353101047,0,0,-0.13333330353101047,0,2613.333251953125)" /></svg>