<svg class="hair" width="112.92259216308594" height="94.320068359375" viewBox="167.595 1801.87 112.923 94.3201" xmlns="http://www.w3.org/2000/svg"><path class="hair" id="path2338" style="fill:#67bc37;fill-opacity:1;fill-rule:nonzero;stroke:none" d="m 2080.12,5656.7 c -1.31,1.1 -2.76,1.9 -4.2,2.8 16.28,3.4 27.96,19.5 26.9,39.1 -1.79,15.1 -11.22,26.5 -23.1,31.1 -2.66,2.1 -5.62,3.6 -8.71,4.9 14.2,7.1 21.62,24.1 16.87,42.2 -3.46,12.1 -12.02,20.5 -21.99,24.4 -4.22,3.3 -9.02,5.5 -14.04,6.6 11.15,10.1 14.64,27.2 6.73,43.1 -4.39,8.9 -11.65,14.9 -19.7,18 -5.93,4.6 -12.94,7.1 -20.01,7.4 7.74,12 7.37,28.5 -2.96,41.8 -4.45,6 -10.25,10 -16.46,12.3 -7.98,6.1 -17.7,8.4 -26.82,7 4.46,12.8 0.94,28.2 -11.2,38.7 -3.75,3.5 -7.95,5.9 -12.29,7.5 -10.38,7.7 -23.08,8.9 -33.72,4.8 1.27,13.1 -5.01,26.8 -18.46,34.5 -2.17,1.4 -4.38,2.5 -6.64,3.3 l -2.36,1.7 c -12.82,8.2 -27.88,6.9 -38.69,-0.2 -1.63,12 -9.74,23.1 -22.94,28.2 -3.12,2.3 -6.57,4.4 -10.59,5.7 -14.67,6 -29.82,1.2 -39,-8.7 -3.38,9.3 -10.76,17.2 -20.99,21 -4.83,3.6 -10.63,6.2 -17.38,7 -16.26,3 -30.74,-5.1 -37.51,-17.5 -4,6.6 -10.16,11.9 -17.71,14.7 -6.52,5 -14.93,7.9 -24.3,7.1 -17.43,-0.4 -30.51,-11.9 -34.08,-26.4 -3.72,4.2 -8.47,7.5 -13.86,9.5 -8.24,6.3 -19.4,9.2 -31.02,6.1 -17.96,-4.2 -28.88,-19.1 -28.49,-34.8 -2.82,2.2 -5.98,4 -9.41,5.3 -9.92,7.6 -24.22,10 -37.6,3.8 -17.67,-8.2 -25.77,-26.3 -20.75,-42.3 -1.69,1 -3.41,1.8 -5.25,2.5 -11.55,9 -29.01,10.2 -43.15,0.2 -16.68,-12.3 -20.68,-33.1 -10.56,-48.1 l -2.01,0.6 c -13.22,10.6 -33.97,9.8 -47.82,-4.5 -15.09,-16.4 -14.21,-39.8 1.82,-52.3 h -0.03 c -15.15,12.4 -38.99,8.5 -51.34,-10 -11.62,-19.1 -6.54,-41.9 11.58,-51 l -0.01,-0.1 c -17.27,9.4 -39.74,1 -48.6,-19.5 -7.29,-20.1 0.87,-40.4 18.78,-47 l 0.95,-0.7 c -18.49,5.1 -37.72,-7.3 -42.9,-28.5 -2.98,-19.2 6.81,-36.3 22.42,-41.6 l 2,-1.6 c -17.55,-0.7 -31.56,-15.7 -32.56,-36 0.08,-17 10.26,-30.5 23.65,-35.2 1.73,-1.4 3.55,-2.5 5.48,-3.4 -15.6,-5.4 -25.07,-22.4 -21.48,-42.1 3.4,-13.8 12.62,-23.6 23.35,-27.6 3.64,-2.8 7.66,-4.8 11.86,-5.9 -10.74,-10.2 -13.86,-28.6 -3.84,-45.1 5.02,-8.2 11.96,-13.6 19.38,-16.3 7.56,-5.7 16.4,-7.9 24.73,-6.9 -4.36,-13.2 0.02,-29.5 14.19,-40 2.82,-2 5.74,-3.5 8.69,-4.7 l 0.31,-0.3 c 13.32,-9.4 28.6,-9.8 39.81,-3.5 1.26,-12.5 9.7,-24.7 23.8,-30.1 2.84,-2.1 5.91,-3.9 9.44,-5.2 14.99,-5.7 29.94,-1.7 39.19,7.9 3.36,-9.6 10.91,-17.8 21.28,-21.7 4.49,-3.4 9.81,-5.9 15.89,-6.9 15.44,-3.2 29.54,3.7 37.1,15.1 2.2,-4.4 5.39,-8.2 9.22,-11.4 19.03,18.9 41.3,33.5 67.3,42.6 -1.74,4.6 -2.73,9.5 -2.73,14.5 v 7 c -11.04,5 -21.57,10.3 -32.13,14.8 -30.03,12.7 -76.23,8 -130.51,80.8 -18.55,24.8 -28.32,56.7 -33.16,87.9 -31.5,-9.9 -32.84,31.7 -38.44,51.8 -5.77,20.8 -21.18,39.7 -4.23,61.3 12.51,15.9 32.87,10.1 42.59,6 1.06,6.2 6.12,32 20.92,64.9 12.24,-0.5 22.93,6 28.08,15.9 -10.17,-16.9 -0.67,-40.7 21.14,-48.6 21.57,-7.8 42.77,3.9 47.37,23 -5.19,-19 8.1,-39.4 29.66,-43 21.51,-3.7 40.53,10.4 42.52,30.2 -2.37,-19.5 13.13,-37.9 34.63,-38.8 21.5,-1.2 38.76,15.2 38.57,34.8 -0.18,-19.6 17.06,-36 38.56,-34.8 21.5,0.9 37.01,19.3 34.64,38.8 h 0.01 c 1.99,-19.8 20.99,-33.9 42.49,-30.2 21.59,3.6 34.86,24 29.66,43 h 0.01 c 4.59,-19.1 25.8,-30.8 47.38,-23 21.8,7.9 31.3,31.7 21.14,48.6 5.87,-11.3 18.98,-18.2 33.4,-15.3 17.26,-38.1 21.46,-66.9 21.46,-66.9 0,0 0.39,-2.5 0.9,-6.9 10.35,3.9 28.77,7.8 40.42,-7 16.95,-21.6 1.54,-40.4 -4.23,-61.2 -5.62,-20.3 -6.96,-62.2 -38.97,-51.7 -5.27,-28.2 -14.86,-56.4 -31.6,-78.8 -54.28,-72.8 -100.48,-68.1 -130.51,-80.8 -10.59,-4.5 -21.16,-9.8 -32.23,-14.8 l -0.03,-7 c 0,-5.5 -1.09,-10.7 -3.13,-15.6 26.11,-10.3 48.43,-26.7 67.54,-47.6 9.85,5 16.74,14.1 18.75,24.6 3.64,-3.9 8.13,-6.9 13.23,-8.9 8.37,-6.3 19.69,-9.1 31.5,-5.8 17.62,4.1 28.33,19.7 27.8,35.3 2.66,-2 5.64,-3.7 8.87,-4.9 10.11,-7.9 24.9,-9.9 39,-2.8 18.59,9.6 25.61,29.8 18.3,45.3 0.93,-0.4 1.89,-0.8 2.88,-1.2 12.38,-10 32.9,-9.8 47.3,5.2 17.67,17.3 13.82,43.4 -2.91,53.5 -2.22,1.4 -4.46,2.5 -6.75,3.4 l -1.89,1.4 h 0.04 c 2.24,-1.6 4.63,-2.7 7.1,-3.5 l 1.5,-1.3 c 16.67,-11.7 40.8,-4.3 50.41,18.2 8.2,21 -1.22,41.7 -18.23,47.5 l -0.44,0.3 c 18.13,-2.9 35.53,11.2 38.75,32.9 1.03,18 -8.6,33 -22.59,38.1" transform="matrix(0.13333330353101047, 0, 0, -0.13333330353101047, 2.842170943040401e-14, 2613.3332519531255)"/></svg>