<?xml version="1.0" encoding="utf-8"?>
<svg class="hair" style="z-index:4;" width="112.94276428222656" height="48.86669921875" viewBox="19.8973 2185.57 112.943 48.8667" xmlns="http://www.w3.org/2000/svg">
  <path id="path2146" style="fill:#909191;fill-opacity:1;fill-rule:nonzero;stroke:none" d="m 266.824,2906.3 c 12.285,15.7 32.114,10.4 42.031,6.4 l -1.89,2.4 c 4.898,28.8 11.258,54.1 18.687,76.5 -98.203,-15.5 -165.371,-41.4 -175.039,-76.5 -0.386,1.4 -0.703,2.8 -0.945,4.3 4.395,-30.3 50.203,-57.6 122.234,-77.7 -0.269,1.2 -0.547,2.3 -0.847,3.4 -5.782,20.8 -21.192,39.7 -4.231,61.2" transform="matrix(0.13333330353101044, 0, 0, -0.13333330353101044, -1.7763568394002505e-15, 2613.3332519531255)"/>
  <path id="path2148" style="fill:#909191;fill-opacity:1;fill-rule:nonzero;stroke:none" d="m 832.742,2990.4 c 10.395,-34.1 13.957,-65.4 15.141,-84.4 10.508,2.8 24.82,3.4 34.472,-8.9 14.786,-18.8 4.958,-35.6 -1.625,-53.3 64.629,18.9 106.625,43.8 114.204,71.3 -9.426,34.3 -70.547,59.7 -162.192,75.3" transform="matrix(0.13333330353101044, 0, 0, -0.13333330353101044, -1.7763568394002505e-15, 2613.3332519531255)"/>
  <path id="path2150" style="fill:#bebcbc;fill-opacity:1;fill-rule:nonzero;stroke:none" d="m 572.773,3041.3 c 118.094,0 224.872,-13.4 301.692,-35 -14.594,21.5 -48.156,72.8 -59.492,106 -14.653,42.7 -40.317,73.2 -78.868,73.2 -68.71,0 -91.25,-28.2 -130.636,-24.8 -66.68,5.7 -158.86,47.5 -198.274,20.2 -41.09,-28.4 -82.144,-101.2 -101.132,-165.8 72.832,16.4 165.609,26.2 266.71,26.2" transform="matrix(0.13333330353101044, 0, 0, -0.13333330353101044, -0.6076293858720447, 2613.3332519531255)"/>
  <path id="path2152" style="fill:#cecbcb;fill-opacity:1;fill-rule:nonzero;stroke:none" d="m 994.949,2915.2 c 0.371,1.4 0.688,2.7 0.918,4.1 0.266,1.6 0.434,3.2 0.434,4.8 0,32.1 -46.528,61.1 -121.836,82.2 -76.82,21.6 -183.598,35 -301.692,35 -101.101,0 -193.878,-9.8 -266.71,-26.2 -95.641,-21.5 -156.833,-54.2 -156.833,-91 0,-1.6 0.172,-3.2 0.438,-4.7 0.242,-1.5 0.559,-2.9 0.945,-4.3 9.668,35.1 76.836,61 175.039,76.5 11.25,1.7 22.895,3.4 34.922,4.9 9.641,1.2 19.524,2.3 29.621,3.3 56.746,5.8 120.285,8.8 187.09,8.8 61.301,0 119.192,-2.5 171.278,-7.4 11.703,-1.1 23.097,-2.3 34.179,-3.6 17.5,-2.1 34.199,-4.5 50,-7.2 91.645,-15.6 152.766,-41 162.192,-75.3 v 0 l 0.015,0.1" transform="matrix(0.13333330353101044, 0, 0, -0.13333330353101044, -1.7763568394002505e-15, 2613.3332519531255)"/>
</svg>