<svg width="92.96524047851562" height="81.2398681640625" viewBox="466.229 1457 92.9652 81.2399" xmlns="http://www.w3.org/2000/svg"><path id="path2232" style="fill:#5c2790;fill-opacity:1;fill-rule:nonzero;stroke:none" d="m 4193.96,8269 c 0,222.8 -156.09,403.5 -348.63,403.5 -192.52,0 -348.61,-180.7 -348.61,-403.5 0,-75.2 17.81,-145.6 48.73,-205.8 h 168.32 c 18.34,17.4 39.59,31 64.24,39.7 -1.74,4.6 -2.73,9.5 -2.73,14.5 l 0.01,7 c -11.05,5 -21.6,10.2 -32.15,14.7 -30.03,12.7 -76.23,8.1 -130.5,80.9 -18.56,24.8 -28.32,56.7 -33.17,87.9 -31.49,-9.9 -32.85,31.7 -38.43,51.8 -5.79,20.8 -21.18,39.7 -4.24,61.2 10.08,12.8 25.17,11.6 35.78,8.5 1.19,-41.8 3.05,-106.1 3.05,-106.1 l 1.42,4 44.12,126.5 h 444.34 l 45.53,-130.5 c 0,0 1.25,42.5 2.34,80.9 0.16,5.1 0.29,10.2 0.43,15.1 10.58,3.6 27.56,6.4 38.53,-7.6 16.96,-21.6 1.55,-40.4 -4.23,-61.2 -5.63,-20.3 -6.96,-62.2 -38.97,-51.7 -5.25,-28.2 -14.84,-56.4 -31.6,-78.8 -54.28,-72.8 -100.49,-68.2 -130.51,-80.9 -10.58,-4.5 -21.13,-9.8 -32.21,-14.8 l -0.03,-6.9 c 0,-5.5 -1.12,-10.7 -3.15,-15.7 22.23,-8.7 41.68,-21.9 58.79,-38.5 h 174.78 c 30.92,60.2 48.75,130.6 48.75,205.8" transform="matrix(0.1333333035310105, 0, 0, -0.1333333035310105, 4.547473508864641e-13, 2613.333251953125)"/></svg>