<?xml version="1.0" encoding="utf-8"?><svg width="95.0960693359375" height="74.4130859375" viewBox="744.68 1459.51 95.0961 74.4131" xmlns="http://www.w3.org/2000/svg"><path id="path2492" style="fill:#ccad16;fill-opacity:1;fill-rule:nonzero;stroke:none" d="m 5921.21,8258.4 c 6.54,-3 13.28,-7.4 21,-7 6.34,0.4 7.52,1.9 21.27,7.4 58.4,23.1 214.35,62 245.6,-163.2 0,0 89.24,207.8 -30.62,339.6 l -2.68,-51.9 c 0,0 -103.22,183.8 -210.43,217.1 -8.3,2.6 21.31,-56 1.33,-83.9 0,0 -73.93,137.2 -73.93,122.5 0,-4 11.33,-97.2 -41.95,-147.8 0,0 -15.98,22.6 -19.98,50.6 0,0 -245.72,-150.5 -159.82,-432.9 0,0 13.86,254.7 250.21,149.5" transform="matrix(0.1333333035310105, 0, 0, -0.1333333035310105, 4.547473508864641e-13, 2613.333251953125)"/></svg>