<?xml version="1.0" encoding="utf-8"?><svg width="89.95333862304688" height="58.920166015625" viewBox="459.844 1700.73 89.9533 58.9202" xmlns="http://www.w3.org/2000/svg"><path id="path2298" style="fill:#7a3e1a;fill-opacity:1;fill-rule:nonzero;stroke:none" d="m 3918.36,6815.5 c -0.31,-0.2 -50.61,29 -99.12,10.6 -17.68,-4.2 -32.79,-12.2 -42.05,-25 -2.5,-2.9 -4.57,-5.9 -6.31,-9 -9,10.6 -24.59,18.3 -48.03,21.7 -32.69,4.8 -60.08,-9.3 -70.43,-32.6 -17.42,15.6 -53.01,17.4 -74.1,4.3 -25.94,-16.1 -41.15,-54.6 -17.17,-71.7 -9.9,-1.6 -19.39,-7.8 -24.59,-17 -4.92,-8.7 -6.54,-19.5 -0.35,-28.2 1.19,-1.7 2.85,-3.4 4.71,-4.9 -1.66,-1 -3.28,-2.1 -4.63,-3.7 -6.62,-8 -8.03,-17.9 -5.14,-27.3 1.08,-3.6 -30.99,-22.3 -54.98,-88.9 -23.4,-64 -27.34,-141.2 -27.34,-141.2 74.02,75.9 226.5,132.7 228.65,133.9 19.84,-1.7 39.84,-1.6 59.14,0 49.04,4.3 108.5,15.3 141.76,49.6 10.31,10.7 17.77,23.1 21.7,35.9 49,-24.1 109.51,-58.7 148.4,-98.5 0,0 75,173.4 -130.12,292" transform="matrix(0.13333330353101047, 0, 0, -0.13333330353101047, 0, 2613.333251953125)"/></svg>