<svg width="94.69482421875" height="77.506591796875" viewBox="733.305 1692.27 94.6948 77.5066" xmlns="http://www.w3.org/2000/svg"><path id="path2120" style="fill:#713922;fill-opacity:1;fill-rule:nonzero;stroke:none" d="m 6210,6662.3 c -69.92,21 -96.56,-3.6 -96.56,-3.6 3.45,42.2 20.11,38.4 27.69,38.6 -41.09,0.7 -75.97,-8 -75.97,-8 9,52.9 56.95,82.9 56.95,82.9 -65.94,6 -116.88,-38 -116.88,-38 38.97,44 2.99,88.9 2.99,88.9 6,-67.9 -30.95,-75.9 -30.95,-75.9 13.98,64 -17.99,117.9 -17.99,117.9 -15.98,-43 -46.96,-106.9 -46.96,-106.9 -53.92,37 -42.93,145.9 -42.93,145.9 -31.97,-26 -38.96,-128.9 -38.96,-128.9 -22.97,28 -67.93,132.8 -67.93,132.8 -13.98,-70.9 -51.95,-139.8 -51.95,-139.8 3,30 -32.95,56.9 -32.95,56.9 -2.01,-36.9 -17.99,-83.9 -17.99,-83.9 -23.97,36 1.99,110.9 1.99,110.9 -90.9,-48.9 -85.9,-183.8 -85.9,-183.8 -23.98,9 -60.93,63.9 -60.93,63.9 -14.98,-82.9 38.96,-202.7 38.96,-202.7 -11.99,23 -49.96,12 -49.96,12 48.98,-41.4 49.02,-135.9 62.95,-201.8 1.09,-5.3 2.24,-9.5 3.32,-13 0,0 38.63,239.4 47.95,246.1 9.31,6.6 186.46,-30 221.76,-28 39.96,0 197.11,33.9 201.77,28 4.67,-6 53.95,-227.8 53.95,-227.8 1.91,11.8 9.59,30.4 10.64,36.6 17.99,117.9 31.98,60 57.95,182.8 -20.97,-33.9 -28.96,-24.9 -28.96,-24.9 18.98,97.9 74.9,122.8 74.9,122.8" transform="matrix(0.13333330353101047, 0, 0, -0.13333330353101047, 0, 2613.333251953125)"/></svg>