<?xml version="1.0" encoding="utf-8"?>
<svg id="man" width="86" height="380" viewBox="202.71499633789062 584.406982421875 94 380.0480041503906" preserveAspectRatio="xMidYMid meet" xmlns="http://www.w3.org/2000/svg">
  <defs id="svgEditorDefs">
    <path id="svgEditorClosePathDefs" class="skin" fill="moccasin" style="stroke-width: 0px; stroke: none; fill-opacity: 1;"/>
    <pattern id="pattern-0" x="0" y="0" width="20" height="20" patternUnits="userSpaceOnUse" viewBox="0 0 100 100">
      <path d="M 0 0 L 50 0 L 50 100 L 0 100 Z" style="fill: black;"/>
      <rect x="49.199" y="-0.321" width="62.981" height="100.481" style="fill: rgb(173, 151, 115);"/>
    </pattern>
    <pattern id="pattern-2" x="0" y="0" width="20" height="20" patternUnits="userSpaceOnUse" viewBox="0 0 100 100">
      <path d="M 0 0 L 50 0 L 50 100 L 0 100 Z" style="fill: black;"/>
      <rect x="49.199" y="-0.321" width="62.981" height="100.481" style="fill: rgb(173, 151, 115);"/>
    </pattern>
  </defs>
  <g>
    <rect x="251.439" y="957.755" width="35.934" height="6.091" style="stroke: rgb(0, 0, 0); fill: rgb(241, 241, 241);"/>
    <path d="M 208.806 891.95 C 208.806 895.13 226.534 901.301 228.904 905.295 C 230.444 907.89 222.977 906.185 222.205 906.835 C 221.64 907.311 201.089 916.244 202.715 917.614 C 206.958 921.19 232.425 926.742 237.431 930.961 C 238.364 931.747 220.196 930.087 219.16 930.961 C 208.3 940.113 199.566 932.926 208.197 940.2 C 208.251 940.246 215.556 936.051 216.114 935.58 C 216.97 934.859 244.739 930.447 244.739 930.447 C 244.739 930.447 212.46 916.075 212.46 916.075 C 212.46 916.075 243.701 899.591 244.74 902.216 C 246.067 905.572 233.199 900.702 231.95 899.65 C 227.888 896.226 210.633 898.585 210.633 892.977" style="stroke: rgb(0, 0, 0); fill: rgb(241, 241, 241);"/>
    <path d="M 230.731 940.714 C 229.134 939.367 206.978 928.395 206.978 928.395 C 206.978 928.395 236.822 916.075 236.822 916.075 C 236.822 916.075 222.82 909.148 220.987 908.376 C 214.471 905.63 209.605 905.97 205.151 902.216 C 202.32 899.83 212.674 899.469 215.505 897.083 C 218.053 894.936 224.865 894.841 227.686 892.463 C 227.869 892.309 231.185 887.199 233.168 888.87 C 236.906 892.021 222.505 897.47 219.769 898.623 C 218.006 899.366 213.068 902.217 213.069 902.216 C 216.513 899.313 240.849 913.823 242.912 915.561 C 244.256 916.694 216.537 925.471 214.287 927.368 C 213.227 928.261 229.601 935.654 230.122 936.093 C 233.338 938.804 233.168 946.456 233.168 943.28" style="stroke: rgb(0, 0, 0); fill: rgb(241, 241, 241);"/>
    <path d="M 242.076 940.833 C 242.527 937.467 264.201 930.936 267.546 926.709 C 269.722 923.962 260.72 925.767 259.906 925.079 C 259.311 924.575 236.466 915.121 238.57 913.671 C 244.054 909.885 274.718 904.01 281.191 899.544 C 282.395 898.712 260.845 900.47 259.754 899.544 C 248.311 889.859 237.046 897.465 248.202 889.766 C 248.272 889.718 256.248 894.157 256.836 894.656 C 257.738 895.418 289.689 900.088 289.689 900.088 C 289.689 900.088 249.784 915.299 249.784 915.299 C 249.784 915.299 284.099 932.746 285.689 929.968 C 287.722 926.416 271.934 931.57 270.319 932.684 C 265.07 936.307 245.161 933.811 244.366 939.746" style="stroke: rgb(0, 0, 0); fill: rgb(241, 241, 241);" transform="matrix(-0.993002, 0.118096, -0.118096, -0.993002, 634.367312, 1793.0091)"/>
    <path d="M 283.326 888.694 C 281.139 890.119 251.88 901.732 251.88 901.732 C 251.88 901.732 287.449 914.771 287.449 914.771 C 287.449 914.771 268.959 922.103 266.558 922.92 C 258.022 925.826 251.986 925.466 245.885 929.439 C 242.007 931.965 254.903 932.346 258.104 934.872 C 260.985 937.145 269.489 937.245 272.678 939.762 C 272.884 939.925 276.307 945.333 279.024 943.564 C 284.143 940.23 266.91 934.463 263.653 933.242 C 261.553 932.456 255.784 929.438 255.784 929.439 C 259.68 932.512 292.165 917.154 294.991 915.315 C 296.833 914.116 263.418 904.826 260.873 902.818 C 259.675 901.874 281.196 894.049 281.909 893.585 C 286.315 890.716 287.187 882.617 286.736 885.978" style="stroke: rgb(0, 0, 0); fill: rgb(241, 241, 241);" transform="matrix(-0.993002, 0.118096, -0.118096, -0.993002, 646.343555, 1790.794868)"/>
    <rect x="204.847" y="958.364" width="35.934" height="6.091" style="stroke: rgb(0, 0, 0); fill: rgb(241, 241, 241);"/>
  </g>
</svg>